<?xml version="1.0" encoding="utf-8"?>
<!-- Generator: Adobe Illustrator 16.0.0, SVG Export Plug-In . SVG Version: 6.00 Build 0)  -->
<!DOCTYPE svg PUBLIC "-//W3C//DTD SVG 1.1//EN" "http://www.w3.org/Graphics/SVG/1.1/DTD/svg11.dtd">
<svg version="1.1" id="Layer_1" xmlns="http://www.w3.org/2000/svg" xmlns:xlink="http://www.w3.org/1999/xlink" x="0px" y="0px"
	 width="240px" height="126px" viewBox="0 0 240 126" enable-background="new 0 0 240 126" xml:space="preserve">
<g id="Layer_1_1_">
	<g>
		<g enable-background="new    ">
			<path fill="#FFFFFF" d="M8.188,101.028c0.117,0,0.219-0.033,0.307-0.099c0.088-0.066,0.131-0.164,0.131-0.296v-9.98
				c0-0.132-0.043-0.223-0.131-0.273c-0.087-0.051-0.19-0.077-0.307-0.077v-0.394h4.096v0.394c-0.073,0-0.15,0.022-0.23,0.066
				c-0.081,0.043-0.121,0.109-0.121,0.196c0,0.073,0.029,0.168,0.088,0.285c0.058,0.116,0.124,0.24,0.197,0.372l3.132,5.69
				l3.154-5.625c0.102-0.189,0.179-0.34,0.23-0.449c0.051-0.109,0.077-0.208,0.077-0.295c0-0.16-0.095-0.241-0.285-0.241v-0.394
				h4.052v0.394c-0.117,0-0.219,0.026-0.307,0.077s-0.131,0.142-0.131,0.273v9.98c0,0.132,0.044,0.229,0.131,0.296
				c0.087,0.065,0.189,0.099,0.307,0.099v0.394h-3.438v-0.394c0.394,0,0.591-0.132,0.591-0.395v-7.267h-0.044l-4.402,8.055h-0.065
				l-4.315-8.076H10.86v7.288c0,0.263,0.204,0.395,0.613,0.395v0.394H8.188V101.028z"/>
			<path fill="#FFFFFF" d="M33.901,94.549c0-0.028-0.004-0.058-0.011-0.087s-0.011-0.066-0.011-0.109
				c0-0.073-0.073-0.172-0.219-0.296s-0.354-0.244-0.624-0.361c-0.271-0.116-0.588-0.215-0.953-0.295
				c-0.365-0.08-0.767-0.121-1.205-0.121c-0.526,0-1.004,0.07-1.435,0.208c-0.431,0.14-0.807,0.347-1.128,0.624
				c-0.321,0.277-0.569,0.62-0.745,1.029c-0.175,0.408-0.263,0.875-0.263,1.4s0.099,0.996,0.296,1.412
				c0.197,0.415,0.456,0.773,0.777,1.072s0.687,0.525,1.095,0.679c0.409,0.152,0.825,0.229,1.249,0.229
				c0.394,0,0.795-0.051,1.205-0.153c0.409-0.102,0.781-0.223,1.117-0.361s0.61-0.288,0.822-0.448
				c0.211-0.16,0.317-0.307,0.317-0.438v-0.176c0-0.087-0.007-0.16-0.022-0.219l0.241-0.219l1.621,2.32l-0.219,0.109
				c-0.175-0.073-0.299-0.109-0.372-0.109c-0.117,0-0.307,0.065-0.57,0.196c-0.263,0.132-0.595,0.281-0.996,0.449
				c-0.402,0.168-0.869,0.311-1.402,0.427c-0.533,0.116-1.128,0.175-1.785,0.175c-0.672,0-1.336-0.095-1.993-0.284
				c-0.657-0.189-1.241-0.492-1.752-0.908c-0.511-0.416-0.927-0.934-1.249-1.555c-0.321-0.619-0.482-1.338-0.482-2.155
				s0.161-1.532,0.482-2.146c0.321-0.612,0.745-1.127,1.271-1.543c0.525-0.416,1.128-0.726,1.807-0.93
				c0.679-0.204,1.376-0.307,2.092-0.307c0.555,0,1.062,0.051,1.522,0.153c0.46,0.102,0.865,0.219,1.216,0.35
				c0.351,0.132,0.642,0.249,0.876,0.351c0.233,0.103,0.401,0.153,0.504,0.153c0.073,0,0.135-0.022,0.186-0.065
				c0.051-0.044,0.106-0.08,0.164-0.109l0.263,0.152l-1.446,2.08L33.901,94.549z"/>
			<path fill="#FFFFFF" d="M45.574,89.909c0.803,0,1.551,0.117,2.245,0.35c0.693,0.234,1.295,0.588,1.807,1.062
				c0.511,0.475,0.913,1.073,1.205,1.795c0.292,0.723,0.438,1.573,0.438,2.55c0,0.979-0.146,1.828-0.438,2.551
				c-0.292,0.722-0.693,1.32-1.205,1.794c-0.511,0.475-1.113,0.829-1.807,1.062c-0.694,0.234-1.442,0.351-2.245,0.351h-7.271v-0.394
				c0.336,0,0.504-0.132,0.504-0.395v-9.937c0-0.263-0.168-0.395-0.504-0.395v-0.394H45.574z M44.698,99.539
				c0.686,0,1.285-0.058,1.796-0.175c0.511-0.116,0.934-0.324,1.271-0.624c0.335-0.299,0.587-0.696,0.755-1.192
				s0.252-1.123,0.252-1.883c0-0.758-0.084-1.386-0.252-1.882s-0.42-0.894-0.755-1.193c-0.336-0.299-0.76-0.507-1.271-0.623
				c-0.511-0.117-1.11-0.176-1.796-0.176h-3.395v7.748H44.698z"/>
			<path fill="#FFFFFF" d="M59.175,91.66c0.803,0,1.559,0.103,2.267,0.307s1.325,0.511,1.851,0.919
				c0.525,0.408,0.941,0.923,1.248,1.543s0.46,1.346,0.46,2.178s-0.153,1.558-0.46,2.178c-0.307,0.621-0.723,1.135-1.248,1.543
				c-0.526,0.409-1.143,0.704-1.851,0.887s-1.464,0.273-2.267,0.273c-0.803,0-1.559-0.091-2.267-0.273s-1.325-0.478-1.851-0.887
				c-0.525-0.408-0.942-0.922-1.249-1.543c-0.307-0.62-0.46-1.346-0.46-2.178s0.153-1.558,0.46-2.178s0.723-1.135,1.249-1.543
				c0.526-0.408,1.143-0.715,1.851-0.919S58.372,91.66,59.175,91.66z M59.175,93.279c-0.468,0-0.924,0.077-1.369,0.23
				s-0.843,0.372-1.193,0.656c-0.351,0.285-0.632,0.632-0.843,1.04c-0.212,0.408-0.318,0.875-0.318,1.4s0.106,0.992,0.318,1.401
				c0.211,0.408,0.493,0.755,0.843,1.039c0.35,0.285,0.748,0.504,1.193,0.657c0.445,0.152,0.901,0.229,1.369,0.229
				c0.467,0,0.923-0.077,1.369-0.229c0.445-0.153,0.843-0.372,1.194-0.657c0.351-0.284,0.631-0.631,0.843-1.039
				c0.211-0.409,0.317-0.876,0.317-1.401s-0.106-0.992-0.317-1.4c-0.212-0.408-0.493-0.755-0.843-1.04
				c-0.351-0.284-0.749-0.503-1.194-0.656S59.642,93.279,59.175,93.279z"/>
			<path fill="#FFFFFF" d="M67.651,101.028c0.263,0,0.395-0.109,0.395-0.329v-8.186c0-0.219-0.131-0.328-0.395-0.328v-0.395h3.22
				v0.395c-0.103,0.015-0.153,0.051-0.153,0.109c0,0.073,0.161,0.271,0.482,0.591l5.256,5.56v-5.932
				c0-0.219-0.146-0.328-0.438-0.328v-0.395h2.672v0.395c-0.263,0-0.394,0.109-0.394,0.328v8.186c0,0.22,0.131,0.329,0.394,0.329
				v0.394h-2.847v-0.394c0.102,0,0.153-0.037,0.153-0.109c0-0.059-0.069-0.161-0.208-0.307c-0.139-0.146-0.296-0.313-0.471-0.504
				l-5.432-5.778v6.369c0,0.22,0.153,0.329,0.46,0.329v0.394h-2.694V101.028z"/>
			<path fill="#FFFFFF" d="M80.814,101.028c0.175-0.029,0.317-0.113,0.427-0.252c0.109-0.139,0.193-0.267,0.251-0.383l3.264-7.114
				c0.087-0.204,0.157-0.368,0.208-0.492c0.051-0.124,0.077-0.244,0.077-0.361c0-0.087-0.019-0.142-0.055-0.164
				c-0.037-0.021-0.077-0.047-0.121-0.076v-0.395h3.307v0.395c-0.044,0.029-0.091,0.051-0.142,0.065
				c-0.052,0.015-0.077,0.073-0.077,0.175c0,0.088,0.033,0.194,0.098,0.317c0.066,0.124,0.135,0.267,0.208,0.427l3.548,7.442
				c0.073,0.131,0.153,0.227,0.241,0.284c0.088,0.059,0.183,0.103,0.285,0.132v0.394h-3.11v-0.328c0.073,0,0.149-0.022,0.23-0.065
				c0.08-0.044,0.121-0.124,0.121-0.241c0-0.088-0.015-0.168-0.044-0.241c-0.029-0.072-0.065-0.167-0.109-0.284l-0.591-1.247h-4.687
				l-0.613,1.182c-0.059,0.117-0.106,0.223-0.143,0.317s-0.055,0.179-0.055,0.252c0,0.116,0.036,0.189,0.109,0.219
				s0.175,0.044,0.307,0.044v0.394h-2.935V101.028z M88.129,97.395l-1.774-3.677L84.8,97.395H88.129z"/>
			<path fill="#FFFFFF" d="M97.503,91.791v0.395c-0.336,0-0.504,0.109-0.504,0.328v7.288h5.914c0.175,0,0.321-0.04,0.438-0.12
				s0.175-0.193,0.175-0.339h0.395v2.298h-0.395c0-0.117-0.059-0.183-0.175-0.197s-0.263-0.021-0.438-0.021h-8.585v-0.394
				c0.379,0,0.569-0.109,0.569-0.329v-8.186c0-0.219-0.19-0.328-0.569-0.328v-0.395H97.503z"/>
			<path fill="#FFFFFF" d="M106.308,101.028c0.336,0,0.504-0.109,0.504-0.329v-8.186c0-0.219-0.168-0.328-0.504-0.328v-0.395h6.089
				c0.861,0,1.599,0.14,2.212,0.416c0.613,0.277,1.113,0.639,1.5,1.084c0.387,0.445,0.671,0.955,0.854,1.532
				c0.183,0.576,0.274,1.171,0.274,1.783c0,0.613-0.087,1.208-0.263,1.784s-0.453,1.087-0.833,1.532
				c-0.38,0.445-0.869,0.806-1.467,1.083c-0.599,0.277-1.329,0.416-2.19,0.416h-6.176V101.028z M111.761,99.802
				c0.453,0,0.883-0.032,1.292-0.098c0.408-0.066,0.767-0.212,1.073-0.438c0.307-0.226,0.551-0.554,0.733-0.984
				s0.274-1.011,0.274-1.74s-0.091-1.303-0.274-1.718c-0.183-0.416-0.427-0.729-0.733-0.941s-0.665-0.343-1.073-0.395
				c-0.409-0.051-0.84-0.076-1.292-0.076h-2.847v6.391H111.761z"/>
			<path fill="#FFFFFF" d="M129.501,89.777h2.409l-5.257,11.645h-2.365L129.501,89.777z"/>
			<path fill="#FFFFFF" d="M140.409,97.811l0.219,0.109c0,0.131,0.029,0.248,0.088,0.351c0.102,0.175,0.303,0.347,0.602,0.514
				c0.299,0.168,0.643,0.317,1.03,0.449c0.387,0.131,0.792,0.237,1.215,0.317c0.423,0.08,0.803,0.12,1.139,0.12
				c0.249,0,0.57-0.019,0.964-0.055c0.395-0.036,0.781-0.113,1.161-0.229c0.38-0.117,0.708-0.277,0.986-0.481
				c0.277-0.205,0.416-0.475,0.416-0.811c0-0.335-0.128-0.583-0.383-0.744c-0.255-0.16-0.591-0.276-1.007-0.35
				s-0.891-0.121-1.424-0.143s-1.077-0.055-1.631-0.099c-0.555-0.044-1.099-0.116-1.632-0.219c-0.533-0.102-1.007-0.273-1.424-0.515
				c-0.416-0.24-0.752-0.568-1.007-0.984c-0.256-0.416-0.383-0.96-0.383-1.631c0-0.452,0.106-0.897,0.317-1.335
				c0.212-0.438,0.537-0.824,0.975-1.16c0.438-0.336,0.993-0.609,1.665-0.821c0.672-0.211,1.46-0.317,2.366-0.317
				c0.773,0,1.445,0.059,2.015,0.176c0.57,0.116,1.062,0.24,1.479,0.372c0.416,0.131,0.767,0.255,1.051,0.372
				c0.285,0.116,0.522,0.175,0.712,0.175c0.204,0,0.351-0.044,0.438-0.131l0.263,0.175l-1.511,2.735l-0.219-0.087
				c-0.029-0.204-0.088-0.372-0.175-0.504c-0.117-0.175-0.311-0.346-0.581-0.514s-0.588-0.317-0.953-0.449
				c-0.365-0.131-0.759-0.237-1.183-0.317c-0.424-0.08-0.847-0.12-1.271-0.12c-0.321,0-0.653,0.025-0.997,0.076
				c-0.343,0.052-0.653,0.128-0.931,0.23c-0.277,0.102-0.507,0.237-0.69,0.404c-0.183,0.168-0.274,0.376-0.274,0.624
				c0,0.351,0.128,0.613,0.383,0.788s0.592,0.307,1.008,0.394c0.416,0.088,0.89,0.146,1.423,0.176s1.077,0.065,1.632,0.109
				c0.555,0.044,1.099,0.12,1.632,0.229c0.533,0.109,1.007,0.284,1.423,0.525c0.417,0.241,0.752,0.565,1.008,0.974
				c0.255,0.409,0.383,0.941,0.383,1.598c0,0.76-0.201,1.379-0.603,1.861c-0.402,0.481-0.902,0.86-1.5,1.138
				c-0.599,0.277-1.245,0.464-1.938,0.559c-0.694,0.095-1.34,0.142-1.938,0.142c-0.832,0-1.53-0.047-2.091-0.142
				c-0.562-0.095-1.03-0.212-1.402-0.351c-0.373-0.139-0.668-0.263-0.887-0.372c-0.219-0.109-0.409-0.164-0.569-0.164
				c-0.103,0-0.197,0.059-0.285,0.175l-0.307-0.175L140.409,97.811z"/>
			<path fill="#FFFFFF" d="M162.529,93.827c0-0.277-0.227-0.416-0.679-0.416h-5.344V95.6h3.373c0.248,0,0.43-0.018,0.547-0.055
				c0.117-0.036,0.175-0.135,0.175-0.295h0.394v2.319h-0.438c0.044-0.16-0.015-0.259-0.175-0.295s-0.387-0.055-0.679-0.055h-3.198
				v2.582h5.607c0.175,0,0.321-0.04,0.438-0.12c0.117-0.08,0.175-0.186,0.175-0.317h0.394v2.299h-0.394
				c0-0.132-0.059-0.205-0.175-0.22c-0.117-0.015-0.263-0.021-0.438-0.021h-8.038v-0.394c0.073,0,0.146-0.025,0.219-0.077
				c0.073-0.051,0.109-0.135,0.109-0.252v-8.186c0-0.116-0.037-0.2-0.109-0.252c-0.073-0.051-0.146-0.076-0.219-0.076v-0.395h7.775
				c0.452,0,0.679-0.131,0.679-0.394h0.395v2.43H162.529z"/>
			<path fill="#FFFFFF" d="M169.297,91.791v0.395c-0.336,0-0.504,0.109-0.504,0.328v7.288h5.914c0.175,0,0.321-0.04,0.438-0.12
				s0.175-0.193,0.175-0.339h0.395v2.298h-0.395c0-0.117-0.059-0.183-0.175-0.197s-0.263-0.021-0.438-0.021h-8.585v-0.394
				c0.379,0,0.569-0.109,0.569-0.329v-8.186c0-0.219-0.19-0.328-0.569-0.328v-0.395H169.297z"/>
			<path fill="#FFFFFF" d="M183.839,93.411h-5.015c-0.19,0-0.329,0.044-0.417,0.131c-0.087,0.088-0.131,0.19-0.131,0.307h-0.394
				v-2.561h0.394c0,0.336,0.183,0.503,0.548,0.503h8.717v0.395l-6.111,7.616h5.235c0.335,0,0.503-0.152,0.503-0.459h0.395v2.298
				h-0.395c0-0.146-0.168-0.219-0.503-0.219h-8.783v-0.394L183.839,93.411z"/>
			<path fill="#FFFFFF" d="M190.585,101.028c0.263,0,0.395-0.109,0.395-0.329v-8.186c0-0.219-0.131-0.328-0.395-0.328v-0.395h3.22
				v0.395c-0.103,0.015-0.153,0.051-0.153,0.109c0,0.073,0.161,0.271,0.482,0.591l5.256,5.56v-5.932
				c0-0.219-0.146-0.328-0.438-0.328v-0.395h2.672v0.395c-0.263,0-0.394,0.109-0.394,0.328v8.186c0,0.22,0.131,0.329,0.394,0.329
				v0.394h-2.847v-0.394c0.102,0,0.153-0.037,0.153-0.109c0-0.059-0.069-0.161-0.208-0.307c-0.139-0.146-0.296-0.313-0.471-0.504
				l-5.432-5.778v6.369c0,0.22,0.153,0.329,0.46,0.329v0.394h-2.694V101.028z"/>
			<path fill="#FFFFFF" d="M205.391,101.028c0.233,0,0.394-0.025,0.482-0.077c0.087-0.051,0.131-0.135,0.131-0.252v-8.186
				c0-0.116-0.044-0.2-0.131-0.252c-0.088-0.051-0.249-0.076-0.482-0.076v-0.395h3.329v0.395c-0.409,0-0.613,0.109-0.613,0.328
				v8.186c0,0.22,0.204,0.329,0.613,0.329v0.394h-3.329V101.028z"/>
			<path fill="#FFFFFF" d="M220.109,94.549c0-0.028-0.004-0.058-0.011-0.087s-0.011-0.066-0.011-0.109
				c0-0.073-0.073-0.172-0.219-0.296s-0.354-0.244-0.624-0.361c-0.271-0.116-0.588-0.215-0.953-0.295
				c-0.365-0.08-0.767-0.121-1.205-0.121c-0.526,0-1.004,0.07-1.435,0.208c-0.431,0.14-0.807,0.347-1.128,0.624
				c-0.321,0.277-0.569,0.62-0.745,1.029c-0.175,0.408-0.263,0.875-0.263,1.4s0.099,0.996,0.296,1.412
				c0.197,0.415,0.456,0.773,0.777,1.072s0.687,0.525,1.095,0.679c0.409,0.152,0.825,0.229,1.249,0.229
				c0.394,0,0.795-0.051,1.205-0.153c0.409-0.102,0.781-0.223,1.117-0.361s0.61-0.288,0.822-0.448
				c0.211-0.16,0.317-0.307,0.317-0.438v-0.176c0-0.087-0.007-0.16-0.022-0.219l0.241-0.219l1.621,2.32l-0.219,0.109
				c-0.175-0.073-0.299-0.109-0.372-0.109c-0.117,0-0.307,0.065-0.57,0.196c-0.263,0.132-0.595,0.281-0.996,0.449
				c-0.402,0.168-0.869,0.311-1.402,0.427c-0.533,0.116-1.128,0.175-1.785,0.175c-0.672,0-1.336-0.095-1.993-0.284
				c-0.657-0.189-1.241-0.492-1.752-0.908c-0.511-0.416-0.927-0.934-1.249-1.555c-0.321-0.619-0.482-1.338-0.482-2.155
				s0.161-1.532,0.482-2.146c0.321-0.612,0.745-1.127,1.271-1.543c0.525-0.416,1.128-0.726,1.807-0.93
				c0.679-0.204,1.376-0.307,2.092-0.307c0.555,0,1.062,0.051,1.522,0.153c0.46,0.102,0.865,0.219,1.216,0.35
				c0.351,0.132,0.642,0.249,0.876,0.351c0.233,0.103,0.401,0.153,0.504,0.153c0.073,0,0.135-0.022,0.186-0.065
				c0.051-0.044,0.106-0.08,0.164-0.109l0.263,0.152l-1.446,2.08L220.109,94.549z"/>
			<path fill="#FFFFFF" d="M226.964,100.699c0,0.22,0.139,0.329,0.416,0.329v0.394h-2.869v-0.394c0.233,0,0.351-0.109,0.351-0.329
				v-8.186c0-0.219-0.117-0.328-0.351-0.328v-0.395h2.869v0.395c-0.277,0-0.416,0.109-0.416,0.328v3.567
				c0.496-0.408,1.007-0.82,1.533-1.236c0.525-0.416,1-0.799,1.423-1.149c0.423-0.35,0.774-0.646,1.052-0.886
				c0.277-0.241,0.416-0.391,0.416-0.449c0-0.072-0.041-0.131-0.121-0.175c-0.081-0.044-0.157-0.065-0.23-0.065v-0.329h3.614v0.395
				c-0.175,0.059-0.438,0.227-0.789,0.503l-3.657,2.955l3.46,4.29c0.175,0.219,0.365,0.441,0.569,0.668
				c0.204,0.226,0.409,0.368,0.613,0.427v0.394h-3.242v-0.394c0.161,0,0.241-0.044,0.241-0.132c0-0.058-0.033-0.139-0.099-0.24
				c-0.066-0.103-0.194-0.263-0.383-0.482l-2.694-3.282l-1.708,1.356V100.699z"/>
		</g>
		<g enable-background="new    ">
			<path fill="#FFFFFF" d="M53.589,119.786c0.189-0.029,0.339-0.124,0.449-0.285c0.11-0.16,0.215-0.343,0.318-0.547l4.052-8.515
				c0.102-0.189,0.193-0.364,0.274-0.525c0.08-0.16,0.12-0.299,0.12-0.415c0-0.146-0.051-0.248-0.153-0.307
				s-0.211-0.103-0.328-0.132v-0.394h3.701v0.394c-0.102,0.029-0.205,0.069-0.307,0.121c-0.102,0.051-0.153,0.156-0.153,0.317
				c0,0.116,0.025,0.233,0.077,0.35c0.051,0.117,0.128,0.271,0.23,0.46l4.556,8.908c0.073,0.16,0.171,0.277,0.296,0.35
				c0.124,0.073,0.266,0.146,0.427,0.22v0.394h-3.854v-0.394c0.058,0,0.131-0.022,0.219-0.066c0.088-0.043,0.131-0.109,0.131-0.196
				c0-0.146-0.058-0.336-0.175-0.569l-0.833-1.62h-5.344l-0.788,1.555c-0.146,0.306-0.219,0.525-0.219,0.656
				c0,0.161,0.139,0.241,0.416,0.241v0.394h-3.11V119.786z M61.846,115.715l-1.84-4.071l-2.059,4.071H61.846z"/>
			<path fill="#FFFFFF" d="M70.169,116.831c0,0.059-0.004,0.12-0.011,0.186c-0.007,0.066-0.011,0.136-0.011,0.208
				c0,0.219,0.139,0.42,0.416,0.603s0.61,0.336,0.997,0.459c0.387,0.124,0.774,0.223,1.161,0.296
				c0.387,0.073,0.689,0.109,0.909,0.109c0.204,0,0.456-0.015,0.756-0.044c0.299-0.029,0.595-0.091,0.887-0.186
				s0.54-0.227,0.745-0.395c0.205-0.167,0.307-0.39,0.307-0.667c0-0.321-0.179-0.555-0.537-0.701
				c-0.358-0.146-0.807-0.259-1.347-0.339c-0.541-0.08-1.125-0.16-1.752-0.241c-0.628-0.08-1.212-0.211-1.752-0.394
				c-0.541-0.183-0.989-0.445-1.347-0.788s-0.537-0.828-0.537-1.455c0-0.934,0.387-1.678,1.161-2.232
				c0.773-0.555,1.861-0.832,3.263-0.832c0.686,0,1.274,0.055,1.763,0.164c0.489,0.109,0.901,0.229,1.237,0.361
				c0.336,0.131,0.609,0.252,0.821,0.361c0.211,0.109,0.369,0.164,0.471,0.164c0.117,0,0.204-0.019,0.263-0.055
				c0.058-0.036,0.131-0.077,0.219-0.121l0.241,0.241l-1.095,2.058l-0.394-0.132c-0.015-0.087-0.03-0.175-0.044-0.263
				c-0.015-0.087-0.081-0.175-0.197-0.263c-0.292-0.248-0.745-0.459-1.358-0.635c-0.613-0.175-1.3-0.263-2.059-0.263
				c-0.292,0-0.569,0.019-0.833,0.055c-0.263,0.037-0.497,0.099-0.701,0.187c-0.205,0.088-0.365,0.201-0.482,0.339
				c-0.117,0.14-0.175,0.311-0.175,0.515c0,0.321,0.179,0.551,0.537,0.689s0.807,0.248,1.347,0.328
				c0.54,0.081,1.124,0.161,1.752,0.241s1.212,0.215,1.752,0.404c0.54,0.19,0.989,0.468,1.347,0.832
				c0.358,0.365,0.537,0.868,0.537,1.511c0,0.642-0.157,1.167-0.471,1.575c-0.314,0.409-0.705,0.73-1.172,0.964
				s-0.982,0.387-1.544,0.459c-0.562,0.073-1.092,0.109-1.588,0.109c-0.497,0-0.989-0.047-1.479-0.142s-0.935-0.205-1.336-0.329
				c-0.402-0.123-0.741-0.24-1.019-0.35s-0.445-0.164-0.503-0.164c-0.103,0-0.19,0.043-0.263,0.131l-0.307-0.219l1.008-2.451
				L70.169,116.831z"/>
			<path fill="#FFFFFF" d="M82.346,116.831c0,0.059-0.004,0.12-0.011,0.186c-0.007,0.066-0.011,0.136-0.011,0.208
				c0,0.219,0.139,0.42,0.416,0.603s0.61,0.336,0.997,0.459c0.387,0.124,0.774,0.223,1.161,0.296
				c0.387,0.073,0.689,0.109,0.909,0.109c0.204,0,0.456-0.015,0.756-0.044c0.299-0.029,0.595-0.091,0.887-0.186
				s0.54-0.227,0.745-0.395c0.205-0.167,0.307-0.39,0.307-0.667c0-0.321-0.179-0.555-0.537-0.701
				c-0.358-0.146-0.807-0.259-1.347-0.339c-0.541-0.08-1.125-0.16-1.752-0.241c-0.628-0.08-1.212-0.211-1.752-0.394
				c-0.541-0.183-0.989-0.445-1.347-0.788s-0.537-0.828-0.537-1.455c0-0.934,0.387-1.678,1.161-2.232
				c0.773-0.555,1.861-0.832,3.263-0.832c0.686,0,1.274,0.055,1.763,0.164c0.489,0.109,0.901,0.229,1.237,0.361
				c0.336,0.131,0.609,0.252,0.821,0.361c0.211,0.109,0.369,0.164,0.471,0.164c0.117,0,0.204-0.019,0.263-0.055
				c0.058-0.036,0.131-0.077,0.219-0.121l0.241,0.241l-1.095,2.058l-0.394-0.132c-0.015-0.087-0.03-0.175-0.044-0.263
				c-0.015-0.087-0.081-0.175-0.197-0.263c-0.292-0.248-0.745-0.459-1.358-0.635c-0.613-0.175-1.3-0.263-2.059-0.263
				c-0.292,0-0.569,0.019-0.833,0.055c-0.263,0.037-0.497,0.099-0.701,0.187c-0.205,0.088-0.365,0.201-0.482,0.339
				c-0.117,0.14-0.175,0.311-0.175,0.515c0,0.321,0.179,0.551,0.537,0.689s0.807,0.248,1.347,0.328
				c0.54,0.081,1.124,0.161,1.752,0.241s1.212,0.215,1.752,0.404c0.54,0.19,0.989,0.468,1.347,0.832
				c0.358,0.365,0.537,0.868,0.537,1.511c0,0.642-0.157,1.167-0.471,1.575c-0.314,0.409-0.705,0.73-1.172,0.964
				s-0.982,0.387-1.544,0.459c-0.562,0.073-1.092,0.109-1.588,0.109c-0.497,0-0.989-0.047-1.479-0.142s-0.935-0.205-1.336-0.329
				c-0.402-0.123-0.741-0.24-1.019-0.35s-0.445-0.164-0.503-0.164c-0.103,0-0.19,0.043-0.263,0.131l-0.307-0.219l1.008-2.451
				L82.346,116.831z"/>
			<path fill="#FFFFFF" d="M98.773,110.418c0.803,0,1.559,0.103,2.267,0.307s1.325,0.511,1.851,0.919
				c0.525,0.408,0.941,0.923,1.248,1.543s0.46,1.346,0.46,2.178s-0.153,1.558-0.46,2.178c-0.307,0.621-0.723,1.135-1.248,1.543
				c-0.526,0.409-1.143,0.704-1.851,0.887s-1.464,0.273-2.267,0.273c-0.803,0-1.559-0.091-2.267-0.273s-1.325-0.478-1.851-0.887
				c-0.525-0.408-0.942-0.922-1.249-1.543c-0.307-0.62-0.46-1.346-0.46-2.178s0.153-1.558,0.46-2.178s0.723-1.135,1.249-1.543
				c0.526-0.408,1.143-0.715,1.851-0.919S97.97,110.418,98.773,110.418z M98.773,112.037c-0.468,0-0.924,0.077-1.369,0.23
				s-0.843,0.372-1.193,0.656c-0.351,0.285-0.632,0.632-0.843,1.04c-0.212,0.408-0.318,0.875-0.318,1.4s0.106,0.992,0.318,1.401
				c0.211,0.408,0.493,0.755,0.843,1.039c0.35,0.285,0.748,0.504,1.193,0.657c0.445,0.152,0.901,0.229,1.369,0.229
				c0.467,0,0.923-0.077,1.369-0.229c0.445-0.153,0.843-0.372,1.194-0.657c0.351-0.284,0.631-0.631,0.843-1.039
				c0.211-0.409,0.317-0.876,0.317-1.401s-0.106-0.992-0.317-1.4c-0.212-0.408-0.493-0.755-0.843-1.04
				c-0.351-0.284-0.749-0.503-1.194-0.656S99.24,112.037,98.773,112.037z"/>
			<path fill="#FFFFFF" d="M114.871,113.307c0-0.028-0.004-0.058-0.011-0.087s-0.011-0.066-0.011-0.109
				c0-0.073-0.073-0.172-0.219-0.296s-0.354-0.244-0.624-0.361c-0.271-0.116-0.588-0.215-0.953-0.295
				c-0.365-0.08-0.767-0.121-1.205-0.121c-0.526,0-1.004,0.07-1.435,0.208c-0.431,0.14-0.807,0.347-1.128,0.624
				c-0.321,0.277-0.569,0.62-0.745,1.029c-0.175,0.408-0.263,0.875-0.263,1.4s0.099,0.996,0.296,1.412
				c0.197,0.415,0.456,0.773,0.777,1.072s0.687,0.525,1.095,0.679c0.409,0.152,0.825,0.229,1.249,0.229
				c0.394,0,0.795-0.051,1.205-0.153c0.409-0.102,0.781-0.223,1.117-0.361s0.61-0.288,0.822-0.448
				c0.211-0.16,0.317-0.307,0.317-0.438v-0.176c0-0.087-0.007-0.16-0.022-0.219l0.241-0.219l1.621,2.32l-0.219,0.109
				c-0.175-0.073-0.299-0.109-0.372-0.109c-0.117,0-0.307,0.065-0.57,0.196c-0.263,0.132-0.595,0.281-0.996,0.449
				c-0.402,0.168-0.869,0.311-1.402,0.427c-0.533,0.116-1.128,0.175-1.785,0.175c-0.672,0-1.336-0.095-1.993-0.284
				c-0.657-0.189-1.241-0.492-1.752-0.908c-0.511-0.416-0.927-0.934-1.249-1.555c-0.321-0.619-0.482-1.338-0.482-2.155
				s0.161-1.532,0.482-2.146c0.321-0.612,0.745-1.127,1.271-1.543c0.525-0.416,1.128-0.726,1.807-0.93
				c0.679-0.204,1.376-0.307,2.092-0.307c0.555,0,1.062,0.051,1.522,0.153c0.46,0.102,0.865,0.219,1.216,0.35
				c0.351,0.132,0.642,0.249,0.876,0.351c0.233,0.103,0.401,0.153,0.504,0.153c0.073,0,0.135-0.022,0.186-0.065
				c0.051-0.044,0.106-0.08,0.164-0.109l0.263,0.152l-1.446,2.08L114.871,113.307z"/>
			<path fill="#FFFFFF" d="M119.623,119.786c0.233,0,0.394-0.025,0.482-0.077c0.087-0.051,0.131-0.135,0.131-0.252v-8.186
				c0-0.116-0.044-0.2-0.131-0.252c-0.088-0.051-0.249-0.076-0.482-0.076v-0.395h3.329v0.395c-0.409,0-0.613,0.109-0.613,0.328
				v8.186c0,0.22,0.204,0.329,0.613,0.329v0.394h-3.329V119.786z"/>
			<path fill="#FFFFFF" d="M125.274,119.786c0.175-0.029,0.317-0.113,0.427-0.252c0.109-0.139,0.193-0.267,0.251-0.383l3.264-7.114
				c0.087-0.204,0.157-0.368,0.208-0.492c0.051-0.124,0.077-0.244,0.077-0.361c0-0.087-0.019-0.142-0.055-0.164
				c-0.037-0.021-0.077-0.047-0.121-0.076v-0.395h3.307v0.395c-0.044,0.029-0.091,0.051-0.142,0.065
				c-0.052,0.015-0.077,0.073-0.077,0.175c0,0.088,0.033,0.194,0.098,0.317c0.066,0.124,0.135,0.267,0.208,0.427l3.548,7.442
				c0.073,0.131,0.153,0.227,0.241,0.284c0.088,0.059,0.183,0.103,0.285,0.132v0.394h-3.11v-0.328c0.073,0,0.149-0.022,0.23-0.065
				c0.08-0.044,0.121-0.124,0.121-0.241c0-0.088-0.015-0.168-0.044-0.241c-0.029-0.072-0.065-0.167-0.109-0.284l-0.591-1.247h-4.687
				l-0.613,1.182c-0.059,0.117-0.106,0.223-0.143,0.317s-0.055,0.179-0.055,0.252c0,0.116,0.036,0.189,0.109,0.219
				s0.175,0.044,0.307,0.044v0.394h-2.935V119.786z M132.589,116.152l-1.774-3.677l-1.555,3.677H132.589z"/>
			<path fill="#FFFFFF" d="M141.218,119.786c0.073,0,0.146-0.025,0.219-0.077c0.073-0.051,0.11-0.135,0.11-0.252v-7.288H138.7
				c-0.117,0-0.227,0.029-0.329,0.088c-0.103,0.058-0.153,0.152-0.153,0.284h-0.395v-2.518h0.395c0,0.205,0.051,0.344,0.153,0.416
				c0.102,0.073,0.211,0.109,0.329,0.109h7.797c0.117,0,0.226-0.036,0.329-0.109c0.102-0.072,0.153-0.211,0.153-0.416h0.394v2.518
				h-0.394c0-0.132-0.051-0.227-0.153-0.284c-0.103-0.059-0.212-0.088-0.329-0.088h-2.847v7.288c0,0.22,0.131,0.329,0.394,0.329
				v0.394h-2.825V119.786z"/>
			<path fill="#FFFFFF" d="M158.324,112.585c0-0.277-0.227-0.416-0.679-0.416h-5.344v2.188h3.373c0.248,0,0.43-0.018,0.547-0.055
				c0.117-0.036,0.175-0.135,0.175-0.295h0.394v2.319h-0.438c0.044-0.16-0.015-0.259-0.175-0.295s-0.387-0.055-0.679-0.055h-3.198
				v2.582h5.607c0.175,0,0.321-0.04,0.438-0.12c0.117-0.08,0.175-0.186,0.175-0.317h0.394v2.299h-0.394
				c0-0.132-0.059-0.205-0.175-0.22c-0.117-0.015-0.263-0.021-0.438-0.021h-8.038v-0.394c0.073,0,0.146-0.025,0.219-0.077
				c0.073-0.051,0.109-0.135,0.109-0.252v-8.186c0-0.116-0.037-0.2-0.109-0.252c-0.073-0.051-0.146-0.076-0.219-0.076v-0.395h7.775
				c0.452,0,0.679-0.131,0.679-0.394h0.395v2.43H158.324z"/>
			<path fill="#FFFFFF" d="M162.682,116.831c0,0.059-0.004,0.12-0.011,0.186c-0.007,0.066-0.011,0.136-0.011,0.208
				c0,0.219,0.139,0.42,0.416,0.603s0.61,0.336,0.997,0.459c0.387,0.124,0.774,0.223,1.161,0.296
				c0.387,0.073,0.689,0.109,0.909,0.109c0.204,0,0.456-0.015,0.756-0.044c0.299-0.029,0.595-0.091,0.887-0.186
				s0.54-0.227,0.745-0.395c0.205-0.167,0.307-0.39,0.307-0.667c0-0.321-0.179-0.555-0.537-0.701
				c-0.358-0.146-0.807-0.259-1.347-0.339c-0.541-0.08-1.125-0.16-1.752-0.241c-0.628-0.08-1.212-0.211-1.752-0.394
				c-0.541-0.183-0.989-0.445-1.347-0.788s-0.537-0.828-0.537-1.455c0-0.934,0.387-1.678,1.161-2.232
				c0.773-0.555,1.861-0.832,3.263-0.832c0.686,0,1.274,0.055,1.763,0.164c0.489,0.109,0.901,0.229,1.237,0.361
				c0.336,0.131,0.609,0.252,0.821,0.361c0.211,0.109,0.369,0.164,0.471,0.164c0.117,0,0.204-0.019,0.263-0.055
				c0.058-0.036,0.131-0.077,0.219-0.121l0.241,0.241l-1.095,2.058l-0.394-0.132c-0.015-0.087-0.03-0.175-0.044-0.263
				c-0.015-0.087-0.081-0.175-0.197-0.263c-0.292-0.248-0.745-0.459-1.358-0.635c-0.613-0.175-1.3-0.263-2.059-0.263
				c-0.292,0-0.569,0.019-0.833,0.055c-0.263,0.037-0.497,0.099-0.701,0.187c-0.205,0.088-0.365,0.201-0.482,0.339
				c-0.117,0.14-0.175,0.311-0.175,0.515c0,0.321,0.179,0.551,0.537,0.689s0.807,0.248,1.347,0.328
				c0.54,0.081,1.124,0.161,1.752,0.241s1.212,0.215,1.752,0.404c0.54,0.19,0.989,0.468,1.347,0.832
				c0.358,0.365,0.537,0.868,0.537,1.511c0,0.642-0.157,1.167-0.471,1.575c-0.314,0.409-0.705,0.73-1.172,0.964
				s-0.982,0.387-1.544,0.459c-0.562,0.073-1.092,0.109-1.588,0.109c-0.497,0-0.989-0.047-1.479-0.142s-0.935-0.205-1.336-0.329
				c-0.402-0.123-0.741-0.24-1.019-0.35s-0.445-0.164-0.503-0.164c-0.103,0-0.19,0.043-0.263,0.131l-0.307-0.219l1.008-2.451
				L162.682,116.831z"/>
		</g>
		<g enable-background="new    ">
			<path fill="#FFFFFF" d="M8.554,66.29c1.249,0,2.069-0.253,2.461-0.762c0.39-0.507,0.586-1.189,0.586-2.05V10.302
				c0-0.858-0.216-1.541-0.645-2.05c-0.431-0.507-1.31-0.761-2.637-0.761V6.086h19.808v1.405c-1.798,0-2.696,0.509-2.696,1.522
				c0,0.469,0.156,0.898,0.469,1.288l19.104,37.481l19.808-37.481c0.077-0.233,0.176-0.468,0.293-0.702s0.176-0.469,0.176-0.703
				c0-0.39-0.216-0.721-0.645-0.995c-0.43-0.273-1.192-0.41-2.285-0.41V6.086h20.98v1.405c-1.33,0-2.209,0.254-2.637,0.761
				c-0.431,0.509-0.645,1.191-0.645,2.05v53.177c0,0.86,0.214,1.543,0.645,2.05c0.428,0.509,1.308,0.762,2.637,0.762v1.405H66.923
				V66.29c1.328,0,2.207-0.253,2.637-0.762c0.429-0.507,0.645-1.189,0.645-2.05V17.213l-0.352-0.234L44.888,66.524L19.923,16.979
				l-0.117,0.234v46.266c-0.079,0.86,0.077,1.543,0.469,2.05c0.39,0.509,1.132,0.762,2.227,0.762v1.405H8.554V66.29z"/>
			<path fill="#FFFFFF" d="M103.725,49.188c-0.234,0.548-0.352,1.055-0.352,1.523c0,1.094,0.683,2.225,2.051,3.396
				c1.366,1.171,3.165,2.245,5.392,3.221c2.227,0.978,4.747,1.777,7.56,2.401c2.813,0.626,5.665,0.938,8.556,0.938
				c7.422,0,12.794-1.093,16.116-3.28c3.32-2.185,4.981-4.996,4.981-8.433c0-1.64-0.41-3.005-1.23-4.1
				c-0.821-1.093-1.954-1.933-3.399-2.519c-1.446-0.586-3.126-0.995-5.04-1.229c-1.916-0.234-3.967-0.352-6.153-0.352
				c-3.595,0-7.404-0.019-11.428-0.059c-4.025-0.038-7.717-0.546-11.076-1.522c-3.36-0.976-6.135-2.596-8.321-4.861
				c-2.188-2.264-3.282-5.622-3.282-10.073c0-2.811,0.78-5.367,2.344-7.672c1.562-2.302,3.692-4.275,6.388-5.915
				s5.879-2.928,9.553-3.865c3.671-0.937,7.657-1.405,11.955-1.405c3.359,0,6.271,0.234,8.732,0.703
				c2.461,0.468,4.589,0.977,6.388,1.522c1.797,0.547,3.282,1.054,4.454,1.522s2.148,0.703,2.93,0.703
				c0.859,0,1.483-0.156,1.875-0.469c0.39-0.312,0.78-0.663,1.172-1.055l1.406,0.586l-6.446,13.47l-1.289-0.819
				c0.077-0.234,0.117-0.741,0.117-1.523c0-0.545-0.469-1.209-1.407-1.991c-0.938-0.779-2.267-1.54-3.985-2.283
				c-1.72-0.741-3.771-1.365-6.153-1.874c-2.384-0.508-4.981-0.762-7.794-0.762c-6.329,0-11.351,1.016-15.061,3.045
				c-3.712,2.032-5.567,4.686-5.567,7.965c0,1.484,0.41,2.676,1.23,3.573c0.82,0.898,1.952,1.601,3.399,2.107
				c1.445,0.509,3.125,0.841,5.04,0.996c1.914,0.157,3.965,0.234,6.153,0.234c3.672,0,7.501,0.059,11.486,0.176
				c3.985,0.117,7.657,0.723,11.017,1.815c3.359,1.095,6.133,2.852,8.322,5.271c2.187,2.422,3.282,5.974,3.282,10.659
				c0,2.5-0.645,4.9-1.934,7.203c-1.29,2.304-3.224,4.354-5.802,6.149c-2.579,1.797-5.764,3.202-9.553,4.217
				c-3.791,1.016-8.186,1.522-13.186,1.522c-4.219,0-7.873-0.333-10.959-0.996c-3.087-0.662-5.725-1.443-7.911-2.342
				c-2.188-0.897-3.985-1.717-5.392-2.46c-1.406-0.741-2.54-1.113-3.399-1.113c-0.782,0-1.603,0.469-2.461,1.406l-1.172-0.703
				l6.329-13.47L103.725,49.188z"/>
			<path fill="#FFFFFF" d="M176.392,60.668c-0.313,0.702-0.665,1.483-1.055,2.342c-0.392,0.86-0.586,1.523-0.586,1.991
				c0,0.86,0.663,1.289,1.993,1.289v1.405h-14.417V66.29c0.469,0,0.879-0.039,1.231-0.117c0.352-0.077,0.683-0.312,0.996-0.703
				c0.312-0.39,0.663-0.955,1.055-1.698c0.39-0.741,0.897-1.736,1.524-2.986l21.214-47.32c0.625-1.327,1.093-2.322,1.406-2.987
				c0.312-0.662,0.469-1.189,0.469-1.581c0-0.937-0.703-1.405-2.109-1.405V6.086h17.112v1.405c-1.25,0-1.875,0.469-1.875,1.405
				c0,0.469,0.194,1.074,0.586,1.815c0.39,0.743,0.897,1.777,1.523,3.104l22.504,46.617c0.703,1.405,1.249,2.5,1.641,3.279
				c0.39,0.781,0.762,1.367,1.114,1.757c0.352,0.392,0.722,0.626,1.113,0.703c0.39,0.078,0.938,0.117,1.641,0.117v1.405H217.18
				V66.29c0.938,0,1.562-0.136,1.875-0.41c0.312-0.272,0.469-0.683,0.469-1.229c0-0.391-0.099-0.8-0.293-1.23
				c-0.196-0.428-0.606-1.347-1.23-2.752l-4.454-9.371h-33.169L176.392,60.668z M209.562,43.567l-13.245-27.643l-12.189,27.643
				H209.562z"/>
		</g>
		<rect x="7.545" y="78.905" fill="#FFFFFF" width="227.3" height="3.643"/>
	</g>
</g>
</svg>
