<?xml version="1.0" encoding="utf-8"?>
<!-- Generator: Adobe Illustrator 16.0.0, SVG Export Plug-In . SVG Version: 6.00 Build 0)  -->
<!DOCTYPE svg PUBLIC "-//W3C//DTD SVG 1.1//EN" "http://www.w3.org/Graphics/SVG/1.1/DTD/svg11.dtd">
<svg version="1.1" xmlns="http://www.w3.org/2000/svg" xmlns:xlink="http://www.w3.org/1999/xlink" x="0px" y="0px" width="128px"
	 height="69px" viewBox="0 0 128 69" enable-background="new 0 0 128 69" xml:space="preserve">
<g id="Layer_2_1_" display="none">
	<rect display="inline" width="128" height="69"/>
</g>
<g id="Layer_1">
	<g id="Layer_2" display="none">
		<rect x="-20.42" y="-20" display="inline" width="171" height="117"/>
	</g>
	<g id="Layer_1_1_">
		<g>
			<g enable-background="new    ">
				<path fill="#FFFFFF" d="M2.059,55.901c0.064,0,0.121-0.018,0.168-0.054c0.048-0.036,0.072-0.09,0.072-0.162v-5.481
					c0-0.072-0.024-0.122-0.072-0.15c-0.048-0.028-0.104-0.042-0.168-0.042v-0.217h2.248v0.217c-0.04,0-0.083,0.012-0.126,0.036
					s-0.066,0.06-0.066,0.108c0,0.04,0.016,0.092,0.048,0.156c0.032,0.064,0.068,0.132,0.108,0.204l1.719,3.125l1.731-3.089
					c0.056-0.104,0.098-0.187,0.126-0.246c0.028-0.061,0.042-0.114,0.042-0.163c0-0.088-0.052-0.132-0.156-0.132v-0.217h2.224v0.217
					c-0.064,0-0.12,0.014-0.168,0.042c-0.048,0.028-0.072,0.078-0.072,0.15v5.481c0,0.072,0.024,0.126,0.072,0.162
					c0.048,0.036,0.104,0.054,0.168,0.054v0.217H8.069v-0.217c0.217,0,0.325-0.071,0.325-0.216v-3.991H8.37l-2.416,4.424H5.917
					l-2.368-4.436H3.525v4.003c0,0.145,0.112,0.216,0.336,0.216v0.217H2.059V55.901z"/>
				<path fill="#FFFFFF" d="M16.171,52.344c0-0.016-0.002-0.032-0.006-0.048c-0.004-0.017-0.006-0.036-0.006-0.061
					c0-0.04-0.041-0.094-0.121-0.162s-0.194-0.134-0.342-0.198c-0.148-0.064-0.323-0.118-0.523-0.162
					c-0.201-0.044-0.421-0.066-0.661-0.066c-0.289,0-0.551,0.038-0.788,0.114s-0.443,0.19-0.619,0.343
					c-0.177,0.152-0.313,0.341-0.409,0.564c-0.096,0.225-0.145,0.481-0.145,0.77c0,0.289,0.054,0.547,0.162,0.775
					c0.108,0.229,0.25,0.425,0.427,0.589s0.377,0.289,0.601,0.373c0.225,0.084,0.453,0.126,0.686,0.126
					c0.216,0,0.437-0.028,0.661-0.084c0.224-0.056,0.428-0.122,0.613-0.198c0.184-0.076,0.334-0.158,0.451-0.247
					c0.116-0.088,0.174-0.168,0.174-0.24v-0.096c0-0.048-0.004-0.088-0.012-0.12l0.132-0.12l0.89,1.273l-0.12,0.061
					c-0.096-0.04-0.165-0.061-0.205-0.061c-0.064,0-0.168,0.036-0.312,0.108c-0.144,0.072-0.327,0.154-0.547,0.246
					c-0.22,0.093-0.477,0.171-0.769,0.234c-0.293,0.064-0.619,0.097-0.98,0.097c-0.369,0-0.733-0.052-1.094-0.156
					s-0.681-0.271-0.961-0.499c-0.281-0.229-0.509-0.513-0.686-0.854s-0.264-0.735-0.264-1.184c0-0.449,0.088-0.842,0.264-1.179
					c0.176-0.336,0.409-0.618,0.697-0.847s0.619-0.398,0.992-0.511s0.755-0.169,1.148-0.169c0.305,0,0.583,0.028,0.835,0.084
					c0.252,0.057,0.475,0.12,0.667,0.192c0.192,0.072,0.353,0.137,0.481,0.192c0.128,0.057,0.22,0.084,0.276,0.084
					c0.04,0,0.074-0.012,0.103-0.036c0.028-0.023,0.058-0.044,0.09-0.06l0.145,0.084l-0.793,1.142L16.171,52.344z"/>
				<path fill="#FFFFFF" d="M22.578,49.795c0.44,0,0.852,0.064,1.232,0.192c0.381,0.129,0.711,0.323,0.992,0.583
					c0.281,0.261,0.501,0.59,0.661,0.986s0.241,0.863,0.241,1.4s-0.081,1.004-0.241,1.4s-0.38,0.726-0.661,0.985
					c-0.28,0.261-0.611,0.455-0.992,0.583c-0.38,0.128-0.792,0.192-1.232,0.192h-3.991v-0.217c0.184,0,0.276-0.071,0.276-0.216
					v-5.457c0-0.145-0.092-0.217-0.276-0.217v-0.217H22.578z M22.097,55.084c0.376,0,0.705-0.031,0.986-0.096
					c0.28-0.064,0.513-0.179,0.697-0.343c0.184-0.164,0.322-0.383,0.415-0.655s0.138-0.616,0.138-1.033s-0.046-0.762-0.138-1.034
					s-0.23-0.49-0.415-0.655c-0.185-0.164-0.417-0.278-0.697-0.342c-0.281-0.064-0.609-0.097-0.986-0.097h-1.863v4.255H22.097z"/>
				<path fill="#FFFFFF" d="M30.042,50.757c0.441,0,0.855,0.057,1.244,0.169s0.728,0.28,1.016,0.504
					c0.289,0.225,0.517,0.508,0.685,0.848c0.168,0.341,0.252,0.739,0.252,1.196s-0.084,0.855-0.252,1.196s-0.396,0.623-0.685,0.848
					c-0.289,0.224-0.627,0.387-1.016,0.486c-0.389,0.101-0.803,0.15-1.244,0.15c-0.44,0-0.855-0.05-1.244-0.15
					c-0.389-0.1-0.728-0.263-1.016-0.486c-0.289-0.225-0.517-0.507-0.685-0.848s-0.252-0.739-0.252-1.196s0.084-0.855,0.252-1.196
					c0.168-0.34,0.396-0.623,0.685-0.848c0.289-0.224,0.627-0.392,1.016-0.504C29.187,50.813,29.602,50.757,30.042,50.757z
					 M30.042,51.646c-0.256,0-0.507,0.042-0.751,0.126c-0.245,0.084-0.463,0.205-0.655,0.361s-0.347,0.347-0.463,0.57
					c-0.116,0.225-0.174,0.481-0.174,0.77s0.058,0.545,0.174,0.77s0.271,0.414,0.463,0.57s0.411,0.277,0.655,0.361
					c0.244,0.084,0.495,0.126,0.751,0.126c0.257,0,0.507-0.042,0.751-0.126s0.463-0.205,0.655-0.361s0.346-0.346,0.463-0.57
					c0.116-0.225,0.174-0.481,0.174-0.77s-0.059-0.545-0.174-0.77c-0.117-0.224-0.271-0.414-0.463-0.57s-0.411-0.277-0.655-0.361
					S30.299,51.646,30.042,51.646z"/>
				<path fill="#FFFFFF" d="M34.694,55.901c0.144,0,0.216-0.06,0.216-0.18v-4.496c0-0.12-0.072-0.18-0.216-0.18v-0.217h1.767v0.217
					c-0.056,0.008-0.084,0.027-0.084,0.06c0,0.04,0.088,0.148,0.264,0.324l2.885,3.054v-3.258c0-0.12-0.08-0.18-0.24-0.18v-0.217
					h1.467v0.217c-0.145,0-0.217,0.06-0.217,0.18v4.496c0,0.12,0.072,0.18,0.217,0.18v0.217h-1.563v-0.217
					c0.056,0,0.084-0.02,0.084-0.06c0-0.032-0.039-0.088-0.114-0.168c-0.077-0.08-0.163-0.173-0.259-0.277l-2.981-3.173v3.498
					c0,0.12,0.084,0.18,0.252,0.18v0.217h-1.479V55.901z"/>
				<path fill="#FFFFFF" d="M41.918,55.901c0.096-0.016,0.174-0.062,0.234-0.138s0.106-0.146,0.138-0.211l1.792-3.906
					c0.048-0.112,0.086-0.202,0.114-0.271c0.028-0.068,0.042-0.134,0.042-0.198c0-0.048-0.01-0.078-0.03-0.09
					c-0.02-0.013-0.042-0.026-0.066-0.042v-0.217h1.815v0.217c-0.024,0.016-0.05,0.027-0.078,0.036
					c-0.028,0.008-0.042,0.04-0.042,0.096c0,0.048,0.018,0.106,0.054,0.174c0.036,0.068,0.074,0.146,0.114,0.235l1.948,4.087
					c0.04,0.071,0.084,0.124,0.132,0.156c0.048,0.031,0.1,0.056,0.156,0.071v0.217h-1.707v-0.181c0.04,0,0.082-0.012,0.126-0.036
					c0.044-0.023,0.066-0.067,0.066-0.132c0-0.048-0.008-0.092-0.024-0.132s-0.036-0.093-0.06-0.156l-0.325-0.686h-2.572
					l-0.336,0.649c-0.032,0.063-0.058,0.122-0.078,0.174c-0.02,0.053-0.03,0.099-0.03,0.139c0,0.064,0.02,0.104,0.06,0.12
					c0.04,0.016,0.096,0.023,0.168,0.023v0.217h-1.611V55.901z M45.933,53.906l-0.974-2.02l-0.854,2.02H45.933z"/>
				<path fill="#FFFFFF" d="M51.078,50.829v0.217c-0.185,0-0.277,0.06-0.277,0.18v4.003h3.246c0.096,0,0.176-0.021,0.241-0.066
					c0.064-0.044,0.096-0.105,0.096-0.186H54.6v1.262h-0.216c0-0.064-0.032-0.101-0.096-0.108c-0.064-0.008-0.145-0.012-0.241-0.012
					h-4.712v-0.217c0.208,0,0.312-0.06,0.312-0.18v-4.496c0-0.12-0.104-0.18-0.312-0.18v-0.217H51.078z"/>
				<path fill="#FFFFFF" d="M55.91,55.901c0.185,0,0.277-0.06,0.277-0.18v-4.496c0-0.12-0.092-0.18-0.277-0.18v-0.217h3.342
					c0.473,0,0.877,0.076,1.214,0.229c0.336,0.152,0.611,0.351,0.823,0.595c0.212,0.245,0.369,0.525,0.469,0.842
					s0.15,0.643,0.15,0.979s-0.048,0.663-0.145,0.979s-0.249,0.598-0.457,0.842c-0.208,0.244-0.477,0.442-0.806,0.595
					s-0.729,0.229-1.202,0.229h-3.39V55.901z M58.903,55.229c0.249,0,0.485-0.018,0.709-0.054c0.224-0.036,0.42-0.116,0.589-0.24
					c0.168-0.125,0.302-0.305,0.403-0.541c0.1-0.236,0.15-0.555,0.15-0.956c0-0.4-0.05-0.715-0.15-0.943
					c-0.101-0.229-0.234-0.4-0.403-0.517s-0.365-0.188-0.589-0.217c-0.225-0.028-0.461-0.042-0.709-0.042h-1.562v3.51H58.903z"/>
				<path fill="#FFFFFF" d="M68.64,49.724h1.322l-2.885,6.395h-1.299L68.64,49.724z"/>
				<path fill="#FFFFFF" d="M74.626,54.135l0.12,0.061c0,0.071,0.016,0.136,0.048,0.192c0.056,0.096,0.166,0.19,0.33,0.282
					c0.165,0.092,0.353,0.174,0.565,0.246c0.212,0.072,0.435,0.131,0.667,0.175s0.44,0.065,0.625,0.065
					c0.137,0,0.312-0.01,0.529-0.029c0.216-0.021,0.429-0.062,0.637-0.127c0.208-0.063,0.389-0.152,0.541-0.265
					c0.152-0.111,0.229-0.26,0.229-0.444s-0.07-0.32-0.21-0.408c-0.141-0.089-0.325-0.152-0.554-0.192s-0.488-0.066-0.781-0.078
					c-0.292-0.013-0.591-0.03-0.896-0.055c-0.305-0.023-0.603-0.063-0.896-0.12c-0.292-0.056-0.553-0.15-0.781-0.282
					c-0.229-0.133-0.413-0.312-0.553-0.541c-0.141-0.229-0.211-0.527-0.211-0.896c0-0.248,0.059-0.493,0.175-0.733
					s0.295-0.452,0.535-0.637s0.545-0.335,0.913-0.451c0.369-0.116,0.802-0.174,1.299-0.174c0.424,0,0.793,0.031,1.105,0.096
					s0.583,0.132,0.812,0.204s0.421,0.141,0.577,0.205c0.156,0.063,0.286,0.096,0.391,0.096c0.112,0,0.192-0.024,0.24-0.072
					l0.145,0.097l-0.83,1.502l-0.12-0.048c-0.016-0.112-0.048-0.204-0.096-0.276c-0.064-0.097-0.171-0.19-0.318-0.282
					c-0.148-0.093-0.323-0.175-0.523-0.247c-0.2-0.071-0.417-0.13-0.649-0.174s-0.465-0.066-0.697-0.066
					c-0.176,0-0.358,0.015-0.547,0.042c-0.188,0.028-0.358,0.07-0.511,0.127c-0.152,0.056-0.278,0.13-0.378,0.222
					c-0.101,0.093-0.15,0.207-0.15,0.343c0,0.192,0.069,0.337,0.21,0.433c0.141,0.097,0.324,0.168,0.553,0.217
					c0.229,0.048,0.489,0.08,0.781,0.096c0.293,0.017,0.591,0.036,0.896,0.061c0.305,0.023,0.604,0.065,0.896,0.126
					c0.293,0.061,0.554,0.156,0.782,0.288c0.228,0.133,0.412,0.312,0.553,0.535c0.14,0.225,0.21,0.517,0.21,0.878
					c0,0.416-0.11,0.757-0.33,1.021c-0.221,0.265-0.495,0.473-0.823,0.625c-0.329,0.152-0.684,0.255-1.064,0.307
					s-0.735,0.078-1.063,0.078c-0.457,0-0.84-0.026-1.148-0.078s-0.564-0.116-0.769-0.192c-0.205-0.076-0.367-0.145-0.487-0.204
					c-0.12-0.061-0.225-0.091-0.312-0.091c-0.057,0-0.108,0.032-0.156,0.097l-0.168-0.097L74.626,54.135z"/>
				<path fill="#FFFFFF" d="M86.767,51.947c0-0.152-0.125-0.229-0.373-0.229h-2.933v1.202h1.851c0.137,0,0.236-0.01,0.301-0.03
					c0.064-0.02,0.096-0.074,0.096-0.162h0.217v1.274h-0.24c0.023-0.089-0.008-0.143-0.097-0.163
					c-0.088-0.02-0.212-0.029-0.372-0.029h-1.755v1.418h3.077c0.096,0,0.176-0.021,0.24-0.066c0.064-0.044,0.096-0.102,0.096-0.174
					h0.217v1.262h-0.217c0-0.071-0.031-0.112-0.096-0.12s-0.145-0.012-0.24-0.012h-4.412v-0.217c0.04,0,0.08-0.014,0.12-0.042
					c0.04-0.027,0.061-0.073,0.061-0.138v-4.496c0-0.063-0.021-0.109-0.061-0.138s-0.08-0.042-0.12-0.042v-0.217h4.268
					c0.248,0,0.373-0.072,0.373-0.217h0.216v1.335H86.767z"/>
				<path fill="#FFFFFF" d="M90.48,50.829v0.217c-0.185,0-0.276,0.06-0.276,0.18v4.003h3.246c0.096,0,0.176-0.021,0.24-0.066
					c0.063-0.044,0.096-0.105,0.096-0.186h0.217v1.262h-0.217c0-0.064-0.032-0.101-0.096-0.108c-0.064-0.008-0.145-0.012-0.24-0.012
					h-4.713v-0.217c0.209,0,0.313-0.06,0.313-0.18v-4.496c0-0.12-0.104-0.18-0.313-0.18v-0.217H90.48z"/>
				<path fill="#FFFFFF" d="M98.463,51.719H95.71c-0.104,0-0.181,0.024-0.229,0.072s-0.072,0.104-0.072,0.168h-0.216v-1.406h0.216
					c0,0.185,0.101,0.276,0.301,0.276h4.784v0.217l-3.354,4.183h2.873c0.184,0,0.276-0.084,0.276-0.252h0.216v1.262h-0.216
					c0-0.08-0.093-0.12-0.276-0.12h-4.82v-0.217L98.463,51.719z"/>
				<path fill="#FFFFFF" d="M102.165,55.901c0.145,0,0.217-0.06,0.217-0.18v-4.496c0-0.12-0.072-0.18-0.217-0.18v-0.217h1.767v0.217
					c-0.056,0.008-0.084,0.027-0.084,0.06c0,0.04,0.088,0.148,0.265,0.324l2.885,3.054v-3.258c0-0.12-0.08-0.18-0.24-0.18v-0.217
					h1.467v0.217c-0.145,0-0.217,0.06-0.217,0.18v4.496c0,0.12,0.072,0.18,0.217,0.18v0.217h-1.562v-0.217
					c0.056,0,0.084-0.02,0.084-0.06c0-0.032-0.038-0.088-0.114-0.168s-0.162-0.173-0.259-0.277l-2.98-3.173v3.498
					c0,0.12,0.084,0.18,0.252,0.18v0.217h-1.479V55.901z"/>
				<path fill="#FFFFFF" d="M110.291,55.901c0.128,0,0.216-0.014,0.265-0.042c0.048-0.027,0.071-0.073,0.071-0.138v-4.496
					c0-0.063-0.023-0.109-0.071-0.138c-0.049-0.028-0.137-0.042-0.265-0.042v-0.217h1.827v0.217c-0.225,0-0.337,0.06-0.337,0.18
					v4.496c0,0.12,0.112,0.18,0.337,0.18v0.217h-1.827V55.901z"/>
				<path fill="#FFFFFF" d="M118.368,52.344c0-0.016-0.003-0.032-0.007-0.048c-0.004-0.017-0.006-0.036-0.006-0.061
					c0-0.04-0.04-0.094-0.12-0.162s-0.194-0.134-0.343-0.198s-0.322-0.118-0.522-0.162s-0.421-0.066-0.661-0.066
					c-0.288,0-0.551,0.038-0.787,0.114s-0.443,0.19-0.619,0.343c-0.177,0.152-0.312,0.341-0.409,0.564
					c-0.096,0.225-0.144,0.481-0.144,0.77c0,0.289,0.054,0.547,0.162,0.775s0.25,0.425,0.427,0.589
					c0.176,0.164,0.376,0.289,0.601,0.373s0.453,0.126,0.686,0.126c0.216,0,0.437-0.028,0.661-0.084
					c0.224-0.056,0.429-0.122,0.613-0.198c0.184-0.076,0.334-0.158,0.45-0.247c0.116-0.088,0.175-0.168,0.175-0.24v-0.096
					c0-0.048-0.005-0.088-0.013-0.12l0.133-0.12l0.89,1.273l-0.121,0.061c-0.096-0.04-0.164-0.061-0.204-0.061
					c-0.064,0-0.168,0.036-0.312,0.108s-0.326,0.154-0.547,0.246c-0.221,0.093-0.477,0.171-0.77,0.234
					c-0.292,0.064-0.619,0.097-0.979,0.097c-0.368,0-0.733-0.052-1.094-0.156s-0.682-0.271-0.962-0.499s-0.509-0.513-0.685-0.854
					c-0.177-0.341-0.265-0.735-0.265-1.184c0-0.449,0.088-0.842,0.265-1.179c0.176-0.336,0.408-0.618,0.697-0.847
					c0.288-0.229,0.619-0.398,0.991-0.511c0.373-0.112,0.755-0.169,1.148-0.169c0.304,0,0.583,0.028,0.835,0.084
					c0.253,0.057,0.475,0.12,0.667,0.192s0.353,0.137,0.481,0.192c0.128,0.057,0.22,0.084,0.276,0.084
					c0.04,0,0.073-0.012,0.102-0.036c0.028-0.023,0.059-0.044,0.091-0.06l0.144,0.084l-0.793,1.142L118.368,52.344z"/>
				<path fill="#FFFFFF" d="M122.13,55.722c0,0.12,0.076,0.18,0.229,0.18v0.217h-1.574v-0.217c0.128,0,0.192-0.06,0.192-0.18v-4.496
					c0-0.12-0.064-0.18-0.192-0.18v-0.217h1.574v0.217c-0.152,0-0.229,0.06-0.229,0.18v1.96c0.272-0.225,0.554-0.451,0.842-0.68
					c0.289-0.229,0.549-0.438,0.781-0.631s0.425-0.354,0.577-0.487c0.152-0.132,0.229-0.214,0.229-0.246
					c0-0.04-0.022-0.072-0.066-0.096c-0.044-0.024-0.086-0.036-0.126-0.036v-0.181h1.983v0.217c-0.097,0.031-0.24,0.124-0.433,0.276
					l-2.008,1.622l1.899,2.356c0.097,0.12,0.2,0.242,0.312,0.366c0.112,0.125,0.225,0.203,0.337,0.234v0.217h-1.779v-0.217
					c0.088,0,0.132-0.023,0.132-0.071c0-0.032-0.018-0.076-0.054-0.133c-0.036-0.056-0.106-0.145-0.21-0.265l-1.479-1.803
					l-0.938,0.745V55.722z"/>
			</g>
			<g enable-background="new    ">
				<path fill="#FFFFFF" d="M26.977,66.204c0.104-0.016,0.187-0.067,0.247-0.156c0.06-0.088,0.118-0.188,0.174-0.3l2.224-4.677
					c0.056-0.104,0.106-0.2,0.15-0.288c0.044-0.088,0.066-0.164,0.066-0.229c0-0.08-0.028-0.136-0.084-0.168
					c-0.056-0.032-0.116-0.056-0.181-0.072v-0.217h2.032v0.217c-0.056,0.017-0.112,0.038-0.168,0.066s-0.084,0.086-0.084,0.174
					c0,0.064,0.014,0.129,0.042,0.192c0.028,0.064,0.07,0.148,0.126,0.253l2.5,4.892c0.04,0.089,0.094,0.152,0.162,0.192
					c0.068,0.041,0.146,0.08,0.235,0.12v0.217h-2.116v-0.217c0.032,0,0.072-0.012,0.12-0.035c0.048-0.024,0.072-0.061,0.072-0.108
					c0-0.08-0.032-0.185-0.096-0.312l-0.457-0.89h-2.933l-0.433,0.854c-0.08,0.168-0.12,0.288-0.12,0.36
					c0,0.088,0.076,0.132,0.229,0.132v0.217h-1.707V66.204z M31.508,63.969l-1.01-2.236l-1.13,2.236H31.508z"/>
				<path fill="#FFFFFF" d="M36.076,64.582c0,0.032-0.002,0.065-0.006,0.102s-0.006,0.074-0.006,0.114
					c0,0.12,0.076,0.23,0.229,0.331c0.152,0.1,0.334,0.185,0.547,0.252c0.212,0.068,0.425,0.122,0.637,0.162
					c0.212,0.041,0.378,0.061,0.499,0.061c0.112,0,0.25-0.008,0.415-0.024c0.164-0.016,0.326-0.05,0.487-0.102
					c0.16-0.053,0.296-0.124,0.409-0.217c0.112-0.092,0.168-0.214,0.168-0.366c0-0.177-0.098-0.305-0.294-0.385
					s-0.443-0.143-0.739-0.187s-0.617-0.088-0.961-0.132c-0.345-0.044-0.666-0.116-0.962-0.217c-0.296-0.1-0.543-0.244-0.739-0.433
					s-0.294-0.455-0.294-0.8c0-0.513,0.212-0.921,0.637-1.226s1.021-0.457,1.791-0.457c0.376,0,0.699,0.03,0.968,0.091
					c0.268,0.06,0.495,0.126,0.679,0.198c0.184,0.071,0.334,0.138,0.451,0.198c0.116,0.06,0.202,0.09,0.258,0.09
					c0.064,0,0.112-0.01,0.144-0.03c0.032-0.02,0.072-0.042,0.121-0.065l0.132,0.132l-0.601,1.13l-0.217-0.072
					c-0.008-0.048-0.016-0.096-0.024-0.145c-0.008-0.048-0.044-0.096-0.108-0.144c-0.161-0.137-0.409-0.253-0.746-0.349
					c-0.336-0.097-0.713-0.145-1.13-0.145c-0.16,0-0.312,0.01-0.457,0.03c-0.145,0.02-0.272,0.054-0.385,0.102
					c-0.112,0.049-0.2,0.11-0.265,0.187c-0.064,0.076-0.096,0.171-0.096,0.283c0,0.176,0.098,0.302,0.295,0.378
					c0.196,0.076,0.442,0.137,0.739,0.181c0.296,0.044,0.617,0.088,0.961,0.132c0.344,0.044,0.665,0.118,0.961,0.223
					s0.543,0.257,0.739,0.457s0.295,0.477,0.295,0.829s-0.086,0.642-0.259,0.865c-0.172,0.225-0.387,0.401-0.643,0.529
					s-0.539,0.212-0.847,0.252c-0.309,0.04-0.599,0.061-0.872,0.061s-0.543-0.026-0.812-0.078s-0.513-0.112-0.733-0.181
					c-0.22-0.067-0.407-0.132-0.559-0.192c-0.152-0.06-0.245-0.09-0.277-0.09c-0.056,0-0.104,0.024-0.144,0.072l-0.168-0.12
					l0.553-1.347L36.076,64.582z"/>
				<path fill="#FFFFFF" d="M42.76,64.582c0,0.032-0.002,0.065-0.006,0.102s-0.006,0.074-0.006,0.114c0,0.12,0.076,0.23,0.229,0.331
					c0.152,0.1,0.334,0.185,0.547,0.252c0.212,0.068,0.425,0.122,0.637,0.162c0.212,0.041,0.378,0.061,0.499,0.061
					c0.112,0,0.25-0.008,0.415-0.024c0.164-0.016,0.326-0.05,0.487-0.102c0.16-0.053,0.296-0.124,0.409-0.217
					c0.112-0.092,0.168-0.214,0.168-0.366c0-0.177-0.098-0.305-0.294-0.385s-0.443-0.143-0.739-0.187s-0.617-0.088-0.961-0.132
					c-0.345-0.044-0.666-0.116-0.962-0.217c-0.296-0.1-0.543-0.244-0.739-0.433s-0.294-0.455-0.294-0.8
					c0-0.513,0.212-0.921,0.637-1.226s1.021-0.457,1.791-0.457c0.376,0,0.699,0.03,0.968,0.091c0.268,0.06,0.495,0.126,0.679,0.198
					c0.184,0.071,0.334,0.138,0.451,0.198c0.116,0.06,0.202,0.09,0.258,0.09c0.064,0,0.112-0.01,0.144-0.03
					c0.032-0.02,0.072-0.042,0.121-0.065l0.132,0.132l-0.601,1.13L46.51,62.73c-0.008-0.048-0.016-0.096-0.024-0.145
					c-0.008-0.048-0.044-0.096-0.108-0.144c-0.161-0.137-0.409-0.253-0.746-0.349c-0.336-0.097-0.713-0.145-1.13-0.145
					c-0.16,0-0.312,0.01-0.457,0.03c-0.145,0.02-0.272,0.054-0.385,0.102c-0.112,0.049-0.2,0.11-0.265,0.187
					c-0.064,0.076-0.096,0.171-0.096,0.283c0,0.176,0.098,0.302,0.295,0.378c0.196,0.076,0.442,0.137,0.739,0.181
					c0.296,0.044,0.617,0.088,0.961,0.132c0.344,0.044,0.665,0.118,0.961,0.223s0.543,0.257,0.739,0.457s0.295,0.477,0.295,0.829
					s-0.086,0.642-0.259,0.865c-0.172,0.225-0.387,0.401-0.643,0.529s-0.539,0.212-0.847,0.252c-0.309,0.04-0.599,0.061-0.872,0.061
					s-0.543-0.026-0.812-0.078s-0.513-0.112-0.733-0.181c-0.22-0.067-0.407-0.132-0.559-0.192c-0.152-0.06-0.245-0.09-0.277-0.09
					c-0.056,0-0.104,0.024-0.144,0.072l-0.168-0.12l0.553-1.347L42.76,64.582z"/>
				<path fill="#FFFFFF" d="M51.774,61.06c0.441,0,0.855,0.057,1.244,0.169s0.728,0.28,1.016,0.504
					c0.289,0.225,0.517,0.508,0.685,0.848c0.168,0.341,0.252,0.739,0.252,1.196s-0.084,0.855-0.252,1.196s-0.396,0.623-0.685,0.848
					c-0.289,0.224-0.627,0.387-1.016,0.486c-0.389,0.101-0.803,0.15-1.244,0.15c-0.44,0-0.855-0.05-1.244-0.15
					c-0.389-0.1-0.728-0.263-1.016-0.486c-0.289-0.225-0.517-0.507-0.685-0.848s-0.252-0.739-0.252-1.196s0.084-0.855,0.252-1.196
					c0.168-0.34,0.396-0.623,0.685-0.848c0.289-0.224,0.627-0.392,1.016-0.504C50.919,61.116,51.334,61.06,51.774,61.06z
					 M51.774,61.949c-0.256,0-0.507,0.042-0.751,0.126c-0.245,0.084-0.463,0.205-0.655,0.361s-0.347,0.347-0.463,0.57
					c-0.116,0.225-0.174,0.481-0.174,0.77s0.058,0.545,0.174,0.77s0.271,0.414,0.463,0.57s0.411,0.277,0.655,0.361
					c0.244,0.084,0.495,0.126,0.751,0.126c0.257,0,0.507-0.042,0.751-0.126s0.463-0.205,0.655-0.361s0.346-0.346,0.463-0.57
					c0.116-0.225,0.174-0.481,0.174-0.77s-0.059-0.545-0.174-0.77c-0.117-0.224-0.271-0.414-0.463-0.57s-0.411-0.277-0.655-0.361
					S52.031,61.949,51.774,61.949z"/>
				<path fill="#FFFFFF" d="M60.61,62.646c0-0.016-0.002-0.032-0.006-0.048c-0.004-0.017-0.006-0.036-0.006-0.061
					c0-0.04-0.041-0.094-0.121-0.162s-0.194-0.134-0.342-0.198c-0.148-0.064-0.323-0.118-0.523-0.162
					c-0.201-0.044-0.421-0.066-0.661-0.066c-0.289,0-0.551,0.038-0.788,0.114s-0.443,0.19-0.619,0.343
					c-0.177,0.152-0.313,0.341-0.409,0.564c-0.096,0.225-0.145,0.481-0.145,0.77c0,0.289,0.054,0.547,0.162,0.775
					c0.108,0.229,0.25,0.425,0.427,0.589s0.377,0.289,0.601,0.373c0.225,0.084,0.453,0.126,0.686,0.126
					c0.216,0,0.437-0.028,0.661-0.084c0.224-0.056,0.428-0.122,0.613-0.198c0.184-0.076,0.334-0.158,0.451-0.247
					c0.116-0.088,0.174-0.168,0.174-0.24v-0.096c0-0.048-0.004-0.088-0.012-0.12l0.132-0.12l0.89,1.273l-0.12,0.061
					c-0.096-0.04-0.165-0.061-0.205-0.061c-0.064,0-0.168,0.036-0.312,0.108c-0.144,0.072-0.327,0.154-0.547,0.246
					c-0.22,0.093-0.477,0.171-0.769,0.234c-0.293,0.064-0.619,0.097-0.98,0.097c-0.369,0-0.733-0.052-1.094-0.156
					s-0.681-0.271-0.961-0.499c-0.281-0.229-0.509-0.513-0.686-0.854s-0.264-0.735-0.264-1.184c0-0.449,0.088-0.842,0.264-1.179
					c0.176-0.336,0.409-0.618,0.697-0.847s0.619-0.398,0.992-0.511s0.755-0.169,1.148-0.169c0.305,0,0.583,0.028,0.835,0.084
					c0.252,0.057,0.475,0.12,0.667,0.192c0.192,0.072,0.353,0.137,0.481,0.192c0.128,0.057,0.22,0.084,0.276,0.084
					c0.04,0,0.074-0.012,0.103-0.036c0.028-0.023,0.058-0.044,0.09-0.06l0.145,0.084l-0.793,1.142L60.61,62.646z"/>
				<path fill="#FFFFFF" d="M63.218,66.204c0.128,0,0.216-0.014,0.264-0.042c0.048-0.027,0.072-0.073,0.072-0.138v-4.496
					c0-0.063-0.024-0.109-0.072-0.138c-0.048-0.028-0.136-0.042-0.264-0.042v-0.217h1.827v0.217c-0.225,0-0.336,0.06-0.336,0.18
					v4.496c0,0.12,0.111,0.18,0.336,0.18v0.217h-1.827V66.204z"/>
				<path fill="#FFFFFF" d="M66.319,66.204c0.096-0.016,0.174-0.062,0.234-0.138c0.06-0.076,0.105-0.146,0.138-0.211l1.791-3.906
					c0.048-0.112,0.086-0.202,0.114-0.271s0.042-0.134,0.042-0.198c0-0.048-0.01-0.078-0.029-0.09
					c-0.021-0.013-0.043-0.026-0.066-0.042v-0.217h1.814v0.217c-0.023,0.016-0.05,0.027-0.078,0.036
					c-0.027,0.008-0.042,0.04-0.042,0.096c0,0.048,0.019,0.106,0.055,0.174c0.036,0.068,0.074,0.146,0.114,0.235l1.947,4.087
					c0.04,0.071,0.084,0.124,0.132,0.156c0.048,0.031,0.101,0.056,0.156,0.071v0.217h-1.707V66.24c0.04,0,0.082-0.012,0.127-0.036
					c0.044-0.023,0.065-0.067,0.065-0.132c0-0.048-0.008-0.092-0.023-0.132c-0.017-0.04-0.036-0.093-0.061-0.156l-0.324-0.686
					h-2.572l-0.337,0.649c-0.032,0.063-0.059,0.122-0.078,0.174c-0.021,0.053-0.03,0.099-0.03,0.139c0,0.064,0.021,0.104,0.061,0.12
					c0.04,0.016,0.096,0.023,0.168,0.023v0.217h-1.61V66.204z M70.334,64.209l-0.974-2.02l-0.854,2.02H70.334z"/>
				<path fill="#FFFFFF" d="M75.07,66.204c0.04,0,0.08-0.014,0.12-0.042c0.04-0.027,0.06-0.073,0.06-0.138v-4.003h-1.562
					c-0.064,0-0.124,0.016-0.18,0.048c-0.057,0.032-0.085,0.084-0.085,0.156h-0.216v-1.382h0.216c0,0.112,0.028,0.188,0.085,0.228
					c0.056,0.041,0.115,0.061,0.18,0.061h4.279c0.064,0,0.124-0.02,0.181-0.061c0.056-0.039,0.084-0.115,0.084-0.228h0.217v1.382
					h-0.217c0-0.072-0.028-0.124-0.084-0.156c-0.057-0.032-0.116-0.048-0.181-0.048h-1.562v4.003c0,0.12,0.072,0.18,0.217,0.18
					v0.217H75.07V66.204z"/>
				<path fill="#FFFFFF" d="M84.459,62.25c0-0.152-0.125-0.229-0.373-0.229h-2.933v1.202h1.851c0.137,0,0.236-0.01,0.301-0.03
					c0.064-0.02,0.096-0.074,0.096-0.162h0.217v1.274h-0.24c0.023-0.089-0.008-0.143-0.097-0.163
					c-0.088-0.02-0.212-0.029-0.372-0.029h-1.755v1.418h3.077c0.096,0,0.176-0.021,0.24-0.066c0.064-0.044,0.096-0.102,0.096-0.174
					h0.217v1.262h-0.217c0-0.071-0.031-0.112-0.096-0.12s-0.145-0.012-0.24-0.012h-4.412v-0.217c0.04,0,0.08-0.014,0.12-0.042
					c0.04-0.027,0.061-0.073,0.061-0.138v-4.496c0-0.063-0.021-0.109-0.061-0.138s-0.08-0.042-0.12-0.042v-0.217h4.268
					c0.248,0,0.373-0.072,0.373-0.217h0.216v1.335H84.459z"/>
				<path fill="#FFFFFF" d="M86.85,64.582c0,0.032-0.002,0.065-0.006,0.102s-0.006,0.074-0.006,0.114c0,0.12,0.076,0.23,0.229,0.331
					c0.152,0.1,0.334,0.185,0.547,0.252c0.212,0.068,0.425,0.122,0.637,0.162c0.213,0.041,0.379,0.061,0.499,0.061
					c0.112,0,0.25-0.008,0.415-0.024c0.164-0.016,0.326-0.05,0.486-0.102c0.16-0.053,0.297-0.124,0.409-0.217
					c0.112-0.092,0.168-0.214,0.168-0.366c0-0.177-0.098-0.305-0.294-0.385c-0.197-0.08-0.443-0.143-0.739-0.187
					c-0.297-0.044-0.617-0.088-0.962-0.132s-0.665-0.116-0.962-0.217c-0.297-0.1-0.543-0.244-0.739-0.433s-0.294-0.455-0.294-0.8
					c0-0.513,0.212-0.921,0.637-1.226s1.021-0.457,1.791-0.457c0.377,0,0.699,0.03,0.968,0.091c0.269,0.06,0.494,0.126,0.679,0.198
					c0.185,0.071,0.335,0.138,0.451,0.198c0.116,0.06,0.202,0.09,0.259,0.09c0.063,0,0.111-0.01,0.144-0.03
					c0.032-0.02,0.072-0.042,0.12-0.065l0.133,0.132l-0.602,1.13l-0.216-0.072c-0.009-0.048-0.017-0.096-0.024-0.145
					c-0.008-0.048-0.044-0.096-0.108-0.144c-0.16-0.137-0.408-0.253-0.745-0.349c-0.337-0.097-0.713-0.145-1.13-0.145
					c-0.16,0-0.312,0.01-0.457,0.03c-0.144,0.02-0.272,0.054-0.385,0.102c-0.112,0.049-0.2,0.11-0.264,0.187
					c-0.064,0.076-0.097,0.171-0.097,0.283c0,0.176,0.099,0.302,0.295,0.378s0.442,0.137,0.739,0.181
					c0.296,0.044,0.617,0.088,0.961,0.132c0.345,0.044,0.666,0.118,0.962,0.223c0.297,0.104,0.543,0.257,0.739,0.457
					s0.295,0.477,0.295,0.829s-0.086,0.642-0.259,0.865c-0.172,0.225-0.387,0.401-0.643,0.529c-0.257,0.128-0.539,0.212-0.848,0.252
					s-0.6,0.061-0.872,0.061s-0.543-0.026-0.811-0.078c-0.269-0.052-0.514-0.112-0.733-0.181c-0.221-0.067-0.407-0.132-0.56-0.192
					c-0.152-0.06-0.244-0.09-0.276-0.09c-0.056,0-0.104,0.024-0.144,0.072l-0.169-0.12l0.553-1.347L86.85,64.582z"/>
			</g>
			<g enable-background="new    ">
				<path fill="#FFFFFF" d="M2.26,36.825c0.686,0,1.136-0.139,1.351-0.418c0.214-0.279,0.322-0.654,0.322-1.127V6.077
					c0-0.472-0.119-0.847-0.354-1.126C3.342,4.672,2.86,4.533,2.131,4.533V3.761h10.872v0.772c-0.987,0-1.48,0.279-1.48,0.836
					c0,0.257,0.085,0.494,0.257,0.708l10.485,20.584L33.137,6.077c0.042-0.129,0.096-0.257,0.161-0.386
					c0.064-0.128,0.097-0.257,0.097-0.386c0-0.214-0.119-0.396-0.354-0.547c-0.236-0.15-0.654-0.225-1.254-0.225V3.761H43.3v0.772
					c-0.73,0-1.212,0.14-1.447,0.418c-0.236,0.279-0.354,0.654-0.354,1.126V35.28c0,0.473,0.118,0.848,0.354,1.127
					c0.235,0.279,0.717,0.418,1.447,0.418v0.771h-9.006v-0.771c0.729,0,1.211-0.139,1.447-0.418
					c0.235-0.279,0.354-0.654,0.354-1.127V9.872l-0.193-0.128l-13.702,27.21L8.5,9.743L8.435,9.872V35.28
					c-0.043,0.473,0.042,0.848,0.257,1.127c0.214,0.279,0.621,0.418,1.222,0.418v0.771H2.26V36.825z"/>
				<path fill="#FFFFFF" d="M54.493,27.433c-0.129,0.3-0.193,0.579-0.193,0.836c0,0.601,0.375,1.223,1.126,1.866
					c0.75,0.643,1.737,1.233,2.959,1.769c1.222,0.537,2.605,0.976,4.149,1.319c1.544,0.344,3.109,0.515,4.696,0.515
					c4.073,0,7.021-0.6,8.845-1.801c1.822-1.2,2.733-2.744,2.733-4.632c0-0.9-0.225-1.65-0.675-2.251
					c-0.45-0.6-1.072-1.061-1.865-1.383c-0.795-0.322-1.716-0.547-2.767-0.675c-1.051-0.129-2.177-0.193-3.377-0.193
					c-1.973,0-4.063-0.01-6.272-0.032c-2.209-0.021-4.235-0.3-6.079-0.836c-1.844-0.536-3.367-1.425-4.567-2.669
					c-1.201-1.244-1.801-3.088-1.801-5.532c0-1.544,0.428-2.948,1.287-4.213c0.857-1.265,2.026-2.348,3.506-3.249
					c1.479-0.901,3.226-1.608,5.243-2.123c2.015-0.515,4.203-0.771,6.561-0.771c1.844,0,3.441,0.128,4.793,0.386
					c1.351,0.257,2.519,0.537,3.505,0.836c0.986,0.3,1.802,0.579,2.445,0.836c0.643,0.257,1.179,0.386,1.607,0.386
					c0.472,0,0.814-0.085,1.029-0.257c0.215-0.171,0.429-0.364,0.644-0.579l0.771,0.322l-3.537,7.397l-0.708-0.45
					c0.042-0.129,0.064-0.407,0.064-0.836c0-0.299-0.258-0.664-0.772-1.093c-0.515-0.428-1.244-0.847-2.187-1.254
					c-0.944-0.407-2.069-0.75-3.377-1.029C70.971,7.76,69.545,7.62,68.001,7.62c-3.474,0-6.229,0.558-8.266,1.673
					c-2.038,1.116-3.056,2.573-3.056,4.374c0,0.815,0.225,1.47,0.675,1.962c0.45,0.494,1.071,0.879,1.866,1.158
					c0.793,0.279,1.714,0.461,2.766,0.546c1.051,0.086,2.176,0.129,3.377,0.129c2.016,0,4.117,0.032,6.305,0.097
					c2.187,0.064,4.202,0.397,6.047,0.997c1.843,0.601,3.366,1.566,4.566,2.895c1.2,1.33,1.802,3.281,1.802,5.854
					c0,1.373-0.354,2.692-1.062,3.956c-0.708,1.266-1.769,2.392-3.185,3.377c-1.415,0.986-3.163,1.759-5.242,2.315
					c-2.081,0.559-4.493,0.837-7.237,0.837c-2.315,0-4.32-0.184-6.014-0.547c-1.695-0.364-3.142-0.793-4.342-1.287
					c-1.201-0.492-2.188-0.942-2.959-1.351c-0.771-0.407-1.394-0.611-1.865-0.611c-0.429,0-0.879,0.257-1.351,0.772l-0.643-0.386
					l3.474-7.397L54.493,27.433z"/>
				<path fill="#FFFFFF" d="M94.375,33.737c-0.172,0.386-0.365,0.815-0.579,1.286c-0.215,0.473-0.322,0.836-0.322,1.094
					c0,0.472,0.364,0.708,1.094,0.708v0.771h-7.912v-0.771c0.258,0,0.482-0.021,0.676-0.064c0.192-0.043,0.375-0.172,0.547-0.387
					c0.171-0.214,0.363-0.524,0.579-0.933c0.214-0.407,0.492-0.954,0.836-1.64l11.643-25.988c0.343-0.729,0.601-1.276,0.772-1.641
					c0.171-0.364,0.257-0.653,0.257-0.868c0-0.515-0.386-0.772-1.157-0.772V3.761h9.392v0.772c-0.687,0-1.029,0.257-1.029,0.772
					c0,0.257,0.106,0.59,0.321,0.997c0.214,0.408,0.493,0.976,0.837,1.705l12.351,25.602c0.386,0.772,0.686,1.373,0.9,1.801
					c0.214,0.43,0.418,0.751,0.611,0.965c0.192,0.215,0.396,0.344,0.61,0.387s0.515,0.064,0.901,0.064v0.771h-8.941v-0.771
					c0.515,0,0.857-0.075,1.029-0.226c0.171-0.149,0.257-0.375,0.257-0.676c0-0.214-0.055-0.439-0.161-0.676
					c-0.107-0.234-0.332-0.739-0.675-1.511l-2.444-5.146H96.562L94.375,33.737z M112.579,24.345l-7.269-15.181l-6.69,15.181H112.579
					z"/>
			</g>
			<rect x="1.706" y="43.752" fill="#FFFFFF" width="124.75" height="2"/>
		</g>
	</g>
</g>
</svg>
