<?xml version="1.0" encoding="utf-8"?>
<!-- Generator: Adobe Illustrator 16.0.0, SVG Export Plug-In . SVG Version: 6.00 Build 0)  -->
<!DOCTYPE svg PUBLIC "-//W3C//DTD SVG 1.1//EN" "http://www.w3.org/Graphics/SVG/1.1/DTD/svg11.dtd">
<svg version="1.1" xmlns="http://www.w3.org/2000/svg" xmlns:xlink="http://www.w3.org/1999/xlink" x="0px" y="0px" width="240px"
	 height="150px" viewBox="0 0.25 240 150" enable-background="new 0 0.25 240 150" xml:space="preserve">
<g id="Layer_2" display="none">
	<rect x="-6.5" display="inline" stroke="#000000" stroke-miterlimit="10" width="266" height="218.5"/>
</g>
<g id="Layer_1">
	<g id="Layer_1_1_">
		<g>
			<g enable-background="new    ">
				<path fill="#FFFFFF" d="M8.188,101.027c0.117,0,0.219-0.032,0.307-0.098c0.088-0.066,0.131-0.164,0.131-0.297v-9.98
					c0-0.131-0.043-0.223-0.131-0.272c-0.087-0.051-0.19-0.077-0.307-0.077v-0.394h4.096v0.394c-0.073,0-0.15,0.022-0.23,0.066
					c-0.081,0.043-0.121,0.109-0.121,0.195c0,0.074,0.029,0.168,0.088,0.285c0.058,0.116,0.124,0.24,0.197,0.373l3.132,5.689
					l3.154-5.625c0.102-0.189,0.179-0.34,0.23-0.449c0.051-0.109,0.077-0.208,0.077-0.295c0-0.16-0.095-0.241-0.285-0.241v-0.394
					h4.052v0.394c-0.117,0-0.219,0.026-0.307,0.077s-0.131,0.143-0.131,0.273v9.979c0,0.132,0.044,0.229,0.131,0.296
					c0.087,0.065,0.189,0.1,0.307,0.1v0.394H19.14v-0.394c0.394,0,0.591-0.133,0.591-0.396v-7.267h-0.044l-4.402,8.055H15.22
					l-4.315-8.076H10.86v7.288c0,0.263,0.204,0.396,0.613,0.396v0.394H8.188V101.027z"/>
				<path fill="#FFFFFF" d="M33.901,94.549c0-0.027-0.004-0.058-0.011-0.087c-0.007-0.028-0.011-0.065-0.011-0.108
					c0-0.073-0.073-0.172-0.219-0.297c-0.146-0.123-0.354-0.244-0.624-0.361c-0.271-0.115-0.588-0.215-0.953-0.295
					c-0.365-0.08-0.767-0.12-1.205-0.12c-0.526,0-1.004,0.069-1.435,0.208c-0.431,0.14-0.807,0.347-1.128,0.623
					c-0.321,0.277-0.569,0.621-0.745,1.029c-0.175,0.408-0.263,0.875-0.263,1.4s0.099,0.996,0.296,1.412
					c0.197,0.415,0.456,0.773,0.777,1.072c0.321,0.299,0.687,0.524,1.095,0.679c0.409,0.151,0.825,0.229,1.249,0.229
					c0.394,0,0.795-0.052,1.205-0.153c0.409-0.103,0.781-0.224,1.117-0.361s0.61-0.288,0.822-0.448
					c0.211-0.16,0.317-0.307,0.317-0.438v-0.176c0-0.088-0.007-0.16-0.022-0.219l0.241-0.22l1.621,2.32l-0.219,0.108
					c-0.175-0.072-0.299-0.108-0.372-0.108c-0.117,0-0.307,0.065-0.57,0.196c-0.263,0.131-0.595,0.28-0.996,0.448
					c-0.402,0.168-0.869,0.312-1.402,0.427c-0.533,0.116-1.128,0.176-1.785,0.176c-0.672,0-1.336-0.096-1.993-0.284
					s-1.241-0.492-1.752-0.908c-0.511-0.416-0.927-0.935-1.249-1.555c-0.321-0.619-0.482-1.339-0.482-2.155s0.161-1.532,0.482-2.146
					c0.321-0.611,0.745-1.127,1.271-1.543c0.525-0.416,1.128-0.726,1.807-0.93c0.679-0.204,1.376-0.307,2.092-0.307
					c0.555,0,1.062,0.051,1.522,0.152c0.46,0.103,0.865,0.22,1.216,0.351c0.351,0.132,0.642,0.249,0.876,0.351
					c0.233,0.104,0.401,0.153,0.504,0.153c0.073,0,0.135-0.022,0.186-0.065c0.051-0.043,0.106-0.08,0.164-0.108l0.263,0.151
					l-1.446,2.08L33.901,94.549z"/>
				<path fill="#FFFFFF" d="M45.574,89.909c0.803,0,1.551,0.116,2.245,0.35c0.693,0.234,1.295,0.589,1.807,1.062
					c0.511,0.476,0.913,1.074,1.205,1.796c0.292,0.723,0.438,1.573,0.438,2.55c0,0.979-0.146,1.828-0.438,2.551
					s-0.693,1.32-1.205,1.794c-0.511,0.476-1.113,0.829-1.807,1.062c-0.694,0.233-1.442,0.351-2.245,0.351h-7.271v-0.395
					c0.336,0,0.504-0.131,0.504-0.395v-9.937c0-0.263-0.168-0.396-0.504-0.396v-0.394H45.574z M44.698,99.539
					c0.686,0,1.285-0.059,1.796-0.175c0.511-0.116,0.934-0.324,1.271-0.624c0.335-0.299,0.587-0.696,0.755-1.192
					s0.252-1.123,0.252-1.883c0-0.758-0.084-1.386-0.252-1.882s-0.42-0.895-0.755-1.193c-0.336-0.299-0.76-0.507-1.271-0.623
					c-0.511-0.117-1.11-0.176-1.796-0.176h-3.395v7.748H44.698z"/>
				<path fill="#FFFFFF" d="M59.175,91.66c0.803,0,1.559,0.104,2.267,0.307c0.708,0.204,1.325,0.512,1.851,0.919
					c0.525,0.408,0.941,0.923,1.248,1.544c0.307,0.619,0.46,1.346,0.46,2.178s-0.153,1.558-0.46,2.178
					c-0.307,0.621-0.723,1.135-1.248,1.543c-0.526,0.408-1.143,0.704-1.851,0.887c-0.708,0.184-1.464,0.273-2.267,0.273
					c-0.803,0-1.559-0.092-2.267-0.273s-1.325-0.479-1.851-0.887c-0.525-0.408-0.942-0.922-1.249-1.543
					c-0.307-0.62-0.46-1.346-0.46-2.178s0.153-1.559,0.46-2.178c0.307-0.621,0.723-1.136,1.249-1.544
					c0.526-0.407,1.143-0.715,1.851-0.919C57.616,91.764,58.372,91.66,59.175,91.66z M59.175,93.279
					c-0.468,0-0.924,0.076-1.369,0.229c-0.445,0.153-0.843,0.372-1.193,0.656c-0.351,0.285-0.632,0.632-0.843,1.04
					c-0.212,0.408-0.318,0.875-0.318,1.4c0,0.524,0.106,0.992,0.318,1.4c0.211,0.408,0.493,0.755,0.843,1.039
					c0.35,0.285,0.748,0.504,1.193,0.657c0.445,0.151,0.901,0.229,1.369,0.229c0.467,0,0.923-0.078,1.369-0.229
					c0.445-0.153,0.843-0.372,1.194-0.657c0.351-0.284,0.631-0.631,0.843-1.039c0.211-0.408,0.317-0.876,0.317-1.4
					c0-0.525-0.106-0.992-0.317-1.4c-0.212-0.408-0.493-0.755-0.843-1.04c-0.351-0.284-0.749-0.503-1.194-0.656
					S59.642,93.279,59.175,93.279z"/>
				<path fill="#FFFFFF" d="M67.651,101.027c0.263,0,0.395-0.108,0.395-0.328v-8.186c0-0.22-0.131-0.328-0.395-0.328V91.79h3.22
					v0.396c-0.103,0.015-0.153,0.051-0.153,0.108c0,0.073,0.161,0.271,0.482,0.591l5.256,5.561v-5.932
					c0-0.22-0.146-0.328-0.438-0.328V91.79h2.672v0.396c-0.263,0-0.394,0.108-0.394,0.328v8.186c0,0.22,0.131,0.328,0.394,0.328
					v0.395h-2.847v-0.395c0.102,0,0.153-0.036,0.153-0.108c0-0.06-0.069-0.161-0.208-0.308c-0.139-0.146-0.296-0.312-0.471-0.504
					l-5.432-5.777v6.369c0,0.22,0.153,0.328,0.46,0.328v0.395h-2.694V101.027z"/>
				<path fill="#FFFFFF" d="M80.814,101.027c0.175-0.028,0.317-0.112,0.427-0.252c0.109-0.139,0.193-0.267,0.251-0.383l3.264-7.113
					c0.087-0.204,0.157-0.368,0.208-0.492c0.051-0.124,0.077-0.244,0.077-0.361c0-0.087-0.019-0.142-0.055-0.164
					c-0.037-0.021-0.077-0.047-0.121-0.076v-0.395h3.307v0.395c-0.044,0.029-0.091,0.051-0.142,0.065
					c-0.052,0.015-0.077,0.073-0.077,0.175c0,0.088,0.033,0.194,0.098,0.317c0.066,0.124,0.135,0.267,0.208,0.427l3.548,7.441
					c0.073,0.132,0.153,0.228,0.241,0.285c0.088,0.059,0.183,0.103,0.285,0.131v0.395h-3.11v-0.328c0.073,0,0.149-0.021,0.23-0.064
					c0.08-0.045,0.121-0.124,0.121-0.241c0-0.088-0.015-0.168-0.044-0.241c-0.029-0.072-0.065-0.167-0.109-0.283l-0.591-1.248
					h-4.687l-0.613,1.183c-0.059,0.116-0.106,0.223-0.143,0.317c-0.037,0.094-0.055,0.178-0.055,0.252
					c0,0.115,0.036,0.188,0.109,0.219c0.073,0.029,0.175,0.044,0.307,0.044v0.394h-2.935L80.814,101.027L80.814,101.027z
					 M88.129,97.395l-1.774-3.677L84.8,97.395H88.129z"/>
				<path fill="#FFFFFF" d="M97.503,91.791v0.395c-0.336,0-0.504,0.109-0.504,0.328v7.288h5.914c0.175,0,0.321-0.04,0.438-0.12
					c0.117-0.08,0.175-0.192,0.175-0.339h0.395v2.298h-0.395c0-0.117-0.059-0.183-0.175-0.197c-0.116-0.014-0.263-0.021-0.438-0.021
					h-8.585v-0.394c0.379,0,0.569-0.109,0.569-0.329v-8.187c0-0.219-0.19-0.328-0.569-0.328v-0.395H97.503z"/>
				<path fill="#FFFFFF" d="M106.308,101.027c0.336,0,0.504-0.108,0.504-0.328v-8.186c0-0.22-0.168-0.328-0.504-0.328V91.79h6.089
					c0.861,0,1.599,0.14,2.212,0.416c0.613,0.276,1.113,0.639,1.5,1.084c0.387,0.444,0.671,0.955,0.854,1.532
					c0.183,0.576,0.274,1.171,0.274,1.783s-0.087,1.207-0.263,1.783c-0.176,0.576-0.453,1.088-0.833,1.532
					c-0.38,0.445-0.869,0.806-1.467,1.083c-0.599,0.277-1.329,0.416-2.19,0.416h-6.176V101.027L106.308,101.027z M111.761,99.802
					c0.453,0,0.883-0.032,1.292-0.098c0.408-0.065,0.767-0.212,1.073-0.438c0.307-0.226,0.551-0.554,0.733-0.983
					c0.182-0.431,0.274-1.011,0.274-1.74s-0.091-1.303-0.274-1.718c-0.183-0.416-0.427-0.729-0.733-0.941s-0.665-0.343-1.073-0.395
					c-0.409-0.051-0.84-0.076-1.292-0.076h-2.847v6.391L111.761,99.802L111.761,99.802z"/>
				<path fill="#FFFFFF" d="M129.501,89.777h2.409l-5.258,11.645h-2.364L129.501,89.777z"/>
				<path fill="#FFFFFF" d="M140.409,97.811l0.219,0.109c0,0.131,0.029,0.248,0.088,0.352c0.103,0.174,0.304,0.347,0.603,0.514
					c0.299,0.168,0.643,0.316,1.029,0.449c0.387,0.131,0.793,0.236,1.215,0.316c0.424,0.08,0.804,0.12,1.14,0.12
					c0.249,0,0.569-0.019,0.964-0.055s0.781-0.113,1.161-0.229c0.38-0.117,0.708-0.277,0.985-0.48
					c0.277-0.205,0.416-0.475,0.416-0.812c0-0.335-0.127-0.583-0.383-0.743c-0.255-0.16-0.591-0.276-1.007-0.351
					s-0.892-0.121-1.424-0.144c-0.533-0.021-1.077-0.055-1.631-0.099c-0.556-0.044-1.099-0.116-1.632-0.219
					s-1.008-0.272-1.424-0.515c-0.416-0.24-0.752-0.568-1.008-0.984s-0.383-0.96-0.383-1.631c0-0.452,0.105-0.896,0.316-1.335
					c0.213-0.438,0.537-0.824,0.976-1.16s0.993-0.608,1.665-0.821c0.672-0.211,1.46-0.316,2.366-0.316
					c0.772,0,1.444,0.059,2.015,0.176c0.57,0.115,1.062,0.24,1.479,0.372c0.416,0.131,0.768,0.255,1.052,0.372
					c0.285,0.115,0.522,0.175,0.712,0.175c0.204,0,0.352-0.044,0.438-0.131l0.264,0.175l-1.512,2.734l-0.219-0.086
					c-0.029-0.205-0.088-0.373-0.175-0.504c-0.116-0.176-0.312-0.347-0.581-0.515s-0.588-0.317-0.953-0.448
					c-0.365-0.132-0.759-0.238-1.183-0.317c-0.424-0.08-0.847-0.12-1.271-0.12c-0.322,0-0.653,0.025-0.998,0.076
					c-0.342,0.052-0.652,0.128-0.931,0.229c-0.276,0.103-0.507,0.237-0.69,0.404c-0.183,0.168-0.273,0.376-0.273,0.624
					c0,0.352,0.128,0.613,0.383,0.788c0.256,0.175,0.592,0.307,1.008,0.394c0.416,0.088,0.891,0.146,1.424,0.176
					c0.533,0.03,1.076,0.065,1.631,0.109c0.556,0.044,1.1,0.12,1.633,0.229c0.533,0.109,1.007,0.285,1.423,0.525
					c0.417,0.241,0.752,0.565,1.008,0.975c0.255,0.408,0.384,0.94,0.384,1.598c0,0.76-0.201,1.379-0.604,1.861
					c-0.402,0.48-0.902,0.859-1.5,1.138c-0.6,0.276-1.245,0.464-1.938,0.56c-0.694,0.094-1.34,0.141-1.938,0.141
					c-0.832,0-1.53-0.047-2.091-0.141c-0.562-0.096-1.03-0.213-1.402-0.352c-0.373-0.139-0.668-0.264-0.887-0.372
					s-0.409-0.164-0.569-0.164c-0.103,0-0.196,0.06-0.284,0.175l-0.308-0.175L140.409,97.811z"/>
				<path fill="#FFFFFF" d="M162.529,93.827c0-0.277-0.228-0.416-0.68-0.416h-5.344V95.6h3.373c0.248,0,0.43-0.018,0.547-0.055
					c0.117-0.036,0.176-0.135,0.176-0.295h0.394v2.318h-0.438c0.045-0.159-0.015-0.258-0.175-0.295
					c-0.159-0.035-0.387-0.055-0.679-0.055h-3.198v2.582h5.606c0.176,0,0.322-0.04,0.438-0.119c0.117-0.08,0.175-0.187,0.175-0.317
					h0.395v2.299h-0.395c0-0.132-0.059-0.205-0.175-0.22c-0.116-0.016-0.263-0.021-0.438-0.021h-8.037v-0.395
					c0.072,0,0.146-0.024,0.219-0.076c0.073-0.051,0.109-0.135,0.109-0.252v-8.186c0-0.117-0.037-0.201-0.109-0.253
					c-0.072-0.051-0.146-0.075-0.219-0.075V91.79h7.775c0.451,0,0.678-0.131,0.678-0.394h0.396v2.43L162.529,93.827L162.529,93.827z
					"/>
				<path fill="#FFFFFF" d="M169.297,91.791v0.395c-0.336,0-0.504,0.109-0.504,0.328v7.288h5.914c0.175,0,0.32-0.04,0.438-0.12
					s0.176-0.192,0.176-0.339h0.395v2.298h-0.395c0-0.117-0.059-0.183-0.176-0.197c-0.115-0.014-0.263-0.021-0.438-0.021h-8.585
					v-0.394c0.379,0,0.569-0.109,0.569-0.329v-8.187c0-0.219-0.19-0.328-0.569-0.328v-0.395H169.297z"/>
				<path fill="#FFFFFF" d="M183.839,93.411h-5.015c-0.19,0-0.329,0.044-0.417,0.131c-0.087,0.088-0.132,0.19-0.132,0.308h-0.394
					v-2.562h0.394c0,0.336,0.184,0.503,0.549,0.503h8.717v0.395l-6.111,7.616h5.235c0.335,0,0.503-0.151,0.503-0.459h0.395v2.298
					h-0.395c0-0.146-0.168-0.219-0.503-0.219h-8.783v-0.395L183.839,93.411z"/>
				<path fill="#FFFFFF" d="M190.585,101.027c0.263,0,0.396-0.108,0.396-0.328v-8.186c0-0.22-0.131-0.328-0.396-0.328V91.79h3.22
					v0.396c-0.103,0.015-0.152,0.051-0.152,0.108c0,0.073,0.16,0.271,0.481,0.591l5.257,5.561v-5.932
					c0-0.22-0.146-0.328-0.438-0.328V91.79h2.672v0.396c-0.263,0-0.394,0.108-0.394,0.328v8.186c0,0.22,0.131,0.328,0.394,0.328
					v0.395h-2.847v-0.395c0.102,0,0.152-0.036,0.152-0.108c0-0.06-0.068-0.161-0.207-0.308c-0.14-0.146-0.297-0.312-0.472-0.504
					l-5.433-5.777v6.369c0,0.22,0.154,0.328,0.461,0.328v0.395h-2.694V101.027z"/>
				<path fill="#FFFFFF" d="M205.391,101.027c0.233,0,0.395-0.024,0.482-0.076c0.087-0.051,0.131-0.135,0.131-0.252v-8.186
					c0-0.117-0.044-0.201-0.131-0.253c-0.088-0.051-0.249-0.075-0.482-0.075V91.79h3.33v0.396c-0.41,0-0.613,0.108-0.613,0.328
					v8.186c0,0.22,0.203,0.328,0.613,0.328v0.395h-3.33V101.027z"/>
				<path fill="#FFFFFF" d="M220.109,94.549c0-0.027-0.004-0.058-0.012-0.087c-0.007-0.028-0.011-0.065-0.011-0.108
					c0-0.073-0.073-0.172-0.219-0.297c-0.146-0.123-0.354-0.244-0.624-0.361c-0.271-0.115-0.588-0.215-0.953-0.295
					s-0.768-0.12-1.205-0.12c-0.525,0-1.004,0.069-1.436,0.208c-0.43,0.14-0.807,0.347-1.127,0.623
					c-0.321,0.277-0.569,0.621-0.746,1.029c-0.174,0.408-0.262,0.875-0.262,1.4s0.098,0.996,0.295,1.412
					c0.197,0.415,0.457,0.773,0.777,1.072c0.321,0.299,0.688,0.524,1.096,0.679c0.408,0.151,0.824,0.229,1.248,0.229
					c0.395,0,0.795-0.052,1.205-0.153c0.409-0.103,0.781-0.224,1.117-0.361s0.609-0.288,0.822-0.448
					c0.211-0.16,0.316-0.307,0.316-0.438v-0.176c0-0.088-0.006-0.16-0.021-0.219l0.24-0.22l1.621,2.32l-0.219,0.108
					c-0.175-0.072-0.299-0.108-0.371-0.108c-0.117,0-0.308,0.065-0.57,0.196c-0.264,0.131-0.596,0.28-0.996,0.448
					c-0.402,0.168-0.869,0.312-1.402,0.427c-0.533,0.116-1.128,0.176-1.785,0.176c-0.672,0-1.336-0.096-1.992-0.284
					c-0.657-0.188-1.242-0.492-1.752-0.908c-0.512-0.416-0.928-0.935-1.25-1.555c-0.32-0.619-0.481-1.339-0.481-2.155
					s0.161-1.532,0.481-2.146c0.321-0.611,0.746-1.127,1.271-1.543s1.128-0.726,1.807-0.93c0.68-0.204,1.377-0.307,2.092-0.307
					c0.556,0,1.062,0.051,1.522,0.152c0.46,0.103,0.865,0.22,1.216,0.351c0.352,0.132,0.643,0.249,0.877,0.351
					c0.232,0.104,0.4,0.153,0.504,0.153c0.072,0,0.135-0.022,0.186-0.065s0.105-0.08,0.164-0.108l0.263,0.151l-1.446,2.08
					L220.109,94.549z"/>
				<path fill="#FFFFFF" d="M226.964,100.699c0,0.22,0.14,0.328,0.416,0.328v0.395h-2.868v-0.395c0.232,0,0.35-0.108,0.35-0.328
					v-8.186c0-0.22-0.116-0.328-0.35-0.328V91.79h2.868v0.396c-0.276,0-0.416,0.108-0.416,0.328v3.566
					c0.496-0.408,1.007-0.82,1.533-1.236c0.524-0.416,1-0.799,1.423-1.148c0.423-0.351,0.773-0.646,1.053-0.887
					c0.276-0.24,0.416-0.391,0.416-0.449c0-0.071-0.041-0.131-0.121-0.174c-0.082-0.045-0.158-0.065-0.23-0.065v-0.329h3.613v0.395
					c-0.174,0.06-0.438,0.228-0.789,0.504l-3.656,2.955l3.46,4.289c0.175,0.219,0.365,0.441,0.569,0.668
					c0.203,0.227,0.408,0.368,0.613,0.428v0.394h-3.242v-0.394c0.16,0,0.24-0.045,0.24-0.133c0-0.058-0.033-0.139-0.099-0.239
					c-0.065-0.103-0.194-0.263-0.383-0.482l-2.694-3.282l-1.708,1.356v2.45H226.964z"/>
			</g>
			<g enable-background="new    ">
				<path fill="#FFFFFF" d="M53.589,119.786c0.189-0.029,0.339-0.124,0.449-0.285c0.11-0.16,0.215-0.343,0.318-0.547l4.052-8.515
					c0.102-0.189,0.193-0.364,0.274-0.525c0.08-0.16,0.12-0.299,0.12-0.415c0-0.146-0.051-0.248-0.153-0.308
					c-0.102-0.059-0.211-0.103-0.328-0.131v-0.395h3.701v0.395c-0.102,0.028-0.205,0.068-0.307,0.121
					c-0.102,0.051-0.153,0.155-0.153,0.316c0,0.116,0.025,0.232,0.077,0.35c0.051,0.117,0.128,0.271,0.23,0.461l4.556,8.907
					c0.073,0.16,0.171,0.277,0.296,0.351c0.124,0.072,0.266,0.146,0.427,0.22v0.394h-3.854v-0.394c0.058,0,0.131-0.022,0.219-0.066
					c0.088-0.043,0.131-0.108,0.131-0.196c0-0.146-0.058-0.336-0.175-0.568l-0.833-1.62h-5.344l-0.788,1.556
					c-0.146,0.305-0.219,0.524-0.219,0.655c0,0.161,0.139,0.241,0.416,0.241v0.395h-3.11v-0.396H53.589z M61.846,115.715l-1.84-4.07
					l-2.059,4.07H61.846z"/>
				<path fill="#FFFFFF" d="M70.169,116.831c0,0.06-0.004,0.12-0.011,0.187c-0.007,0.065-0.011,0.135-0.011,0.207
					c0,0.219,0.139,0.42,0.416,0.604c0.277,0.183,0.61,0.336,0.997,0.459c0.387,0.124,0.774,0.223,1.161,0.296
					c0.387,0.073,0.689,0.108,0.909,0.108c0.204,0,0.456-0.015,0.756-0.043c0.299-0.029,0.595-0.092,0.887-0.187
					s0.54-0.228,0.745-0.396c0.205-0.166,0.307-0.39,0.307-0.666c0-0.321-0.179-0.556-0.537-0.701
					c-0.358-0.146-0.807-0.26-1.347-0.34c-0.541-0.079-1.125-0.159-1.752-0.24c-0.628-0.08-1.212-0.211-1.752-0.395
					c-0.541-0.183-0.989-0.444-1.347-0.787c-0.358-0.344-0.537-0.828-0.537-1.455c0-0.935,0.387-1.678,1.161-2.232
					c0.773-0.555,1.861-0.832,3.263-0.832c0.686,0,1.274,0.055,1.763,0.164c0.489,0.109,0.901,0.229,1.237,0.361
					c0.336,0.131,0.609,0.252,0.821,0.361c0.211,0.108,0.369,0.163,0.471,0.163c0.117,0,0.204-0.019,0.263-0.055
					c0.058-0.036,0.131-0.077,0.219-0.121l0.241,0.241l-1.095,2.058l-0.394-0.132c-0.015-0.087-0.03-0.175-0.044-0.264
					c-0.015-0.086-0.081-0.174-0.197-0.262c-0.292-0.248-0.745-0.459-1.358-0.636c-0.613-0.175-1.3-0.263-2.059-0.263
					c-0.292,0-0.569,0.02-0.833,0.055c-0.263,0.037-0.497,0.1-0.701,0.188c-0.205,0.088-0.365,0.201-0.482,0.339
					c-0.117,0.14-0.175,0.311-0.175,0.515c0,0.321,0.179,0.551,0.537,0.689c0.358,0.138,0.807,0.248,1.347,0.328
					s1.124,0.16,1.752,0.24s1.212,0.215,1.752,0.404s0.989,0.468,1.347,0.832c0.358,0.365,0.537,0.868,0.537,1.511
					c0,0.642-0.157,1.167-0.471,1.575c-0.314,0.409-0.705,0.73-1.172,0.964c-0.467,0.234-0.982,0.388-1.544,0.459
					c-0.562,0.073-1.092,0.109-1.588,0.109c-0.497,0-0.989-0.048-1.479-0.142c-0.49-0.096-0.935-0.205-1.336-0.33
					c-0.402-0.123-0.741-0.239-1.019-0.35c-0.278-0.109-0.445-0.164-0.503-0.164c-0.103,0-0.19,0.043-0.263,0.131l-0.307-0.219
					l1.008-2.451L70.169,116.831z"/>
				<path fill="#FFFFFF" d="M82.346,116.831c0,0.06-0.004,0.12-0.011,0.187c-0.007,0.065-0.011,0.135-0.011,0.207
					c0,0.219,0.139,0.42,0.416,0.604c0.277,0.183,0.61,0.336,0.997,0.459c0.387,0.124,0.774,0.223,1.161,0.296
					c0.387,0.073,0.689,0.108,0.909,0.108c0.204,0,0.456-0.015,0.756-0.043c0.299-0.029,0.595-0.092,0.887-0.187
					s0.54-0.228,0.745-0.396c0.205-0.166,0.307-0.39,0.307-0.666c0-0.321-0.179-0.556-0.537-0.701
					c-0.358-0.146-0.807-0.26-1.347-0.34c-0.541-0.079-1.125-0.159-1.752-0.24c-0.628-0.08-1.212-0.211-1.752-0.395
					c-0.541-0.183-0.989-0.444-1.347-0.787c-0.358-0.344-0.537-0.828-0.537-1.455c0-0.935,0.387-1.678,1.161-2.232
					c0.773-0.555,1.861-0.832,3.263-0.832c0.686,0,1.274,0.055,1.763,0.164s0.901,0.229,1.237,0.361
					c0.336,0.131,0.609,0.252,0.821,0.361c0.211,0.108,0.369,0.163,0.471,0.163c0.117,0,0.204-0.019,0.263-0.055
					c0.058-0.036,0.131-0.077,0.219-0.121l0.241,0.241l-1.095,2.058l-0.394-0.132c-0.015-0.087-0.03-0.175-0.044-0.264
					c-0.015-0.086-0.081-0.174-0.197-0.262c-0.292-0.248-0.745-0.459-1.358-0.636c-0.613-0.175-1.3-0.263-2.059-0.263
					c-0.292,0-0.569,0.02-0.833,0.055c-0.263,0.037-0.497,0.1-0.701,0.188c-0.205,0.088-0.365,0.201-0.482,0.339
					c-0.117,0.14-0.175,0.311-0.175,0.515c0,0.321,0.179,0.551,0.537,0.689c0.358,0.138,0.807,0.248,1.347,0.328
					s1.124,0.16,1.752,0.24c0.628,0.08,1.212,0.215,1.752,0.404c0.54,0.189,0.989,0.468,1.347,0.832
					c0.358,0.365,0.537,0.868,0.537,1.511c0,0.642-0.157,1.167-0.471,1.575c-0.314,0.409-0.705,0.73-1.172,0.964
					c-0.467,0.234-0.982,0.388-1.544,0.459c-0.562,0.073-1.092,0.109-1.588,0.109c-0.497,0-0.989-0.048-1.479-0.142
					c-0.49-0.096-0.935-0.205-1.336-0.33c-0.402-0.123-0.741-0.239-1.019-0.35c-0.278-0.109-0.445-0.164-0.503-0.164
					c-0.103,0-0.19,0.043-0.263,0.131l-0.307-0.219l1.008-2.451L82.346,116.831z"/>
				<path fill="#FFFFFF" d="M98.773,110.418c0.803,0,1.559,0.104,2.267,0.307c0.708,0.205,1.325,0.512,1.851,0.92
					c0.525,0.407,0.941,0.922,1.248,1.543c0.307,0.619,0.46,1.346,0.46,2.178s-0.153,1.558-0.46,2.178
					c-0.307,0.621-0.723,1.135-1.248,1.543c-0.526,0.409-1.143,0.704-1.851,0.887c-0.708,0.184-1.464,0.273-2.267,0.273
					c-0.803,0-1.559-0.091-2.267-0.273c-0.708-0.182-1.325-0.478-1.851-0.887c-0.525-0.408-0.942-0.922-1.249-1.543
					c-0.307-0.62-0.46-1.346-0.46-2.178s0.153-1.559,0.46-2.178c0.307-0.621,0.723-1.136,1.249-1.543
					c0.526-0.408,1.143-0.715,1.851-0.92C97.214,110.521,97.97,110.418,98.773,110.418z M98.773,112.037
					c-0.468,0-0.924,0.077-1.369,0.23c-0.445,0.152-0.843,0.371-1.193,0.655c-0.351,0.285-0.632,0.632-0.843,1.04
					c-0.212,0.408-0.318,0.875-0.318,1.4s0.106,0.992,0.318,1.4c0.211,0.408,0.493,0.756,0.843,1.039
					c0.35,0.285,0.748,0.504,1.193,0.657c0.445,0.151,0.901,0.229,1.369,0.229c0.467,0,0.923-0.078,1.369-0.229
					c0.445-0.153,0.843-0.372,1.194-0.657c0.351-0.283,0.631-0.631,0.843-1.039c0.211-0.408,0.317-0.875,0.317-1.4
					s-0.106-0.992-0.317-1.4c-0.212-0.408-0.493-0.755-0.843-1.04c-0.351-0.284-0.749-0.503-1.194-0.655
					C99.697,112.114,99.24,112.037,98.773,112.037z"/>
				<path fill="#FFFFFF" d="M114.871,113.307c0-0.027-0.004-0.058-0.011-0.087c-0.007-0.028-0.011-0.065-0.011-0.108
					c0-0.073-0.073-0.172-0.219-0.297c-0.146-0.123-0.354-0.244-0.624-0.36c-0.271-0.116-0.588-0.215-0.953-0.295
					c-0.365-0.08-0.767-0.121-1.205-0.121c-0.526,0-1.004,0.069-1.435,0.208c-0.431,0.14-0.807,0.347-1.128,0.624
					c-0.321,0.276-0.569,0.62-0.745,1.028c-0.175,0.408-0.263,0.875-0.263,1.4s0.099,0.996,0.296,1.412
					c0.197,0.415,0.456,0.773,0.777,1.072c0.321,0.299,0.687,0.525,1.095,0.679c0.409,0.152,0.825,0.229,1.249,0.229
					c0.394,0,0.795-0.051,1.205-0.153c0.409-0.103,0.781-0.224,1.117-0.361s0.61-0.288,0.822-0.448
					c0.211-0.16,0.317-0.307,0.317-0.438v-0.176c0-0.088-0.007-0.16-0.022-0.219l0.241-0.22l1.621,2.32l-0.219,0.108
					c-0.175-0.072-0.299-0.108-0.372-0.108c-0.117,0-0.307,0.065-0.57,0.196c-0.263,0.132-0.595,0.281-0.996,0.449
					c-0.402,0.168-0.869,0.311-1.402,0.426c-0.533,0.117-1.128,0.176-1.785,0.176c-0.672,0-1.336-0.096-1.993-0.284
					c-0.657-0.188-1.241-0.492-1.752-0.908c-0.511-0.416-0.927-0.934-1.249-1.555c-0.321-0.619-0.482-1.338-0.482-2.155
					c0-0.816,0.161-1.531,0.482-2.146c0.321-0.611,0.745-1.127,1.271-1.543c0.525-0.416,1.128-0.726,1.807-0.93
					c0.679-0.203,1.376-0.307,2.092-0.307c0.555,0,1.062,0.051,1.522,0.152c0.46,0.103,0.865,0.22,1.216,0.351
					c0.351,0.132,0.642,0.249,0.876,0.351c0.233,0.104,0.401,0.153,0.504,0.153c0.073,0,0.135-0.022,0.186-0.065
					c0.051-0.043,0.106-0.08,0.164-0.108l0.263,0.151l-1.446,2.08L114.871,113.307z"/>
				<path fill="#FFFFFF" d="M119.623,119.786c0.233,0,0.394-0.025,0.482-0.077c0.087-0.051,0.131-0.135,0.131-0.252v-8.186
					c0-0.116-0.044-0.201-0.131-0.252c-0.088-0.052-0.249-0.076-0.482-0.076v-0.396h3.329v0.396c-0.409,0-0.613,0.108-0.613,0.328
					v8.186c0,0.22,0.204,0.329,0.613,0.329v0.394h-3.329V119.786z"/>
				<path fill="#FFFFFF" d="M125.273,119.786c0.176-0.029,0.317-0.113,0.428-0.252c0.109-0.14,0.193-0.267,0.251-0.384l3.264-7.113
					c0.087-0.204,0.157-0.368,0.208-0.492s0.077-0.244,0.077-0.361c0-0.086-0.019-0.142-0.056-0.164
					c-0.036-0.021-0.076-0.047-0.12-0.076v-0.395h3.307v0.395c-0.044,0.029-0.091,0.052-0.142,0.065
					c-0.053,0.015-0.077,0.073-0.077,0.175c0,0.088,0.032,0.194,0.099,0.317c0.065,0.124,0.135,0.267,0.207,0.427l3.549,7.442
					c0.072,0.131,0.152,0.228,0.24,0.284c0.088,0.059,0.184,0.103,0.285,0.132v0.394h-3.109v-0.328c0.072,0,0.148-0.021,0.229-0.064
					c0.08-0.044,0.121-0.124,0.121-0.241c0-0.088-0.015-0.168-0.044-0.241c-0.029-0.072-0.065-0.166-0.109-0.283l-0.591-1.248
					h-4.687l-0.613,1.183c-0.059,0.117-0.106,0.224-0.143,0.317c-0.037,0.094-0.056,0.179-0.056,0.252
					c0,0.115,0.036,0.188,0.108,0.219c0.074,0.029,0.176,0.044,0.308,0.044v0.394h-2.935V119.786L125.273,119.786z M132.589,116.152
					l-1.774-3.678l-1.555,3.678H132.589z"/>
				<path fill="#FFFFFF" d="M141.218,119.786c0.073,0,0.146-0.025,0.22-0.077c0.072-0.051,0.109-0.135,0.109-0.252v-7.288H138.7
					c-0.117,0-0.228,0.029-0.329,0.088c-0.104,0.058-0.153,0.152-0.153,0.284h-0.395v-2.518h0.395c0,0.205,0.052,0.344,0.153,0.416
					s0.211,0.108,0.329,0.108h7.797c0.116,0,0.226-0.036,0.329-0.108c0.102-0.072,0.152-0.211,0.152-0.416h0.395v2.518h-0.395
					c0-0.132-0.051-0.227-0.152-0.284c-0.104-0.059-0.213-0.088-0.329-0.088h-2.847v7.288c0,0.22,0.131,0.329,0.394,0.329v0.394
					h-2.825L141.218,119.786L141.218,119.786z"/>
				<path fill="#FFFFFF" d="M158.324,112.585c0-0.276-0.227-0.416-0.68-0.416h-5.344v2.188h3.373c0.248,0,0.43-0.019,0.547-0.056
					c0.117-0.036,0.176-0.135,0.176-0.295h0.394v2.319h-0.438c0.045-0.16-0.015-0.26-0.175-0.295
					c-0.159-0.036-0.387-0.055-0.679-0.055H152.3v2.582h5.607c0.175,0,0.321-0.041,0.438-0.121c0.116-0.08,0.174-0.186,0.174-0.316
					h0.395v2.299h-0.395c0-0.132-0.059-0.205-0.174-0.22c-0.117-0.015-0.264-0.021-0.438-0.021h-8.038v-0.395
					c0.072,0,0.146-0.025,0.219-0.077c0.073-0.051,0.109-0.135,0.109-0.252v-8.187c0-0.115-0.037-0.199-0.109-0.252
					c-0.072-0.051-0.146-0.076-0.219-0.076v-0.395h7.775c0.451,0,0.679-0.131,0.679-0.395h0.395v2.431h-0.394V112.585z"/>
				<path fill="#FFFFFF" d="M162.682,116.831c0,0.06-0.004,0.12-0.011,0.187c-0.007,0.065-0.011,0.135-0.011,0.207
					c0,0.219,0.139,0.42,0.416,0.604c0.277,0.183,0.609,0.336,0.997,0.459c0.387,0.124,0.774,0.223,1.161,0.296
					s0.688,0.108,0.908,0.108c0.205,0,0.457-0.015,0.756-0.043c0.299-0.029,0.596-0.092,0.888-0.187s0.54-0.228,0.745-0.396
					c0.205-0.166,0.307-0.39,0.307-0.666c0-0.321-0.179-0.556-0.537-0.701c-0.357-0.146-0.807-0.26-1.347-0.34
					c-0.541-0.079-1.125-0.159-1.752-0.24c-0.628-0.08-1.212-0.211-1.752-0.395c-0.541-0.183-0.989-0.444-1.347-0.787
					c-0.358-0.344-0.537-0.828-0.537-1.455c0-0.935,0.387-1.678,1.16-2.232s1.861-0.832,3.264-0.832
					c0.686,0,1.273,0.055,1.763,0.164s0.901,0.229,1.237,0.361c0.336,0.131,0.609,0.252,0.82,0.361
					c0.211,0.108,0.369,0.163,0.471,0.163c0.117,0,0.205-0.019,0.264-0.055s0.131-0.077,0.219-0.121l0.241,0.241l-1.095,2.058
					l-0.395-0.132c-0.015-0.087-0.029-0.175-0.043-0.264c-0.016-0.086-0.082-0.174-0.197-0.262
					c-0.293-0.248-0.746-0.459-1.358-0.636c-0.613-0.175-1.3-0.263-2.06-0.263c-0.291,0-0.568,0.02-0.832,0.055
					c-0.264,0.037-0.498,0.1-0.701,0.188c-0.205,0.088-0.365,0.201-0.482,0.339c-0.117,0.14-0.175,0.311-0.175,0.515
					c0,0.321,0.179,0.551,0.537,0.689c0.358,0.138,0.807,0.248,1.347,0.328s1.124,0.16,1.752,0.24
					c0.629,0.08,1.213,0.215,1.752,0.404c0.54,0.189,0.989,0.468,1.348,0.832c0.357,0.365,0.537,0.868,0.537,1.511
					c0,0.642-0.158,1.167-0.472,1.575c-0.313,0.409-0.704,0.73-1.172,0.964c-0.467,0.234-0.981,0.388-1.544,0.459
					c-0.562,0.073-1.092,0.109-1.588,0.109c-0.497,0-0.989-0.048-1.479-0.142c-0.49-0.096-0.936-0.205-1.336-0.33
					c-0.402-0.123-0.742-0.239-1.02-0.35c-0.278-0.109-0.445-0.164-0.503-0.164c-0.103,0-0.19,0.043-0.263,0.131l-0.308-0.219
					l1.009-2.451L162.682,116.831z"/>
			</g>
			<g enable-background="new    ">
				<path fill="#FFFFFF" d="M8.554,66.29c1.249,0,2.069-0.253,2.461-0.763c0.39-0.506,0.586-1.188,0.586-2.049V10.302
					c0-0.858-0.216-1.541-0.645-2.05c-0.431-0.507-1.31-0.761-2.637-0.761V6.086h19.808v1.405c-1.798,0-2.696,0.509-2.696,1.522
					c0,0.469,0.156,0.898,0.469,1.288l19.104,37.481l19.808-37.481c0.077-0.233,0.176-0.468,0.293-0.702s0.176-0.469,0.176-0.703
					c0-0.39-0.216-0.721-0.645-0.995c-0.43-0.273-1.192-0.41-2.285-0.41V6.086h20.98v1.405c-1.33,0-2.209,0.254-2.637,0.761
					c-0.431,0.509-0.645,1.191-0.645,2.05v53.177c0,0.86,0.214,1.542,0.645,2.05c0.428,0.509,1.308,0.762,2.637,0.762v1.404H66.923
					V66.29c1.328,0,2.207-0.253,2.637-0.763c0.429-0.506,0.645-1.188,0.645-2.049V17.213l-0.352-0.234L44.888,66.523L19.923,16.979
					l-0.117,0.234v46.266c-0.079,0.86,0.077,1.542,0.469,2.05c0.39,0.509,1.132,0.762,2.227,0.762v1.404H8.554V66.29z"/>
				<path fill="#FFFFFF" d="M103.725,49.188c-0.234,0.548-0.352,1.055-0.352,1.523c0,1.094,0.683,2.225,2.051,3.396
					c1.366,1.171,3.165,2.245,5.392,3.221c2.227,0.978,4.747,1.777,7.56,2.401c2.813,0.626,5.665,0.938,8.556,0.938
					c7.422,0,12.795-1.093,16.116-3.28c3.32-2.185,4.981-4.996,4.981-8.433c0-1.64-0.41-3.005-1.23-4.1
					c-0.82-1.093-1.953-1.933-3.398-2.519c-1.446-0.586-3.127-0.995-5.041-1.229c-1.916-0.234-3.967-0.352-6.152-0.352
					c-3.596,0-7.404-0.019-11.428-0.059c-4.025-0.038-7.717-0.546-11.076-1.522c-3.36-0.976-6.135-2.596-8.321-4.861
					C99.194,32.048,98.1,28.69,98.1,24.239c0-2.812,0.78-5.367,2.344-7.672c1.562-2.302,3.692-4.275,6.388-5.915
					c2.696-1.64,5.879-2.928,9.553-3.865c3.671-0.937,7.657-1.405,11.955-1.405c3.359,0,6.271,0.234,8.732,0.703
					c2.461,0.468,4.589,0.977,6.388,1.522c1.797,0.547,3.282,1.054,4.454,1.522c1.172,0.468,2.148,0.703,2.93,0.703
					c0.859,0,1.483-0.156,1.875-0.469c0.391-0.312,0.78-0.663,1.172-1.055l1.406,0.586l-6.445,13.47l-1.289-0.819
					c0.076-0.234,0.117-0.741,0.117-1.523c0-0.545-0.47-1.209-1.408-1.991c-0.938-0.779-2.267-1.54-3.984-2.283
					c-1.721-0.741-3.771-1.365-6.153-1.874c-2.384-0.508-4.981-0.762-7.794-0.762c-6.328,0-11.351,1.016-15.061,3.045
					c-3.712,2.032-5.567,4.686-5.567,7.965c0,1.484,0.41,2.676,1.23,3.573c0.82,0.898,1.952,1.601,3.399,2.107
					c1.445,0.509,3.125,0.841,5.04,0.996c1.914,0.157,3.965,0.234,6.153,0.234c3.672,0,7.501,0.059,11.485,0.176
					c3.985,0.117,7.658,0.723,11.018,1.815c3.359,1.095,6.133,2.852,8.322,5.271c2.187,2.422,3.281,5.974,3.281,10.659
					c0,2.5-0.645,4.9-1.934,7.203c-1.29,2.304-3.225,4.354-5.803,6.149c-2.578,1.796-5.764,3.202-9.553,4.216
					c-3.791,1.017-8.186,1.522-13.186,1.522c-4.219,0-7.873-0.333-10.959-0.996c-3.087-0.662-5.725-1.442-7.911-2.342
					c-2.188-0.897-3.985-1.717-5.392-2.46c-1.406-0.741-2.54-1.113-3.399-1.113c-0.782,0-1.603,0.469-2.461,1.406l-1.172-0.703
					l6.329-13.47L103.725,49.188z"/>
				<path fill="#FFFFFF" d="M176.393,60.668c-0.313,0.702-0.666,1.483-1.056,2.342c-0.392,0.86-0.586,1.523-0.586,1.991
					c0,0.86,0.663,1.289,1.993,1.289v1.405h-14.417V66.29c0.469,0,0.879-0.039,1.231-0.117c0.352-0.077,0.683-0.312,0.996-0.703
					c0.312-0.39,0.662-0.954,1.055-1.698c0.39-0.74,0.896-1.735,1.523-2.985l21.215-47.32c0.625-1.327,1.092-2.322,1.405-2.987
					c0.312-0.662,0.47-1.189,0.47-1.581c0-0.937-0.703-1.405-2.109-1.405V6.086h17.111v1.405c-1.25,0-1.875,0.469-1.875,1.405
					c0,0.469,0.194,1.074,0.586,1.815c0.391,0.743,0.897,1.777,1.523,3.104l22.504,46.617c0.703,1.405,1.249,2.5,1.641,3.279
					c0.391,0.781,0.763,1.367,1.114,1.757c0.353,0.392,0.722,0.626,1.113,0.703c0.39,0.078,0.938,0.117,1.642,0.117v1.405H217.18
					V66.29c0.938,0,1.562-0.136,1.875-0.41c0.312-0.272,0.469-0.683,0.469-1.229c0-0.391-0.099-0.799-0.293-1.229
					c-0.195-0.428-0.605-1.347-1.229-2.752l-4.454-9.371h-33.169L176.393,60.668z M209.562,43.567l-13.246-27.643l-12.188,27.643
					H209.562z"/>
			</g>
			<rect x="7.545" y="78.905" fill="#FFFFFF" width="227.301" height="3.643"/>
		</g>
	</g>
	<g>
		<path fill="#FFFFFF" d="M104.91,146.619l-0.008,1.384h-7.12v-11.488h7.12v1.385h-5.408v3.64h4.352v1.336h-4.352v3.744H104.91z"/>
		<path fill="#FFFFFF" d="M116.422,136.515v11.488h-0.864c-0.133,0-0.244-0.024-0.332-0.072s-0.177-0.125-0.268-0.231l-6.488-8.393
			c0.011,0.145,0.02,0.286,0.028,0.424c0.008,0.14,0.012,0.27,0.012,0.393v7.88h-1.496v-11.488h0.88
			c0.149,0,0.261,0.018,0.336,0.053c0.075,0.034,0.157,0.113,0.248,0.235l6.504,8.4c-0.016-0.155-0.028-0.306-0.036-0.452
			c-0.008-0.146-0.012-0.284-0.012-0.412v-7.824H116.422z"/>
		<path fill="#FFFFFF" d="M127.094,137.938h-3.648v10.064h-1.696v-10.064h-3.663v-1.424h9.008V137.938z"/>
		<path fill="#FFFFFF" d="M135.878,146.619l-0.008,1.384h-7.12v-11.488h7.12v1.385h-5.408v3.64h4.353v1.336h-4.353v3.744H135.878z"
			/>
		<path fill="#FFFFFF" d="M146.598,148.003h-1.521c-0.304,0-0.525-0.12-0.664-0.36l-2.84-3.983
			c-0.091-0.134-0.189-0.229-0.296-0.284s-0.267-0.084-0.479-0.084h-1.112v4.712h-1.704v-11.488h3.312
			c0.742,0,1.381,0.076,1.916,0.229c0.536,0.151,0.979,0.368,1.328,0.647c0.35,0.28,0.608,0.618,0.776,1.013
			s0.252,0.837,0.252,1.327c0,0.4-0.062,0.776-0.184,1.129c-0.123,0.352-0.303,0.668-0.54,0.947
			c-0.237,0.28-0.527,0.521-0.868,0.725c-0.342,0.202-0.729,0.357-1.16,0.464c0.213,0.128,0.397,0.307,0.552,0.536L146.598,148.003z
			 M141.237,142.051c0.438,0,0.822-0.053,1.156-0.16c0.333-0.106,0.612-0.257,0.836-0.452c0.224-0.194,0.392-0.426,0.504-0.695
			s0.168-0.566,0.168-0.893c0-0.661-0.218-1.159-0.652-1.496c-0.435-0.336-1.086-0.504-1.956-0.504h-1.607v4.2H141.237z"/>
	</g>
	<rect x="8.188" y="141.994" fill="#FFFFFF" width="78.385" height="1.5"/>
	<rect x="156.076" y="141.994" fill="#FFFFFF" width="78.386" height="1.5"/>
</g>
</svg>
