<?xml version="1.0" encoding="utf-8"?>
<!-- Generator: Adobe Illustrator 16.0.0, SVG Export Plug-In . SVG Version: 6.00 Build 0)  -->
<!DOCTYPE svg PUBLIC "-//W3C//DTD SVG 1.1//EN" "http://www.w3.org/Graphics/SVG/1.1/DTD/svg11.dtd">
<svg version="1.1" id="Layer_2" xmlns="http://www.w3.org/2000/svg" xmlns:xlink="http://www.w3.org/1999/xlink" x="0px" y="0px"
	 width="81px" height="20px" viewBox="0 0 81 20" enable-background="new 0 0 81 20" xml:space="preserve">
<g>
	<g>
		<path fill-rule="evenodd" clip-rule="evenodd" fill="#6C6C6C" d="M6.986,15.641c-0.549-0.093-1.083-0.187-1.584-0.405
			c-1.253-0.546-2.15-1.442-2.671-2.708c-0.139-0.337-0.099-0.383,0.257-0.343c0.518,0.06,1.03,0.005,1.546-0.088
			c-0.256-0.103-0.515-0.2-0.769-0.307C2.154,11.105,0.914,9.236,0.92,7.507c0.001-0.284,0.031-0.305,0.292-0.176
			c0.521,0.253,1.075,0.384,1.665,0.456c-0.015-0.11-0.095-0.149-0.154-0.198C0.891,6.091,0.51,3.516,1.462,1.571
			C1.58,1.33,1.604,1.324,1.802,1.517c0.634,0.615,1.247,1.252,1.931,1.814C5.205,4.543,6.873,5.369,8.7,5.889
			c0.875,0.249,1.767,0.399,2.673,0.472c0.201,0.016,0.264-0.016,0.234-0.246c-0.4-3.174,1.769-5.292,4.1-5.64
			c1.501-0.226,2.885,0.126,4.035,1.175c0.242,0.221,0.478,0.273,0.784,0.19c0.774-0.209,1.508-0.519,2.231-0.858
			c0.12-0.057,0.273-0.197,0.376-0.1c0.091,0.088-0.053,0.235-0.103,0.352c-0.337,0.797-0.891,1.428-1.533,1.99
			c-0.04,0.035-0.081,0.069-0.136,0.117c0.104,0.065,0.195,0.03,0.278,0.013c0.571-0.115,1.132-0.265,1.68-0.463
			c0.087-0.032,0.175-0.062,0.264-0.089c0.043-0.014,0.095-0.033,0.131,0.007c0.047,0.051,0.016,0.104-0.016,0.147
			c-0.167,0.224-0.326,0.454-0.508,0.665c-0.477,0.552-0.983,1.077-1.572,1.512c-0.121,0.09-0.151,0.198-0.159,0.338
			c-0.047,0.882-0.065,1.766-0.22,2.638c-0.466,2.602-1.494,4.942-3.214,6.967c-1.274,1.5-2.792,2.678-4.58,3.502
			C12.12,19.19,10.73,19.61,9.275,19.72c-2.142,0.159-4.276,0.131-6.333-0.631c-0.904-0.334-1.775-0.735-2.612-1.211
			c-0.061-0.034-0.121-0.071-0.177-0.111c-0.04-0.03-0.112-0.05-0.083-0.119c0.021-0.05,0.08-0.037,0.125-0.037
			c0.201-0.002,0.403-0.007,0.604,0c0.941,0.021,1.87-0.042,2.787-0.285c1.183-0.313,2.269-0.827,3.269-1.525
			C6.903,15.766,6.964,15.74,6.986,15.641z"/>
	</g>
	<g>
		<path fill-rule="evenodd" clip-rule="evenodd" fill="#6C6C6C" d="M51.852,7.186c0.025,0,0.053-0.001,0.082-0.002
			c0,2.462,0,4.925,0,7.389c-0.057,0.02-0.099,0.004-0.13-0.044c-0.081-0.156-0.072-0.328-0.072-0.494
			c-0.003-2.098-0.003-4.196,0-6.293C51.731,7.55,51.709,7.349,51.852,7.186z"/>
		<path fill-rule="evenodd" clip-rule="evenodd" fill="#6C6C6C" d="M48.588,0.026c0,0.023,0.001,0.045,0.004,0.068
			c-0.65-0.001-1.299-0.002-1.948-0.003c-0.026-0.014-0.033-0.028-0.027-0.043c0.009-0.014,0.019-0.021,0.026-0.021
			C47.29,0.026,47.939,0.026,48.588,0.026z"/>
		<path fill-rule="evenodd" clip-rule="evenodd" fill="#6C6C6C" d="M46.643,0.026c0,0.021,0,0.043,0.001,0.065
			c-0.622,0-1.244,0-1.866,0c-0.028-0.014-0.034-0.028-0.028-0.043c0.01-0.014,0.019-0.021,0.027-0.021
			C45.397,0.026,46.021,0.026,46.643,0.026z"/>
		<path fill-rule="evenodd" clip-rule="evenodd" fill="#6C6C6C" d="M44.776,0.026c0,0.021,0.001,0.043,0.001,0.065
			c-0.623,0-1.244,0-1.867,0c-0.026-0.015-0.034-0.029-0.026-0.044c0.008-0.014,0.018-0.021,0.024-0.021
			C43.532,0.026,44.153,0.026,44.776,0.026z"/>
		<path fill-rule="evenodd" clip-rule="evenodd" fill="#6C6C6C" d="M42.908,0.026c0,0.021,0,0.044,0.002,0.065
			c-0.622,0-1.244,0-1.865,0.001c-0.027-0.015-0.037-0.029-0.029-0.045c0.011-0.014,0.019-0.021,0.026-0.021
			C41.665,0.026,42.286,0.026,42.908,0.026z"/>
		<path fill-rule="evenodd" clip-rule="evenodd" fill="#6C6C6C" d="M41.042,0.026c0,0.021,0,0.044,0.003,0.066
			c-0.625,0-1.248,0-1.869,0.001c-0.025-0.014-0.035-0.029-0.026-0.044c0.008-0.016,0.017-0.023,0.024-0.023
			C39.797,0.026,40.419,0.026,41.042,0.026z"/>
		<path fill-rule="evenodd" clip-rule="evenodd" fill="#6C6C6C" d="M39.174,0.026c0,0.021,0.001,0.045,0.002,0.067
			c-0.62,0.005-1.24,0.013-1.859,0.018c-0.003-0.029-0.005-0.057-0.009-0.085C37.93,0.026,38.553,0.026,39.174,0.026z"/>
		<path fill-rule="evenodd" clip-rule="evenodd" fill="#6C6C6C" d="M51.934,6.562c-0.029-0.003-0.057-0.005-0.082-0.007
			c0.002-0.386,0.006-0.774,0.01-1.162c0.026-0.035,0.049-0.034,0.072,0.001C51.934,5.782,51.934,6.172,51.934,6.562z"/>
		<path fill-rule="evenodd" clip-rule="evenodd" fill="#6C6C6C" d="M51.868,14.573c0.022,0.002,0.043,0.002,0.065,0
			c0,0.232,0,0.467,0,0.7c-0.05,0.023-0.091,0.014-0.121-0.031C51.729,15.011,51.688,14.784,51.868,14.573z"/>
		<path fill-rule="evenodd" clip-rule="evenodd" fill="#6C6C6C" d="M51.868,4.614c0.015-0.181-0.092-0.378,0.065-0.543
			c0,0.181,0,0.363,0,0.545C51.911,4.651,51.89,4.652,51.868,4.614z"/>
		<path fill-rule="evenodd" clip-rule="evenodd" fill="#6C6C6C" d="M51.87,15.275c0.021,0,0.042,0,0.063-0.002
			c0,0.156,0,0.312,0,0.467l-0.034,0.002h-0.031C51.726,15.586,51.725,15.432,51.87,15.275z"/>
		<path fill-rule="evenodd" clip-rule="evenodd" fill="#6C6C6C" d="M36.452,0.026c0.004,0.026,0.004,0.051,0,0.078
			c-0.157-0.002-0.313-0.003-0.471-0.003c-0.004-0.025-0.003-0.051,0.003-0.075C36.141,0.026,36.296,0.026,36.452,0.026z"/>
		<path fill-rule="evenodd" clip-rule="evenodd" fill="#6C6C6C" d="M51.87,15.275c-0.002,0.156-0.002,0.311-0.002,0.467
			c0.014,0.758-0.087,1.487-0.47,2.16c-0.598,1.045-1.488,1.687-2.651,1.966c-4.49,0.002-8.98,0.006-13.47,0.006
			c-1.577-0.377-2.59-1.348-3.042-2.902c-0.14-0.478-0.113-0.977-0.116-1.466c-0.017-2.631-0.007-5.263-0.023-7.895
			c-0.001-0.332,0.074-0.45,0.426-0.446c1.749,0.017,3.499,0.007,5.325,0.007c-0.972,1.59-1.171,3.214-0.487,4.9
			c0.412,1.014,1.104,1.804,2.056,2.363c1.959,1.146,4.322,0.891,6.011-0.655c1.388-1.268,2.381-3.86,0.71-6.594
			c1.928,0,3.821,0,5.715,0c0.001,2.307,0.002,4.615,0.005,6.923c0,0.156,0.007,0.312,0.012,0.464
			C51.868,14.808,51.868,15.042,51.87,15.275z"/>
		<path fill-rule="evenodd" clip-rule="evenodd" fill="#6C6C6C" d="M51.868,4.614c0.023,0,0.044,0.001,0.065,0.002
			c0,0.13,0,0.259,0,0.388c-0.023,0.036-0.046,0.037-0.071,0C51.863,4.873,51.865,4.744,51.868,4.614z"/>
		<path fill-rule="evenodd" clip-rule="evenodd" fill="#6C6C6C" d="M51.862,5.004c0.025,0,0.048,0,0.071,0c0,0.13,0,0.26,0,0.39
			c-0.023,0-0.048,0-0.073-0.001C51.861,5.263,51.862,5.134,51.862,5.004z"/>
		<path fill="#6C6C6C" d="M51.934,3.838c-0.069-0.078-0.038-0.172-0.039-0.259c-0.041-1.75-1.667-3.422-3.416-3.513
			c-0.617,0-1.235,0-1.854,0c-0.617,0-1.236,0-1.854,0c-0.622,0-1.245,0-1.866,0c-0.624,0-1.245,0-1.866,0c-0.624,0-1.249,0-1.871,0
			c-0.625,0.017-1.249-0.038-1.873,0.03c-0.135,0.167-0.106,0.369-0.107,0.559c-0.004,0.934,0,1.865-0.003,2.797
			c-0.001,0.375,0.01,0.751-0.008,1.127c-0.008,0.182-0.088,0.291-0.286,0.288c-0.186-0.002-0.286-0.089-0.302-0.278
			c-0.012-0.129-0.014-0.259-0.014-0.388c0-1.178,0.002-2.357-0.001-3.536c0-0.192,0.026-0.391-0.1-0.562
			c-0.167-0.062-0.333-0.051-0.501-0.009c-0.133,0.168-0.103,0.37-0.103,0.562c-0.005,0.946-0.001,1.892-0.003,2.838
			c-0.001,0.362,0.01,0.727-0.007,1.089c-0.012,0.211-0.129,0.294-0.331,0.292c-0.199-0.003-0.271-0.116-0.276-0.298
			c-0.004-0.129-0.003-0.259-0.004-0.389c-0.003-1.193,0.01-2.385-0.006-3.577c-0.003-0.217-0.046-0.432-0.333-0.429
			c-0.263,0.004-0.399,0.155-0.428,0.41c-0.016,0.143-0.014,0.285-0.014,0.428c0,1.076,0,2.15,0,3.228
			c0,0.129,0.003,0.258-0.019,0.387c-0.024,0.15-0.108,0.226-0.264,0.229c-0.164,0.002-0.229-0.089-0.246-0.237
			c-0.014-0.13-0.014-0.26-0.01-0.388c0.025-0.999-0.023-1.994-0.084-2.99c-0.009-0.14,0-0.298-0.148-0.378
			c-0.121-0.064-0.229,0.017-0.314,0.095c-0.685,0.637-1.18,1.39-1.275,2.335c-0.1,0.992-0.031,1.993-0.052,2.989
			c-0.007,0.277,0.113,0.374,0.36,0.383c0.143,0.006,0.285,0.007,0.428,0.007c1.568,0,3.135-0.015,4.704,0.008
			c0.558,0.009,1.011-0.131,1.465-0.475c1.902-1.439,4.396-1.344,6.192,0.205c0.234,0.203,0.494,0.263,0.785,0.263
			c1.789-0.002,3.579,0,5.367-0.002c0.178,0,0.367,0.024,0.518-0.113c0.049-0.377,0.007-0.757,0.021-1.136c0-0.136,0-0.273,0-0.41
			c0-0.13,0-0.26,0-0.392c0.021-0.186-0.044-0.376,0.041-0.557C51.934,3.994,51.934,3.916,51.934,3.838z M50.052,4.45
			c-0.029,0.463-0.19,0.607-0.648,0.65c-0.686,0.063-1.369,0.043-2.054-0.003c-0.37-0.025-0.589-0.212-0.599-0.578
			c-0.02-0.762-0.058-1.524,0.03-2.284c0.029-0.254,0.136-0.404,0.404-0.431c0.774-0.077,1.548-0.077,2.322-0.02
			c0.396,0.028,0.543,0.251,0.551,0.608c0.006,0.337,0.001,0.673,0.001,1.009c0,0-0.001,0-0.002,0
			C50.058,3.751,50.073,4.101,50.052,4.45z"/>
		<path fill-rule="evenodd" clip-rule="evenodd" fill="#6C6C6C" d="M42.007,6.205c-1.917-0.096-3.829,1.674-3.913,3.623
			c-0.1,2.313,1.511,4.047,3.867,4.159c1.956,0.094,3.811-1.62,3.9-3.606C45.967,8.069,44.355,6.323,42.007,6.205z M41.954,12.957
			c-1.548-0.021-2.867-1.363-2.827-2.877c0.041-1.565,1.324-2.839,2.832-2.819c1.662,0.023,2.924,1.29,2.894,2.906
			C44.823,11.725,43.523,12.977,41.954,12.957z"/>
	</g>
	<g>
		<path fill-rule="evenodd" clip-rule="evenodd" fill="#6C6C6C" d="M72.28,19.865c-2.056,0-4.11-0.016-6.166,0.006
			c-1.066,0.014-2.069-0.777-2.327-1.79c-0.092-0.357-0.066-0.735-0.068-1.099c-0.016-1.694-0.009-3.388-0.005-5.079
			c0.001-0.311,0.021-0.62,0.036-0.93c0.015-0.245,0.111-0.466,0.227-0.675c0.349-0.631,0.858-1.064,1.564-1.234
			c0.229-0.057,0.474-0.056,0.712-0.059c0.971-0.01,1.938-0.003,2.908-0.021c2.256-0.039,4.51-0.021,6.766-0.013
			c0.917,0.005,1.836-0.006,2.751,0.042c0.853,0.044,1.453,0.531,1.897,1.24c0.268,0.428,0.271,0.901,0.274,1.366
			c0.013,1.875,0.007,3.749,0.003,5.624c-0.001,0.581-0.065,1.146-0.443,1.63c-0.484,0.614-1.09,0.989-1.887,0.989
			C76.442,19.867,74.362,19.865,72.28,19.865z M72.756,14.413c0,1.13,0.003,2.261-0.003,3.391c-0.001,0.174,0.047,0.251,0.229,0.237
			c0.161-0.012,0.323-0.008,0.485-0.002c0.142,0.008,0.21-0.037,0.218-0.194c0.009-0.166,0.08-0.188,0.206-0.075
			c0.092,0.083,0.182,0.165,0.298,0.214c0.654,0.271,1.357-0.002,1.349-0.85c-0.012-1.164,0.003-2.326-0.005-3.489
			c-0.004-0.391-0.198-0.706-0.536-0.883c-0.324-0.17-0.651-0.083-0.946,0.131c-0.095,0.071-0.188,0.236-0.294,0.177
			c-0.117-0.062-0.073-0.242-0.074-0.377c-0.005-0.549-0.008-1.098-0.003-1.646c0.002-0.157-0.046-0.227-0.21-0.215
			c-0.154,0.01-0.31,0.013-0.465-0.001c-0.194-0.019-0.255,0.053-0.253,0.25C72.76,12.191,72.756,13.301,72.756,14.413z
			 M78.301,15.51c0.232,0,0.464,0.002,0.696,0c0.263,0,0.267-0.002,0.262-0.254c-0.01-0.497-0.022-0.993-0.033-1.491
			c-0.003-0.093-0.029-0.178-0.062-0.264c-0.214-0.568-0.616-0.856-1.231-0.886c-0.856-0.044-1.52,0.549-1.535,1.405
			c-0.003,0.206-0.001,0.413-0.012,0.619c-0.04,0.763-0.039,1.522,0.024,2.283c0.037,0.429,0.243,0.768,0.584,1.033
			c0.303,0.234,0.654,0.21,1.001,0.196c0.606-0.021,1.062-0.418,1.184-1.011c0.054-0.268,0.037-0.54,0.076-0.81
			c0.018-0.122-0.056-0.156-0.164-0.156c-0.199,0.002-0.399,0.004-0.602-0.002c-0.139-0.004-0.192,0.056-0.199,0.194
			c-0.009,0.192-0.024,0.387-0.06,0.577c-0.054,0.289-0.259,0.4-0.546,0.331c-0.245-0.06-0.286-0.25-0.319-0.456
			c-0.061-0.371-0.032-0.744-0.04-1.12c-0.002-0.146,0.063-0.194,0.202-0.192C77.783,15.516,78.042,15.512,78.301,15.51z
			 M71.703,15.41c0-0.801-0.005-1.604,0.002-2.404c0.003-0.188-0.063-0.258-0.247-0.242c-0.141,0.012-0.286,0.012-0.426-0.002
			c-0.195-0.018-0.257,0.056-0.255,0.252c0.007,1.152-0.013,2.302,0.014,3.453c0.008,0.338-0.15,0.504-0.396,0.66
			c-0.213,0.135-0.537,0.04-0.521-0.293c0.023-0.47,0.006-0.943,0.006-1.413c0-0.804,0-1.603,0-2.405
			c-0.001-0.24-0.008-0.248-0.255-0.25c-0.147-0.002-0.296-0.002-0.445,0c-0.265,0-0.268,0.002-0.265,0.273
			c0.011,1.299,0.026,2.598,0.033,3.896c0.002,0.208,0.011,0.412,0.042,0.618c0.058,0.377,0.344,0.581,0.718,0.535
			c0.311-0.038,0.556-0.196,0.79-0.385c0.077-0.062,0.139-0.208,0.239-0.16c0.092,0.045,0.045,0.188,0.04,0.289
			c-0.008,0.165,0.064,0.218,0.219,0.206c0.154-0.008,0.312-0.01,0.465,0.002c0.189,0.014,0.247-0.06,0.244-0.245
			C71.699,17,71.703,16.205,71.703,15.41z M66.663,14.938c0,0.954,0.004,1.913-0.003,2.869c-0.001,0.176,0.056,0.245,0.235,0.233
			c0.179-0.012,0.359-0.002,0.541-0.002c0.301,0,0.301,0,0.301-0.297c0-1.88,0-3.763,0-5.643c0-0.293,0.008-0.301,0.307-0.301
			c0.214-0.002,0.427-0.004,0.641,0c0.129,0.002,0.191-0.048,0.188-0.183c-0.003-0.208-0.002-0.414,0-0.62
			c0.001-0.114-0.047-0.165-0.162-0.165c-1.017,0-2.028,0-3.045,0c-0.114,0-0.162,0.047-0.161,0.162
			c0.004,0.208,0.004,0.413,0,0.619c-0.003,0.133,0.049,0.19,0.182,0.187c0.214-0.006,0.426-0.002,0.64,0
			c0.337,0,0.337,0,0.337,0.327C66.663,13.063,66.663,13.999,66.663,14.938z"/>
		<path fill-rule="evenodd" clip-rule="evenodd" fill="#6C6C6C" d="M68.255,2.879c0.128-0.492,0.257-0.985,0.383-1.478
			c0.097-0.382,0.192-0.764,0.282-1.147c0.03-0.132,0.099-0.18,0.229-0.177c0.266,0.004,0.53-0.004,0.796,0
			c0.204,0.003,0.229,0.034,0.179,0.232c-0.189,0.758-0.429,1.503-0.652,2.252c-0.197,0.663-0.402,1.322-0.605,1.982
			c-0.033,0.101-0.033,0.203-0.033,0.307c-0.001,0.884-0.001,1.77-0.003,2.655c0,0.254-0.01,0.262-0.26,0.261
			c-0.238-0.001-0.478-0.011-0.718-0.004c-0.173,0.006-0.227-0.059-0.235-0.236c-0.039-0.839-0.039-1.679-0.035-2.518
			c0.006-0.725-0.281-1.373-0.478-2.044c-0.26-0.879-0.538-1.753-0.807-2.629c-0.073-0.241-0.061-0.258,0.184-0.26
			c0.238-0.001,0.479,0.011,0.717,0c0.178-0.008,0.265,0.05,0.312,0.231c0.188,0.744,0.392,1.486,0.591,2.228
			c0.031,0.118,0.07,0.232,0.107,0.348C68.224,2.881,68.238,2.88,68.255,2.879z"/>
		<path fill-rule="evenodd" clip-rule="evenodd" fill="#6C6C6C" d="M73.178,5.013c0,0.465-0.008,0.93,0.002,1.396
			c0.01,0.563-0.261,0.959-0.721,1.238c-0.514,0.308-1.518,0.314-2.04-0.279c-0.255-0.289-0.289-0.632-0.298-0.977
			c-0.029-0.962-0.034-1.925-0.008-2.887c0.018-0.649,0.321-1.146,0.938-1.362c1.1-0.385,2.112,0.333,2.126,1.361
			C73.185,4.006,73.179,4.51,73.178,5.013L73.178,5.013z M72.05,4.966c0-0.465,0.001-0.93-0.001-1.394
			c-0.001-0.249-0.149-0.39-0.4-0.39c-0.251-0.001-0.402,0.141-0.403,0.391c-0.004,0.884-0.003,1.768-0.005,2.652
			c0,0.091,0.012,0.18,0.046,0.266c0.077,0.198,0.253,0.296,0.465,0.257c0.186-0.035,0.297-0.176,0.298-0.39
			C72.051,5.895,72.05,5.43,72.05,4.966z"/>
		<path fill-rule="evenodd" clip-rule="evenodd" fill="#6C6C6C" d="M74.022,4.493c0-0.723-0.001-1.448,0-2.171
			c0-0.239,0.017-0.256,0.25-0.258c0.201-0.002,0.402,0.007,0.603-0.003c0.187-0.01,0.245,0.069,0.244,0.251
			c-0.005,1.164-0.002,2.327,0,3.491c0,0.239-0.003,0.478,0.034,0.716c0.029,0.197,0.133,0.264,0.327,0.208
			C75.8,6.635,76,6.369,75.999,6.036c-0.004-1.222-0.006-2.442-0.006-3.664c0-0.309,0.006-0.309,0.314-0.309
			c0.18-0.001,0.362,0.005,0.544-0.002c0.168-0.009,0.244,0.051,0.241,0.233c-0.013,0.975-0.019,1.951-0.025,2.925
			c-0.003,0.756-0.005,1.512-0.01,2.269c-0.002,0.249-0.02,0.267-0.26,0.272c-0.194,0.002-0.389-0.002-0.582,0.007
			c-0.154,0.007-0.228-0.044-0.221-0.209C76,7.46,76.03,7.319,75.93,7.277c-0.086-0.036-0.157,0.089-0.229,0.151
			c-0.254,0.222-0.528,0.385-0.881,0.386c-0.453,0.002-0.724-0.25-0.755-0.705C74.002,6.239,74.045,5.366,74.022,4.493z"/>
		<path fill-rule="evenodd" clip-rule="evenodd" fill="#6C6C6C" d="M74.567,15.418c0.007,0.54,0.003,1.045-0.027,1.547
			c-0.019,0.281-0.162,0.393-0.437,0.327c-0.306-0.073-0.388-0.181-0.392-0.494c-0.01-0.807-0.023-1.611-0.029-2.418
			c-0.001-0.187,0.018-0.373,0.038-0.56c0.027-0.237,0.185-0.351,0.453-0.343c0.22,0.008,0.35,0.141,0.363,0.373
			C74.567,14.384,74.581,14.921,74.567,15.418z"/>
		<path fill-rule="evenodd" clip-rule="evenodd" fill="#6C6C6C" d="M77.809,14.711c-0.53-0.01-0.486,0.097-0.48-0.5
			c0.001-0.154,0.033-0.307,0.085-0.452c0.064-0.186,0.197-0.262,0.385-0.26c0.202,0.002,0.4,0.121,0.429,0.296
			c0.039,0.258,0.046,0.523,0.062,0.785c0.005,0.085-0.047,0.131-0.133,0.131C78.04,14.711,77.925,14.711,77.809,14.711z"/>
	</g>
</g>
</svg>
