<?xml version="1.0" encoding="utf-8"?>
<!-- Generator: Adobe Illustrator 16.0.0, SVG Export Plug-In . SVG Version: 6.00 Build 0)  -->
<!DOCTYPE svg PUBLIC "-//W3C//DTD SVG 1.1//EN" "http://www.w3.org/Graphics/SVG/1.1/DTD/svg11.dtd">
<svg version="1.1" id="Layer_1" xmlns="http://www.w3.org/2000/svg" xmlns:xlink="http://www.w3.org/1999/xlink" x="0px" y="0px"
	 width="500px" height="69.086px" viewBox="0 0 500 69.086" enable-background="new 0 0 500 69.086" xml:space="preserve">
<g>
	<path fill-rule="evenodd" clip-rule="evenodd" fill="#E87A18" d="M126.691,21.054c-0.841,2.475-1.707,4.94-2.522,7.424
		c-3.546,10.809-7.062,21.628-10.623,32.433c-1.365,4.143-1.407,4.122-5.796,4.122c-3.365,0-6.732-0.052-10.092,0.064
		c-1.578,0.056-2.292-0.453-2.646-2.032c-3.027-13.493-6.126-26.97-9.21-40.451c-0.109-0.474-0.297-0.928-0.85-1.408
		c-0.122,0.582-0.316,1.161-0.354,1.749c-0.871,13.355-1.747,26.71-2.548,40.069c-0.087,1.445-0.433,2.101-2.001,2.068
		c-4.011-0.081-8.024-0.067-12.034-0.011c-1.486,0.021-1.807-0.446-1.653-1.956c1.167-11.51,2.291-23.026,3.289-34.553
		c0.693-7.987,1.207-15.991,1.698-23.994c0.1-1.635,0.733-2.062,2.259-2.048c6.986,0.058,13.973,0.038,20.959,0.016
		c1.21-0.004,2.056,0.175,2.385,1.616c2.382,10.455,4.847,20.891,7.256,31.34c0.43,1.864,0.72,3.758,1.076,5.639
		c0.186,0.026,0.372,0.055,0.558,0.082c0.273-0.65,0.586-1.287,0.813-1.953c3.21-9.418,6.418-18.835,9.602-28.262
		c0.641-1.896,1.218-3.816,1.748-5.746c0.752-2.746,0.897-2.888,3.68-2.839c4.332,0.076,8.663,0.17,12.994,0.211
		c2.393,0.022,4.788-0.065,7.181-0.075c2.606-0.011,2.606,0.039,2.507,2.579c-0.488,12.471-1.025,24.938-1.402,37.411
		c-0.205,6.79-0.19,13.587-0.127,20.378c0.016,1.767-0.547,2.202-2.211,2.161c-4.074-0.098-8.153-0.106-12.227,0.019
		c-1.799,0.055-2.187-0.642-2.117-2.277c0.447-10.597,0.838-21.196,1.209-31.795c0.091-2.585,0.05-5.176,0.046-7.764
		c-0.001-0.682-0.091-1.364-0.14-2.045C127.161,21.168,126.926,21.111,126.691,21.054z"/>
	<path fill-rule="evenodd" clip-rule="evenodd" fill="#E87A18" d="M437.751,20.767c-0.234,1.241-0.448,1.955-0.495,2.679
		c-0.83,13.035-1.663,26.068-2.425,39.106c-0.104,1.795-0.525,2.638-2.584,2.558c-4.313-0.172-8.64-0.053-13.271-0.053
		c0.112-1.478,0.181-2.739,0.304-3.994c0.844-8.556,1.794-17.103,2.526-25.669c0.886-10.37,1.607-20.756,2.349-31.139
		c0.089-1.261,0.623-1.7,1.803-1.697c7.311,0.019,14.622-0.014,21.93,0.081c0.581,0.007,1.526,0.753,1.668,1.315
		c1.985,7.895,3.904,15.808,5.739,23.738c0.814,3.523,1.391,7.102,2.106,10.648c0.195,0.969,0.501,1.912,0.756,2.869
		c0.181-0.005,0.362-0.01,0.544-0.014c0.183-0.51,0.374-1.016,0.546-1.526c3.021-9.004,6.047-18.007,9.058-27.014
		c0.942-2.817,1.901-5.631,2.741-8.479c0.329-1.115,0.854-1.591,2.028-1.587c7.375,0.021,14.75,0.029,22.125-0.032
		c1.67-0.014,1.906,0.844,1.845,2.201c-0.369,8.141-0.824,16.28-1.029,24.425c-0.281,11.251-0.411,22.507-0.494,33.764
		c-0.012,1.794-0.628,2.175-2.256,2.136c-4.011-0.097-8.026-0.114-12.033,0.003c-1.766,0.052-2.373-0.417-2.29-2.271
		c0.469-10.466,0.845-20.937,1.203-31.408c0.099-2.908,0.042-5.821,0.035-8.732c-0.001-0.554-0.109-1.106-0.617-1.777
		c-0.266,0.66-0.569,1.309-0.792,1.981c-4.43,13.447-8.875,26.887-13.238,40.354c-0.469,1.444-1.149,1.895-2.615,1.862
		c-4.204-0.088-8.413-0.089-12.616,0c-1.526,0.033-2.153-0.515-2.483-1.99c-2.216-9.902-4.516-19.786-6.783-29.677
		c-0.852-3.715-1.687-7.433-2.551-11.143C438.4,21.935,438.169,21.619,437.751,20.767z"/>
	<path fill-rule="evenodd" clip-rule="evenodd" fill="#E87A18" d="M311.502,2.555c7.245,0,14.492-0.01,21.738,0.006
		c2.579,0.005,2.728,0.194,2.53,2.812c-0.204,2.708-0.587,5.416-0.568,8.121c0.013,1.928-0.776,2.229-2.432,2.185
		c-5.364-0.146-10.733-0.185-16.102-0.234c-2.782-0.025-5.563,0.036-8.346,0.018c-1.305-0.008-2.048,0.388-2.066,1.874
		c-0.025,2.262-0.246,4.52-0.324,6.781c-0.098,2.812,0.101,3.021,2.868,3.028c6.275,0.017,12.552,0.01,18.828-0.005
		c2.451-0.005,2.386-0.023,2.233,2.334c-0.175,2.709-0.364,5.434-0.249,8.14c0.086,1.994-0.684,2.383-2.475,2.357
		c-6.34-0.094-12.682-0.068-19.021-0.04c-2.837,0.012-2.962,0.059-3.062,2.823c-0.241,6.593-0.422,13.189-0.475,19.785
		c-0.015,1.884-0.44,2.627-2.481,2.573c-5.237-0.141-10.481-0.089-15.721-0.026c-1.558,0.019-1.937-0.441-1.804-2.042
		c0.68-8.246,1.4-16.497,1.749-24.762c0.472-11.178,0.647-22.368,0.87-33.556c0.036-1.767,0.799-2.188,2.374-2.178
		c7.311,0.043,14.622,0.02,21.934,0.02C311.502,2.564,311.502,2.561,311.502,2.555z"/>
	<path fill-rule="evenodd" clip-rule="evenodd" fill="#E87A18" d="M152.854,49.815c4.624,1.083,9.021,2.45,13.52,3.04
		c2.711,0.355,5.69-0.125,8.35-0.909c3.197-0.938,4.097-3.981,2.088-6.669c-1.485-1.986-3.486-3.605-5.343-5.293
		c-3.683-3.346-7.589-6.463-11.109-9.97c-7.578-7.549-5.883-17.401,0.425-23.241c3.6-3.333,8.154-4.606,12.929-5.178
		c6.818-0.815,13.537-0.009,20.247,1.151c1.584,0.272,2.087,0.99,2.125,2.585c0.073,3.031,0.433,6.055,0.643,9.084
		c0.057,0.819,0.008,1.646,0.008,2.822c-1.571-0.479-2.947-0.938-4.344-1.317c-3.955-1.076-7.949-1.856-12.055-0.971
		c-0.995,0.214-2.005,0.553-2.888,1.048c-2.855,1.6-3.524,4.323-1.387,6.793c1.845,2.131,4.082,3.933,6.202,5.817
		c3.474,3.087,7.208,5.912,10.451,9.221c8.596,8.771,3.738,20.24-3.545,24.584c-3.817,2.278-7.958,3.429-12.307,3.769
		c-7.015,0.551-13.936-0.402-20.829-1.632c-1.531-0.273-2.098-0.967-2.181-2.57C153.641,57.864,153.193,53.762,152.854,49.815z"/>
	<path fill-rule="evenodd" clip-rule="evenodd" fill="#E87A18" d="M277.679,62.895c-7.153-19.539-14.327-39.068-21.426-58.627
		c-0.512-1.41-1.177-1.889-2.62-1.869c-6.722,0.089-13.445,0.12-20.168,0.098c-1.067-0.003-1.584,0.335-2.076,1.275
		c-8.917,17.072-17.867,34.126-26.833,51.171c-1.731,3.292-3.554,6.535-5.428,9.971c0.65,0.08,1.019,0.165,1.387,0.165
		c5.887-0.001,11.773-0.056,17.66,0.01c1.455,0.017,2.186-0.513,2.775-1.814c2.186-4.828,4.536-9.58,6.71-14.414
		c0.583-1.296,1.388-1.639,2.693-1.63c6.598,0.046,13.196,0.057,19.794,0.006c1.43-0.011,2.249,0.405,2.707,1.848
		c1.527,4.802,3.133,9.581,4.806,14.334c0.225,0.64,0.991,1.539,1.521,1.549c6.262,0.107,12.526,0.069,19.173,0.069
		C278.059,64.092,277.895,63.482,277.679,62.895z M247.106,34.213c-3.881-0.031-7.763-0.01-11.644-0.032
		c-0.363-0.002-0.725-0.165-1.475-0.349c2.896-6.042,5.666-11.818,8.648-18.039c0.492,0.934,0.817,1.391,0.987,1.899
		c1.593,4.782,3.151,9.576,4.741,14.358C248.774,33.287,248.864,34.227,247.106,34.213z"/>
	<path fill-rule="evenodd" clip-rule="evenodd" fill="#E87A18" d="M413.188,62.553c-3.023-8.045-6.112-16.069-9.057-24.145
		c-4.164-11.414-8.243-22.859-12.295-34.314c-0.497-1.404-1.389-1.7-2.658-1.652c-2.003,0.077-4.007,0.188-6.01,0.181
		c-4.269-0.018-8.538-0.061-12.805-0.174c-1.783-0.046-3.065,0.368-3.777,2.225c-0.715,1.864-1.674,3.642-2.611,5.412
		c-8.222,15.545-16.456,31.083-24.703,46.614c-1.44,2.711-2.958,5.38-4.536,8.24c0.735,0.063,1.173,0.132,1.612,0.132
		c5.629-0.002,11.259-0.117,16.885,0.03c2.074,0.055,2.951-0.822,3.714-2.559c1.997-4.558,4.179-9.034,6.261-13.555
		c0.534-1.163,1.233-1.786,2.649-1.772c6.663,0.068,13.328,0.059,19.991,0.001c1.457-0.013,2.229,0.495,2.678,1.898
		c1.536,4.801,3.132,9.582,4.806,14.337c0.225,0.638,1.022,1.521,1.568,1.529c6.265,0.108,12.531,0.07,19.216,0.07
		C413.716,63.977,413.455,63.265,413.188,62.553z M369.57,34.011c2.974-6.204,5.733-11.961,8.492-17.72
		c0.234,0.001,0.468,0.003,0.7,0.004c1.913,5.803,3.825,11.605,5.839,17.716C379.47,34.011,374.767,34.011,369.57,34.011z"/>
	<path fill-rule="evenodd" clip-rule="evenodd" fill="#E87A18" d="M58.38,18.661c-2.2-0.002-4.401-0.027-6.601,0.003
		c-1.18,0.016-1.672-0.417-1.405-1.643c0.275-1.263,0.447-2.545,0.682-3.817c0.633-3.417,1.275-6.833,1.977-10.593
		c-3.275,0-6.295,0.055-9.311-0.023c-1.392-0.037-1.889,0.484-2.108,1.85c-0.669,4.148-1.527,8.268-2.252,12.408
		c-0.228,1.3-0.808,1.933-2.189,1.868c-1.679-0.078-3.366-0.082-5.047-0.021c-1.583,0.056-2.013-0.506-1.683-2.101
		c0.839-4.05,1.459-8.146,2.276-12.203c0.294-1.459-0.163-1.829-1.549-1.782c-2.392,0.081-4.806,0.195-7.177-0.045
		c-1.68-0.169-2.14,0.485-2.394,1.911c-0.736,4.137-1.612,8.249-2.309,12.393c-0.235,1.396-0.872,1.833-2.199,1.799
		c-2.393-0.062-4.791-0.068-7.182,0.026c-0.591,0.023-1.585,0.427-1.676,0.821c-0.717,3.121-1.261,6.284-1.893,9.62
		c0.873,0.067,1.435,0.145,1.998,0.148c2.135,0.015,4.274,0.078,6.406-0.017c1.716-0.074,2.22,0.587,1.787,2.204
		c-0.317,1.184-0.598,2.39-0.746,3.605c-0.167,1.366-0.817,1.872-2.184,1.824c-2.392-0.084-4.792-0.103-7.181,0.009
		c-0.624,0.028-1.657,0.543-1.758,0.997c-0.675,3.069-1.15,6.181-1.751,9.635c2.685,0,5.181,0.004,7.676-0.001
		c2.815-0.007,2.816-0.01,2.329,2.651c-0.804,4.387-1.558,8.784-2.446,13.153c-0.274,1.354,0.082,1.757,1.397,1.726
		c2.458-0.058,4.924-0.123,7.376,0.012c1.571,0.087,2.138-0.511,2.393-1.988c0.777-4.521,1.71-9.015,2.513-13.531
		c0.254-1.434,0.811-2.196,2.412-2.067c1.543,0.126,3.108,0.103,4.656,0.018c1.666-0.09,2.387,0.342,1.977,2.21
		c-0.942,4.293-1.734,8.617-2.567,12.934c-0.14,0.725-0.176,1.469-0.281,2.391c2.974,0,5.695-0.163,8.386,0.052
		c2.105,0.168,2.82-0.671,3.128-2.596c0.704-4.404,1.608-8.774,2.362-13.169c0.229-1.331,0.829-1.882,2.2-1.829
		c2.392,0.089,4.79,0.095,7.182,0.031c0.546-0.015,1.479-0.367,1.558-0.716c0.718-3.188,1.287-6.407,1.94-9.829
		c-0.975-0.053-1.667-0.119-2.36-0.123c-2.07-0.014-4.143-0.048-6.212,0.018c-1.432,0.045-1.848-0.582-1.571-1.897
		c0.253-1.202,0.547-2.406,0.664-3.623c0.146-1.522,0.836-2.142,2.388-2.081c2.327,0.09,4.663,0.09,6.987-0.028
		c0.621-0.03,1.646-0.534,1.747-0.987c0.69-3.069,1.184-6.184,1.799-9.605C59.622,18.661,59.001,18.662,58.38,18.661z
		 M35.763,35.586c-0.138,0.532-0.993,1.198-1.561,1.24c-1.986,0.152-3.991,0.056-5.988,0.061c-1.081,0.003-1.549-0.492-1.313-1.579
		c0.013-0.062,0.022-0.127,0.038-0.188c0.458-1.854,0.917-3.709,1.375-5.563c2.729-0.124,5.459-0.249,8.63-0.395
		C36.504,31.69,36.259,33.671,35.763,35.586z"/>
</g>
</svg>
