<?xml version="1.0" encoding="utf-8"?>
<!-- Generator: Adobe Illustrator 16.0.0, SVG Export Plug-In . SVG Version: 6.00 Build 0)  -->
<!DOCTYPE svg PUBLIC "-//W3C//DTD SVG 1.1//EN" "http://www.w3.org/Graphics/SVG/1.1/DTD/svg11.dtd">
<svg version="1.1" id="Layer_1" xmlns="http://www.w3.org/2000/svg" xmlns:xlink="http://www.w3.org/1999/xlink" x="0px" y="0px"
	 width="13px" height="13px" viewBox="0 0 13 13" enable-background="new 0 0 13 13" xml:space="preserve">
<g id="Layer_2" display="none">
	<rect x="0.001" display="inline" width="13" height="13"/>
</g>
<g id="Layer_1_1_" display="none">
	
		<image display="inline" overflow="visible" enable-background="new    " width="13" height="13" xlink:href="FC0C7C002C27169B.png"  transform="matrix(1 0 0 1 9.765625e-04 0)">
	</image>
</g>
<g id="Layer_3">
	<g enable-background="new    ">
		<path fill="#FFFFFF" d="M12.84,11.777c0,0.266-0.098,0.496-0.293,0.691s-0.426,0.293-0.691,0.293
			c-0.267,0-0.497-0.098-0.692-0.293L8.555,9.86c-0.904,0.639-1.917,0.958-3.034,0.958c-0.745,0-1.438-0.142-2.076-0.426
			C2.788,10.109,2.22,9.728,1.741,9.248C1.262,8.787,0.88,8.22,0.596,7.545C0.312,6.835,0.17,6.144,0.17,5.469
			c0-0.71,0.142-1.401,0.426-2.076C0.898,2.7,1.279,2.124,1.741,1.662C2.202,1.201,2.77,0.82,3.444,0.519
			c0.656-0.267,1.348-0.399,2.076-0.399c0.728,0,1.428,0.133,2.103,0.399c0.691,0.319,1.26,0.701,1.703,1.144
			c0.461,0.462,0.844,1.038,1.145,1.73c0.284,0.675,0.426,1.366,0.426,2.076c0,1.118-0.318,2.129-0.957,3.034l2.607,2.608
			C12.742,11.307,12.84,11.528,12.84,11.777z M8.928,5.469c0-0.958-0.329-1.766-0.985-2.422C7.285,2.391,6.479,2.062,5.521,2.062
			c-0.941,0-1.739,0.329-2.396,0.985C2.45,3.722,2.113,4.528,2.113,5.469c0,0.923,0.337,1.722,1.012,2.396
			c0.674,0.675,1.473,1.012,2.396,1.012c0.94,0,1.747-0.337,2.422-1.012C8.599,7.208,8.928,6.409,8.928,5.469z"/>
	</g>
</g>
</svg>
