<?xml version="1.0" encoding="utf-8"?>
<!-- Generator: Adobe Illustrator 16.0.0, SVG Export Plug-In . SVG Version: 6.00 Build 0)  -->
<!DOCTYPE svg PUBLIC "-//W3C//DTD SVG 1.1//EN" "http://www.w3.org/Graphics/SVG/1.1/DTD/svg11.dtd">
<svg version="1.1" xmlns="http://www.w3.org/2000/svg" xmlns:xlink="http://www.w3.org/1999/xlink" x="0px" y="0px" width="76px"
	 height="240px" viewBox="0 0 76 240" enable-background="new 0 0 76 240" xml:space="preserve">
<g id="Layer_1" display="none">
	<rect display="inline" width="76" height="240"/>
	<image display="inline" overflow="visible" width="76" height="240" xlink:href="slider-arrows.png" >
	</image>
</g>
<g id="Layer_2">
	<polygon fill-rule="evenodd" clip-rule="evenodd" fill="#F28A00" points="75.961,59.47 76.012,59.384 75.86,59.297 41.124,0 
		39.025,1.194 73.159,59.465 38.988,117.798 41.092,118.995 75.935,59.516 75.975,59.493 	"/>
	<polygon fill-rule="evenodd" clip-rule="evenodd" fill="#F28A00" points="0.051,59.525 0,59.611 0.151,59.698 34.888,118.995 
		36.986,117.801 2.853,59.53 37.023,1.197 34.92,0 0.077,59.479 0.037,59.502 	"/>
	<polygon fill-rule="evenodd" clip-rule="evenodd" fill="#FFFFFF" points="75.961,180.476 76.012,180.389 75.86,180.302 
		41.124,121.005 39.025,122.199 73.159,180.47 38.988,238.803 41.092,240 75.935,180.521 75.975,180.498 	"/>
	<polygon fill-rule="evenodd" clip-rule="evenodd" fill="#FFFFFF" points="0.051,180.53 0,180.616 0.151,180.702 34.888,240 
		36.986,238.806 2.853,180.534 37.023,122.202 34.92,121.005 0.077,180.483 0.037,180.507 	"/>
</g>
</svg>
