<?xml version="1.0" encoding="utf-8"?>
<!-- Generator: Adobe Illustrator 16.0.0, SVG Export Plug-In . SVG Version: 6.00 Build 0)  -->
<!DOCTYPE svg PUBLIC "-//W3C//DTD SVG 1.1//EN" "http://www.w3.org/Graphics/SVG/1.1/DTD/svg11.dtd">
<svg version="1.1" xmlns="http://www.w3.org/2000/svg" xmlns:xlink="http://www.w3.org/1999/xlink" x="0px" y="0px"
	 width="122.813px" height="20px" viewBox="0 0 122.813 20" enable-background="new 0 0 122.813 20" xml:space="preserve">
<g id="Layer_1">
</g>
<g id="Layer_2">
	<g>
		<g id="_x23_020201ff">
			<path fill="#FFFFFF" d="M3.068,1.048c0.779-0.741,1.885-0.991,2.929-1.021c1.104-0.011,2.207-0.004,3.311-0.004
				c0.006,1.165,0.006,2.33,0,3.494C8.595,3.516,7.88,3.519,7.167,3.516C6.714,3.488,6.251,3.831,6.168,4.279
				C6.158,5.058,6.165,5.838,6.165,6.618c1.047,0.004,2.094-0.001,3.139,0.003c-0.076,1.127-0.216,2.25-0.38,3.367
				C8,9.996,7.074,9.987,6.15,9.992c-0.009,3.326,0.005,6.651-0.006,9.976c-1.373,0.006-2.747-0.003-4.12,0.004
				c-0.026-3.325,0.002-6.652-0.014-9.979C1.34,9.986,0.67,9.998,0,9.988C0.002,8.87,0.001,7.751,0.001,6.634
				C0.67,6.625,1.34,6.636,2.01,6.629c0.02-1.086-0.021-2.174,0.021-3.26C2.098,2.509,2.426,1.643,3.068,1.048z"/>
		</g>
		<g>
			<path fill="#FFFFFF" d="M116.57,7.906c0.306,0,0.73-0.159,1.169-0.679v0.6h1.01V2.389h-1.01v4.128
				c-0.124,0.154-0.398,0.407-0.596,0.407c-0.215,0-0.269-0.148-0.269-0.367V2.389h-1.011v4.546
				C115.864,7.471,116.027,7.906,116.57,7.906z"/>
			<polygon fill="#FFFFFF" points="109.656,7.827 110.796,7.827 110.796,4.837 112.121,0.455 110.964,0.455 110.235,3.401 
				109.45,0.455 108.302,0.455 109.656,4.837 			"/>
			<path fill="#FFFFFF" d="M112.069,6.471c0,0.958,0.501,1.457,1.481,1.457c0.814,0,1.454-0.544,1.454-1.457V3.805
				c0-0.851-0.634-1.461-1.454-1.461c-0.891,0-1.481,0.588-1.481,1.461V6.471z M113.11,3.895c0-0.298,0.137-0.519,0.422-0.519
				c0.31,0,0.442,0.214,0.442,0.519v2.529c0,0.296-0.151,0.515-0.424,0.515c-0.278,0-0.44-0.228-0.44-0.515V3.895z"/>
			<path fill="#FFFFFF" d="M120.111,9.064h-11.919c-1.28,0-2.318,1.039-2.318,2.319v5.857c0,1.28,1.038,2.318,2.318,2.318h11.919
				c1.281,0,2.319-1.038,2.319-2.318v-5.857C122.43,10.103,121.392,9.064,120.111,9.064z M109.781,17.824h-1.085v-6.003h-1.122
				v-1.019h3.329l0,0v1.019h-1.122V17.824z M113.638,17.824h-0.962v-0.572c-0.177,0.21-0.363,0.371-0.555,0.481
				c-0.519,0.297-1.232,0.292-1.232-0.76v-4.329h0.964v3.97c0,0.208,0.05,0.349,0.256,0.349c0.188,0,0.448-0.241,0.566-0.388v-3.932
				h0.962V17.824z M117.345,16.75c0,0.641-0.24,1.139-0.881,1.139c-0.352,0-0.646-0.128-0.914-0.464v0.399h-0.973v-7.022h0.973
				v2.261c0.216-0.265,0.512-0.484,0.856-0.484c0.705,0,0.939,0.595,0.939,1.298V16.75z M120.904,15.355h-1.841v0.977
				c0,0.389,0.033,0.725,0.421,0.725c0.406,0,0.429-0.273,0.429-0.725v-0.36h0.991v0.389c0,0.999-0.428,1.603-1.443,1.603
				c-0.919,0-1.39-0.67-1.39-1.603v-2.325c0-0.899,0.594-1.523,1.463-1.523c0.923,0,1.37,0.587,1.37,1.523V15.355z"/>
			<path fill="#FFFFFF" d="M119.492,13.419c-0.356,0-0.429,0.251-0.429,0.607v0.524h0.85v-0.524
				C119.913,13.677,119.838,13.419,119.492,13.419z"/>
			<path fill="#FFFFFF" d="M115.748,13.452c-0.067,0.035-0.133,0.087-0.198,0.158v3.228c0.078,0.084,0.154,0.145,0.228,0.182
				c0.156,0.079,0.387,0.086,0.492-0.053c0.056-0.073,0.084-0.192,0.084-0.357v-2.674c0-0.174-0.035-0.307-0.103-0.397
				C116.135,13.383,115.917,13.367,115.748,13.452z"/>
		</g>
		<path id="instagram-icon" fill="#FFFFFF" d="M80.977,7.394h5.266v8.083c0,1.969-1.596,3.565-3.565,3.565H71.781
			c-1.969,0-3.565-1.596-3.565-3.565V7.394h5.242c-0.536,0.754-0.853,1.675-0.853,2.671c0,2.547,2.064,4.612,4.612,4.612
			c2.548,0,4.613-2.065,4.613-4.612C81.831,9.068,81.513,8.146,80.977,7.394z M86.242,4.487v2.341h-5.739
			c-0.837-0.849-2-1.377-3.286-1.377c-1.287,0-2.45,0.528-3.287,1.377h-5.715V4.487c0-1.202,0.596-2.265,1.506-2.91v3.839h0.731
			V1.178c0.166-0.066,0.337-0.121,0.515-0.162v4.4h0.731V0.923c0.027,0,0.054-0.002,0.082-0.002h0.422v4.495h0.731V0.921h9.743
			C84.646,0.921,86.242,2.518,86.242,4.487z M84.612,2.984c0-0.315-0.256-0.572-0.572-0.572h-1.927
			c-0.316,0-0.572,0.256-0.572,0.572v1.97c0,0.316,0.256,0.572,0.572,0.572h1.927c0.316,0,0.572-0.256,0.572-0.572V2.984
			L84.612,2.984z M73.664,10.064c0-1.064,0.471-2.02,1.214-2.671c0.26-0.229,0.555-0.42,0.874-0.565
			c0.448-0.204,0.943-0.317,1.466-0.317c0.522,0,1.018,0.113,1.466,0.317c0.319,0.145,0.612,0.336,0.874,0.565
			C80.3,8.045,80.77,9,80.77,10.064c0,1.959-1.594,3.553-3.553,3.553C75.257,13.618,73.664,12.023,73.664,10.064z M74.603,10.064
			c0,1.451,1.176,2.626,2.626,2.626s2.626-1.175,2.626-2.626s-1.176-2.626-2.626-2.626S74.603,8.614,74.603,10.064z"/>
		<path fill="#FFFFFF" d="M50.519,3.594c-0.576,0.855-1.28,1.584-2.118,2.188c0.009,0.161,0.013,0.344,0.013,0.548
			c0,1.132-0.165,2.267-0.495,3.402c-0.332,1.135-0.834,2.222-1.513,3.26c-0.68,1.039-1.488,1.958-2.426,2.759
			c-0.938,0.801-2.066,1.44-3.383,1.917c-1.318,0.476-2.729,0.714-4.235,0.714c-2.35,0-4.516-0.635-6.495-1.904
			c0.352,0.039,0.688,0.058,1.011,0.058c1.964,0,3.718-0.604,5.261-1.814c-0.915-0.016-1.734-0.299-2.459-0.845
			c-0.725-0.547-1.222-1.246-1.495-2.097c0.269,0.051,0.535,0.077,0.797,0.077c0.378,0,0.75-0.05,1.116-0.148
			c-0.977-0.196-1.788-0.683-2.433-1.46C31.021,9.472,30.7,8.574,30.7,7.556V7.504c0.599,0.332,1.238,0.509,1.919,0.53
			c-0.581-0.386-1.039-0.889-1.378-1.51c-0.339-0.621-0.508-1.292-0.508-2.015c0-0.762,0.191-1.472,0.573-2.128
			c1.062,1.304,2.35,2.346,3.862,3.126c1.512,0.78,3.135,1.214,4.869,1.301c-0.074-0.309-0.111-0.63-0.111-0.965
			c0-1.169,0.415-2.167,1.242-2.995c0.827-0.827,1.825-1.241,2.995-1.241c1.225,0,2.254,0.445,3.093,1.337
			c0.958-0.19,1.854-0.533,2.69-1.029c-0.322,1.014-0.942,1.795-1.862,2.345C48.929,4.16,49.74,3.938,50.519,3.594L50.519,3.594z"/>
	</g>
</g>
</svg>
