<?xml version="1.0" encoding="utf-8"?>
<!-- Generator: Adobe Illustrator 16.0.0, SVG Export Plug-In . SVG Version: 6.00 Build 0)  -->
<!DOCTYPE svg PUBLIC "-//W3C//DTD SVG 1.1//EN" "http://www.w3.org/Graphics/SVG/1.1/DTD/svg11.dtd">
<svg version="1.1" xmlns="http://www.w3.org/2000/svg" xmlns:xlink="http://www.w3.org/1999/xlink" x="0px" y="0px" width="96px"
	 height="96px" viewBox="0 0 96 96" enable-background="new 0 0 96 96" xml:space="preserve">
<g id="Layer_1" display="none">
	<rect display="inline" width="96" height="96"/>
	<image display="inline" overflow="visible" width="96" height="96" xlink:href="social-header-icon.png" >
	</image>
</g>
<g id="Layer_2">
	<g id="ubzNKc_1_">
	</g>
	<g>
		<path fill="#FFFFFF" d="M48,4c24.262,0,44,19.738,44,44S72.262,92,48,92S4,72.262,4,48S23.738,4,48,4 M48,0C21.49,0,0,21.49,0,48
			s21.49,48,48,48s48-21.49,48-48S74.51,0,48,0L48,0z"/>
		<path fill="#FFFFFF" d="M59.667,55.046c-3.338,0-6.278,1.701-8.005,4.282l-14.756-8.096c0.228-0.82,0.359-1.682,0.359-2.576
			c0-0.52-0.053-1.027-0.132-1.525l15.631-7.789c1.749,1.803,4.193,2.927,6.903,2.927c5.316,0,9.626-4.31,9.626-9.625
			c0-5.315-4.31-9.625-9.626-9.625c-5.315,0-9.625,4.31-9.625,9.625c0,1.158,0.215,2.263,0.59,3.292l-14.945,7.446
			c-1.72-2.619-4.679-4.352-8.047-4.352c-5.316,0-9.625,4.31-9.625,9.625c0,5.316,4.309,9.625,9.625,9.625
			c2.988,0,5.657-1.361,7.422-3.497l15.122,8.294c-0.087,0.52-0.143,1.049-0.143,1.592c0,5.315,4.31,9.625,9.625,9.625
			c5.316,0,9.626-4.31,9.626-9.625S64.983,55.046,59.667,55.046z M59.667,27.02c3.103,0,5.626,2.523,5.626,5.625
			c0,3.102-2.523,5.625-5.626,5.625c-3.102,0-5.625-2.523-5.625-5.625C54.042,29.543,56.565,27.02,59.667,27.02z M27.64,54.282
			c-3.102,0-5.625-2.523-5.625-5.625c0-3.102,2.523-5.625,5.625-5.625s5.625,2.523,5.625,5.625
			C33.265,51.759,30.742,54.282,27.64,54.282z M59.667,70.296c-3.102,0-5.625-2.523-5.625-5.625s2.523-5.625,5.625-5.625
			c3.103,0,5.626,2.523,5.626,5.625S62.77,70.296,59.667,70.296z"/>
	</g>
</g>
</svg>
