<?xml version="1.0" encoding="utf-8"?>
<!-- Generator: Adobe Illustrator 16.0.0, SVG Export Plug-In . SVG Version: 6.00 Build 0)  -->
<!DOCTYPE svg PUBLIC "-//W3C//DTD SVG 1.1//EN" "http://www.w3.org/Graphics/SVG/1.1/DTD/svg11.dtd">
<svg version="1.1" id="Layer_1" xmlns="http://www.w3.org/2000/svg" xmlns:xlink="http://www.w3.org/1999/xlink" x="0px" y="0px"
	 width="158.906px" height="20px" viewBox="0 0 158.906 20" enable-background="new 0 0 158.906 20" xml:space="preserve">
<g>
	<path fill="#6D6D6D" d="M3.068,1.048c0.78-0.74,1.886-0.99,2.931-1.02C7.1,0.015,8.203,0.022,9.307,0.022
		c0.006,1.165,0.006,2.33,0,3.494c-0.714,0-1.429,0.002-2.141,0c-0.454-0.03-0.917,0.314-1,0.762
		c-0.01,0.778-0.003,1.558-0.003,2.338c1.047,0.004,2.094,0,3.141,0.003c-0.077,1.128-0.218,2.25-0.381,3.368
		c-0.925,0.008-1.85,0-2.774,0.004c-0.01,3.325,0.005,6.649-0.006,9.976c-1.373,0.006-2.747-0.003-4.12,0.004
		c-0.025-3.324,0.002-6.652-0.015-9.979C1.34,9.987,0.67,10,0,9.99c0.002-1.12,0-2.24,0-3.356c0.67-0.01,1.34,0.002,2.01-0.005
		C2.03,5.542,1.99,4.454,2.03,3.369C2.098,2.509,2.426,1.642,3.068,1.048L3.068,1.048z"/>
	<g>
		<path fill="#6D6D6D" d="M116.57,7.906c0.307,0,0.729-0.16,1.171-0.68v0.6h1.01V2.39h-1.01v4.127
			c-0.125,0.154-0.4,0.407-0.598,0.407c-0.215,0-0.271-0.148-0.271-0.367V2.39h-1.011v4.545c0,0.536,0.164,0.97,0.707,0.97
			L116.57,7.906L116.57,7.906z M109.656,7.827h1.14v-2.99l1.324-4.382h-1.156l-0.729,2.946l-0.783-2.945h-1.147l1.354,4.382
			L109.656,7.827L109.656,7.827z M112.07,6.47c0,0.96,0.5,1.458,1.479,1.458c0.814,0,1.454-0.544,1.454-1.457V3.806
			c0-0.85-0.634-1.46-1.454-1.46c-0.89,0-1.479,0.587-1.479,1.46V6.47z M113.11,3.895c0-0.298,0.138-0.52,0.423-0.52
			c0.31,0,0.441,0.215,0.441,0.52v2.53c0,0.295-0.149,0.514-0.425,0.514c-0.277,0-0.439-0.23-0.439-0.516v-2.53V3.895L113.11,3.895z
			 M120.11,9.064h-11.918c-1.279,0-2.317,1.04-2.317,2.32v5.856c0,1.279,1.038,2.318,2.317,2.318h11.92
			c1.28,0,2.318-1.039,2.318-2.318v-5.857C122.43,10.103,121.392,9.063,120.11,9.064L120.11,9.064z M109.78,17.824h-1.084V11.82
			h-1.121v-1.02h3.329v1.021h-1.122v6.002H109.78z M113.638,17.824h-0.963v-0.572c-0.177,0.21-0.362,0.37-0.555,0.48
			c-0.519,0.297-1.229,0.293-1.229-0.76v-4.328h0.963v3.97c0,0.208,0.05,0.35,0.256,0.35c0.188,0,0.447-0.241,0.564-0.39v-3.93
			h0.963L113.638,17.824L113.638,17.824z M117.345,16.75c0,0.641-0.24,1.141-0.881,1.141c-0.354,0-0.646-0.131-0.915-0.466v0.4
			h-0.973V10.8h0.973v2.261c0.217-0.265,0.513-0.482,0.856-0.482c0.704,0,0.939,0.594,0.939,1.297v2.873V16.75z M120.905,15.355
			h-1.842v0.977c0,0.391,0.033,0.725,0.42,0.725c0.407,0,0.431-0.271,0.431-0.725v-0.359h0.989v0.389
			c0,0.998-0.427,1.604-1.441,1.604c-0.918,0-1.391-0.67-1.391-1.604v-2.323c0-0.899,0.596-1.522,1.465-1.522
			c0.923,0,1.369,0.588,1.369,1.522v1.319V15.355z M119.492,13.42c-0.356,0-0.431,0.25-0.431,0.605v0.523h0.851v-0.523
			C119.912,13.676,119.838,13.419,119.492,13.42L119.492,13.42z M115.748,13.452c-0.066,0.034-0.133,0.087-0.198,0.157v3.229
			c0.078,0.084,0.154,0.145,0.229,0.182c0.156,0.08,0.388,0.086,0.492-0.053c0.057-0.072,0.084-0.191,0.084-0.357v-2.674
			c0-0.174-0.035-0.307-0.104-0.396C116.136,13.382,115.918,13.366,115.748,13.452L115.748,13.452z"/>
	</g>
	<path fill="#6D6D6D" d="M80.977,7.394h5.267v8.083c0,1.972-1.597,3.565-3.564,3.565H71.78c-1.968,0-3.563-1.597-3.563-3.565V7.394
		h5.242c-0.536,0.754-0.854,1.675-0.854,2.67c0,2.547,2.063,4.613,4.611,4.613c2.549,0,4.613-2.065,4.613-4.612
		C81.83,9.068,81.513,8.145,80.977,7.394L80.977,7.394z M86.242,4.487v2.34h-5.74c-0.836-0.848-2-1.376-3.285-1.376
		c-1.286,0-2.449,0.53-3.286,1.378h-5.716v-2.34c0-1.203,0.597-2.266,1.507-2.91v3.838h0.731V1.178
		c0.166-0.066,0.337-0.12,0.515-0.162v4.4h0.73V0.923L71.78,0.92h0.423v4.496h0.729V0.92h9.743
		C84.646,0.92,86.242,2.518,86.242,4.487z M84.612,2.984c0-0.315-0.256-0.572-0.571-0.572h-1.928c-0.315,0-0.571,0.256-0.571,0.572
		v1.97c0,0.316,0.257,0.572,0.572,0.572h1.928c0.315,0,0.571-0.256,0.571-0.572L84.612,2.984L84.612,2.984z M73.664,10.064
		c0-1.064,0.47-2.02,1.214-2.67c0.261-0.23,0.556-0.42,0.874-0.566c0.448-0.204,0.942-0.317,1.466-0.317
		c0.522,0,1.019,0.114,1.467,0.318c0.319,0.145,0.611,0.336,0.874,0.565c0.741,0.652,1.212,1.607,1.212,2.67
		c0,1.959-1.595,3.554-3.554,3.554C75.257,13.618,73.664,12.023,73.664,10.064L73.664,10.064z M74.604,10.064
		c0,1.45,1.175,2.625,2.625,2.625s2.625-1.174,2.625-2.625c0-1.451-1.176-2.626-2.626-2.626s-2.627,1.176-2.627,2.626H74.604z"/>
	<path fill="#6D6D6D" d="M50.52,3.594c-0.577,0.855-1.279,1.584-2.12,2.188c0.011,0.16,0.015,0.344,0.015,0.548
		c0,1.132-0.165,2.267-0.495,3.402c-0.333,1.135-0.835,2.222-1.515,3.26c-0.68,1.04-1.487,1.958-2.426,2.76
		c-0.938,0.8-2.065,1.439-3.383,1.916c-1.318,0.477-2.729,0.714-4.235,0.714c-2.35,0-4.516-0.635-6.494-1.903
		c0.352,0.039,0.688,0.059,1.01,0.059c1.965,0,3.721-0.604,5.263-1.812c-0.916-0.018-1.735-0.302-2.46-0.847
		c-0.726-0.547-1.223-1.246-1.495-2.099c0.271,0.052,0.534,0.078,0.797,0.078c0.378,0,0.75-0.051,1.116-0.147
		c-0.978-0.196-1.788-0.685-2.434-1.46c-0.645-0.778-0.965-1.676-0.965-2.694V7.503c0.6,0.332,1.237,0.51,1.92,0.53
		c-0.582-0.386-1.04-0.89-1.381-1.51c-0.338-0.62-0.507-1.292-0.507-2.015c0-0.763,0.189-1.473,0.573-2.13
		c1.062,1.305,2.35,2.347,3.861,3.127c1.513,0.78,3.135,1.214,4.87,1.3c-0.075-0.308-0.112-0.63-0.112-0.964
		c0-1.17,0.415-2.167,1.242-2.995c0.827-0.827,1.825-1.24,2.995-1.24c1.226,0,2.254,0.444,3.093,1.336
		c0.958-0.19,1.854-0.533,2.689-1.03c-0.321,1.015-0.941,1.796-1.861,2.346c0.845-0.1,1.655-0.322,2.436-0.666L50.52,3.594z"/>
</g>
<g>
	<path fill="#6D6D6D" d="M141.779,7.393l-1.598,5.175h-1.087l-0.974-3.208c-0.02-0.05-0.036-0.104-0.054-0.165
		c-0.017-0.061-0.033-0.124-0.05-0.189c-0.016,0.065-0.033,0.129-0.05,0.189c-0.016,0.061-0.034,0.115-0.053,0.165l-0.987,3.208
		h-1.087l-1.599-5.175h1.009c0.104,0,0.191,0.023,0.261,0.07c0.07,0.048,0.116,0.111,0.137,0.189l0.711,2.699
		c0.021,0.085,0.042,0.177,0.064,0.279c0.021,0.1,0.042,0.205,0.062,0.314c0.044-0.223,0.095-0.422,0.156-0.593l0.839-2.699
		c0.021-0.066,0.067-0.127,0.137-0.18c0.07-0.054,0.155-0.08,0.254-0.08h0.355c0.104,0,0.188,0.024,0.252,0.072
		c0.064,0.049,0.113,0.111,0.146,0.188l0.831,2.699c0.062,0.166,0.112,0.353,0.156,0.564c0.019-0.107,0.038-0.207,0.058-0.301
		c0.021-0.092,0.042-0.181,0.062-0.263l0.711-2.699c0.019-0.069,0.062-0.13,0.135-0.182c0.071-0.053,0.156-0.078,0.255-0.078
		H141.779z"/>
	<path fill="#6D6D6D" d="M150.055,7.393l-1.598,5.175h-1.087l-0.974-3.208c-0.02-0.05-0.036-0.104-0.054-0.165
		c-0.017-0.061-0.032-0.124-0.05-0.189c-0.016,0.065-0.033,0.129-0.05,0.189c-0.016,0.061-0.034,0.115-0.053,0.165l-0.987,3.208
		h-1.087l-1.599-5.175h1.009c0.104,0,0.191,0.023,0.262,0.07c0.069,0.048,0.115,0.111,0.136,0.189l0.711,2.699
		c0.021,0.085,0.042,0.177,0.064,0.279c0.021,0.1,0.042,0.205,0.062,0.314c0.044-0.223,0.095-0.422,0.156-0.593l0.839-2.699
		c0.021-0.066,0.067-0.127,0.137-0.18c0.07-0.054,0.155-0.08,0.254-0.08h0.355c0.104,0,0.188,0.024,0.252,0.072
		c0.064,0.049,0.113,0.111,0.146,0.188l0.831,2.699c0.062,0.166,0.112,0.353,0.156,0.564c0.019-0.107,0.038-0.207,0.058-0.301
		c0.021-0.092,0.042-0.181,0.062-0.263l0.711-2.699c0.019-0.069,0.062-0.13,0.135-0.182c0.071-0.053,0.156-0.078,0.255-0.078
		H150.055z"/>
	<path fill="#6D6D6D" d="M158.331,7.393l-1.598,5.175h-1.088l-0.973-3.208c-0.02-0.05-0.037-0.104-0.054-0.165
		c-0.018-0.061-0.033-0.124-0.05-0.189c-0.016,0.065-0.033,0.129-0.05,0.189s-0.034,0.115-0.053,0.165l-0.987,3.208h-1.088
		l-1.598-5.175h1.009c0.104,0,0.191,0.023,0.261,0.07c0.069,0.048,0.116,0.111,0.137,0.189l0.71,2.699
		c0.021,0.085,0.043,0.177,0.064,0.279c0.021,0.1,0.042,0.205,0.063,0.314c0.043-0.223,0.095-0.422,0.156-0.593l0.839-2.699
		c0.021-0.066,0.067-0.127,0.137-0.18c0.069-0.054,0.155-0.08,0.253-0.08h0.356c0.104,0,0.188,0.024,0.252,0.072
		c0.064,0.049,0.113,0.111,0.146,0.188l0.831,2.699c0.062,0.166,0.113,0.353,0.156,0.564c0.019-0.107,0.038-0.207,0.059-0.301
		c0.021-0.092,0.042-0.181,0.062-0.263l0.711-2.699c0.018-0.069,0.062-0.13,0.135-0.182c0.071-0.053,0.156-0.078,0.255-0.078
		H158.331z"/>
</g>
</svg>
